{
.appVersion = "972";
classes = (
{
automatic = 1;
code = "A A.001 Aacute Abreve Acircumflex Adieresis Agrave Amacron Aogonek Aring Atilde AE B B.001 C C.001 Cacute Ccaron Ccedilla Ccircumflex D D.001 Eth Dcaron Dcroat E E.001 Eacute Ecaron Ecircumflex Edieresis Edotaccent Egrave Emacron Eogonek F F.001 G G.001 Gcircumflex Gcommaaccent H H.001 Hbar Hcircumflex I I.001 Iacute Icircumflex Idieresis Igrave Imacron Iogonek J J.001 Jcircumflex K K.001 Kcommaaccent L L.001 Lacute Lcaron Lcommaaccent Lslash M M.001 N N.001 Nacute Ncaron Ncommaaccent Eng Ntilde O O.001 Oacute Ocircumflex Odieresis Ograve Ohungarumlaut Omacron Oslash Otilde OE P P.001 Thorn Q Q.001 R R.001 Racute Rcaron Rcommaaccent S S.001 Sacute Scaron Scedilla Scircumflex Germandbls T T.001 Tbar Tcaron Tcedilla U U.001 Uacute Ubreve Ucircumflex Udieresis Ugrave Uhungarumlaut Umacron Uogonek Uring V V.001 W W.001 Wacute Wcircumflex Wdieresis Wgrave X X.001 Y Y.001 Yacute Ycircumflex Ydieresis Ygrave Z Z.001 Zacute Zcaron Zdotaccent";
name = Uppercase;
},
{
code = "b h k l kcommaaccent lacute lcaron lcommaaccent lslash thorn hcircumflex";
name = acender_left;
},
{
code = "abreve acircumflex adieresis amacron atilde ccaron eth iacute icircumflex idieresis igrave imacron iogonek jcircumflex racute rcaron scaron yacute ycircumflex ydieresis ygrave zcaron rcaron";
name = f_vs_diacritics;
}
);
customParameters = (
{
name = note;
value = "";
}
);
date = "2016-03-03 10:15:36 +0000";
designer = "Mirco Monsees";
designerURL = "http://www.mircomonsees.com";
familyName = "Alenta Serif";
featurePrefixes = (
{
automatic = 1;
code = "languagesystem DFLT dflt;\012";
name = Languagesystems;
}
);
features = (
{
automatic = 1;
code = "feature ccmp;\012feature lnum;\012feature onum;\012feature case;\012feature calt;\012feature salt;\012feature ss01;\012";
name = aalt;
},
{
automatic = 1;

glyphs = (
{
glyphname = A;
lastChange = "2017-02-22 21:04:04 +0000";
layers = (
{
layerId = "71FD7A9F-05F5-4D76-8D4F-547475A05E4C";
width = 668;
},
{
anchors = (
{
name = bottom;
position = "{330, 0}";
},
{
name = ogonek;
position = "{614, 10}";
},
{
name = top;
position = "{389, 656}";
}
);
background = {
paths = (
{
closed = 1;
nodes = (
"281 337 LINE",
"318 243 OFFCURVE",
"367 130 OFFCURVE",
"389 82 CURVE SMOOTH",
"394 71 OFFCURVE",
"406 59 OFFCURVE",
"429 49 CURVE",
"349 49 LINE",
"344 0 LINE",
"611 0 LINE",
"616 47 LINE",
"568 55 LINE",
"500 158 OFFCURVE",
"422 314 OFFCURVE",
"380 399 CURVE"
);
},
{
closed = 1;
nodes = (
"459 562 OFFCURVE",
"376 442 OFFCURVE",
"334 392 CURVE",
"369 316 LINE",
"437 409 OFFCURVE",
"563 586 OFFCURVE",
"592 615 CURVE SMOOTH",
"616 639 OFFCURVE",
"640 650 OFFCURVE",
"667 650 CURVE",
"672 700 LINE",
"438 700 LINE",
"433 653 LINE",
"487 645 LINE"
);
},
{
closed = 1;
nodes = (
"216 113 OFFCURVE",
"305 253 OFFCURVE",
"336 303 CURVE",
"287 368 LINE",
"227 275 OFFCURVE",
"116 112 OFFCURVE",
"85 85 CURVE SMOOTH",
"57 61 OFFCURVE",
"33 50 OFFCURVE",
"6 50 CURVE",
"1 0 LINE",
"224 0 LINE",
"229 47 LINE",
"182 55 LINE"
);
},
{
closed = 1;
nodes = (
"379 390 LINE",
"338 474 OFFCURVE",
"312 522 OFFCURVE",
"292 574 CURVE SMOOTH",
"278 610 OFFCURVE",
"264 651 OFFCURVE",
"323 651 CURVE",
"328 700 LINE",
"71 700 LINE",
"66 653 LINE",
"113 643 LINE",
"186 505 OFFCURVE",
"245 390 OFFCURVE",
"276 323 CURVE"
);
}
);
};
layerId = "977FCFA9-45AC-4A33-B2D7-4D17E6BBF8E0";
paths = (
{
closed = 1;
nodes = (
"330 675 LINE",
"334 663 OFFCURVE",
"321 628 OFFCURVE",
"327 599 CURVE",
"362 437 OFFCURVE",
"442 104 OFFCURVE",
"446 95 CURVE SMOOTH",
"453 80 OFFCURVE",
"472 66 OFFCURVE",
"491 65 CURVE",
"394 55 LINE",
"387 0 LINE",
"668 0 LINE",
"677 54 LINE",
"620 66 LINE",
"590 128 OFFCURVE",
"469 599 OFFCURVE",
"451 685 CURVE"
);
},
{
closed = 1;
nodes = (
"158 206 LINE",
"473 205 LINE",
"476 278 LINE",
"189 280 LINE"
);
},
{
closed = 1;
nodes = (
"229 228 OFFCURVE",
"304 388 OFFCURVE",
"370 537 CURVE SMOOTH",
"410 630 OFFCURVE",
"404 617 OFFCURVE",
"446 685 CURVE",
"330 675 LINE",
"260 505 OFFCURVE",
"117 206 OFFCURVE",
"77 126 CURVE SMOOTH",
"46 63 OFFCURVE",
"19 54 OFFCURVE",
"-16 53 CURVE",
"-25 0 LINE",
"222 1 LINE",
"234 54 LINE",
"177 66 LINE"
);
}
);
width = 697;
},
{
anchors = (
{
name = bottom;
position = "{355, 0}";
},
{
name = ogonek;
position = "{636, 10}";
},
{
name = top;
position = "{355, 700}";
}
);
background = {
components = (
{
name = V;
transform = "{-1, 0, 0, -1, 727, 700}";
}
);
};
guideLines = (
{
angle = 86;
position = "{314, 98}";
}
);
layerId = "11343128-4963-4E5D-BE9C-B74F53B36FA5";
paths = (
{
closed = 1;
nodes = (
"169 220 LINE",
"484 219 LINE",
"480 292 LINE",
"199 294 LINE"
);
},
{
closed = 1;
nodes = (
"239 240 OFFCURVE",
"299 390 OFFCURVE",
"351 539 CURVE SMOOTH",
"384 632 OFFCURVE",
"378 645 OFFCURVE",
"373 682 CURVE",
"297 681 LINE",
"241 511 OFFCURVE",
"114 158 OFFCURVE",
"73 78 CURVE",
"5 65 LINE",
"0 0 LINE",
"268 1 LINE",
"273 66 LINE",
"200 78 LINE"
);
},
{
closed = 1;
nodes = (
"608 140 OFFCURVE",
"448 600 OFFCURVE",
"423 686 CURVE",
"192 681 LINE",
"183 615 LINE",
"308 585 LINE",
"355 419 OFFCURVE",
"460 116 OFFCURVE",
"465 107 CURVE SMOOTH",
"473 92 OFFCURVE",
"494 78 OFFCURVE",
"513 77 CURVE",
"404 66 LINE",
"399 0 LINE",
"692 0 LINE",
"697 66 LINE",
"643 78 LINE"
);
}
);
width = 697;
},
{
anchors = (
{
name = bottom;
position = "{335, 0}";
},
{
name = ogonek;
position = "{616, 10}";
},
{
name = top;
position = "{328, 708}";
}
);
background = {
paths = (
{
closed = 1;
nodes = (
"678 30 LINE",
"612 40 LINE",
"359 680 LINE",
"307 674 OFFCURVE",
"247 670 OFFCURVE",
"185 670 CURVE",
"180 640 LINE",
"205 631 OFFCURVE",
"236 622 OFFCURVE",
"267 616 CURVE",
"47 55 LINE",
"21 49 OFFCURVE",
"-4 40 OFFCURVE",
"-27 30 CURVE",
"-27 0 LINE",
"188 0 LINE",
"193 30 LINE",
"112 44 LINE",
"182 230 LINE",
"449 230 LINE",
"513 55 LINE",
"486 49 OFFCURVE",
"461 40 OFFCURVE",
"438 30 CURVE",
"438 0 LINE",
"673 0 LINE"
);
},
{
closed = 1;
nodes = (
"428 285 LINE",
"203 285 LINE",
"312 575 LINE",
"316 625 LINE",
"318 625 LINE",
"322 575 LINE"
);
}
);
};
guideLines = (
{
angle = 86;
position = "{67, 240}";
}
);
layerId = "0B1F8F77-7348-4C28-A663-EA76351238C4";
paths = (
{
closed = 1;
nodes = (
"195 237 LINE",
"460 236 LINE",
"456 279 LINE",
"201 281 LINE"
);
},
{
closed = 1;
nodes = (
"206 220 OFFCURVE",
"267 390 OFFCURVE",
"317 539 CURVE SMOOTH",
"348 632 OFFCURVE",
"343 650 OFFCURVE",
"345 680 CURVE",
"285 617 LINE",
"234 451 OFFCURVE",
"114 139 OFFCURVE",
"82 59 CURVE",
"4 46 LINE",
"0 0 LINE",
"221 1 LINE",
"225 46 LINE",
"154 58 LINE"
);
},
{
closed = 1;
nodes = (
"560 119 OFFCURVE",
"389 596 OFFCURVE",
"364 682 CURVE",
"219 680 LINE",
"213 635 LINE",
"315 617 LINE",
"316 611 OFFCURVE",
"318 606 OFFCURVE",
"319 601 CURVE",
"363 439 OFFCURVE",
"477 123 OFFCURVE",
"491 87 CURVE SMOOTH",
"497 72 OFFCURVE",
"520 58 OFFCURVE",
"539 57 CURVE",
"430 47 LINE",
"427 0 LINE",
"649 0 LINE",
"653 46 LINE",
"595 57 LINE"
);
}
);
width = 653;
}
);
leftKerningGroup = A;
rightKerningGroup = A;
unicode = 0041;
},
{
glyphname = A.001;
lastChange = "2017-02-19 14:03:58 +0000";
layers = (
{
layerId = "71FD7A9F-05F5-4D76-8D4F-547475A05E4C";
width = 668;
},
{
anchors = (
{
name = bottom;
position = "{330, 0}";
},
{
name = ogonek;
position = "{614, 10}";
},
{
name = top;
position = "{389, 656}";
}
);
background = {
paths = (
{
closed = 1;
nodes = (
"281 337 LINE",
"318 243 OFFCURVE",
"367 130 OFFCURVE",
"389 82 CURVE SMOOTH",
"394 71 OFFCURVE",
"406 59 OFFCURVE",
"429 49 CURVE",
"349 49 LINE",
"344 0 LINE",
"611 0 LINE",
"616 47 LINE",
"568 55 LINE",
"500 158 OFFCURVE",
"422 314 OFFCURVE",
"380 399 CURVE"
);
},
{
closed = 1;
nodes = (
"459 562 OFFCURVE",
"376 442 OFFCURVE",
"334 392 CURVE",
"369 316 LINE",
"437 409 OFFCURVE",
"563 586 OFFCURVE",
"592 615 CURVE SMOOTH",
"616 639 OFFCURVE",
"640 650 OFFCURVE",
"667 650 CURVE",
"672 700 LINE",
"438 700 LINE",
"433 653 LINE",
"487 645 LINE"
);
},
{
closed = 1;
nodes = (
"216 113 OFFCURVE",
"305 253 OFFCURVE",
"336 303 CURVE",
"287 368 LINE",
"227 275 OFFCURVE",
"116 112 OFFCURVE",
"85 85 CURVE SMOOTH",
"57 61 OFFCURVE",
"33 50 OFFCURVE",
"6 50 CURVE",
"1 0 LINE",
"224 0 LINE",
"229 47 LINE",
"182 55 LINE"
);
},
{
closed = 1;
nodes = (
"379 390 LINE",
"338 474 OFFCURVE",
"312 522 OFFCURVE",
"292 574 CURVE SMOOTH",
"278 610 OFFCURVE",
"264 651 OFFCURVE",
"323 651 CURVE",
"328 700 LINE",
"71 700 LINE",
"66 653 LINE",
"113 643 LINE",
"186 505 OFFCURVE",
"245 390 OFFCURVE",
"276 323 CURVE"
);
}
);
};
layerId = "977FCFA9-45AC-4A33-B2D7-4D17E6BBF8E0";
paths = (
{
closed = 1;
nodes = (
"330 675 LINE",
"334 663 OFFCURVE",
"321 628 OFFCURVE",
"327 599 CURVE",
"362 437 OFFCURVE",
"442 104 OFFCURVE",
"446 95 CURVE SMOOTH",
"453 80 OFFCURVE",
"472 66 OFFCURVE",
"491 65 CURVE",
"394 55 LINE",
"387 0 LINE",
"668 0 LINE",
"677 54 LINE",
"620 66 LINE",
"590 128 OFFCURVE",
"469 599 OFFCURVE",
"451 685 CURVE"
);
},
{
closed = 1;
nodes = (
"158 206 LINE",
"473 205 LINE",
"476 278 LINE",
"189 280 LINE"
);
},
{
closed = 1;
nodes = (
"229 228 OFFCURVE",
"304 388 OFFCURVE",
"370 537 CURVE SMOOTH",
"410 630 OFFCURVE",
"404 617 OFFCURVE",
"446 685 CURVE",
"330 675 LINE",
"260 505 OFFCURVE",
"117 206 OFFCURVE",
"77 126 CURVE SMOOTH",
"46 63 OFFCURVE",
"19 54 OFFCURVE",
"-16 53 CURVE",
"-25 0 LINE",
"222 1 LINE",
"234 54 LINE",
"177 66 LINE"
);
}
);
width = 697;
},
{
anchors = (
{
name = bottom;
position = "{308, 0}";
},
{
name = ogonek;
position = "{589, 10}";
},
{
name = top;
position = "{308, 700}";
}
);
background = {
components = (
{
name = V;
transform = "{-1, 0, 0, -1, 680, 700}";
}
);
};
layerId = "11343128-4963-4E5D-BE9C-B74F53B36FA5";
paths = (
{
closed = 1;
nodes = (
"122 220 LINE",
"437 219 LINE",
"433 292 LINE",
"152 294 LINE"
);
},
{
closed = 1;
nodes = (
"192 240 OFFCURVE",
"252 390 OFFCURVE",
"304 539 CURVE SMOOTH",
"337 632 OFFCURVE",
"331 645 OFFCURVE",
"326 682 CURVE",
"250 681 LINE",
"194 511 OFFCURVE",
"86 206 OFFCURVE",
"45 126 CURVE SMOOTH",
"19 75 OFFCURVE",
"-5 67 OFFCURVE",
"-40 66 CURVE",
"-47 0 LINE",
"218 1 LINE",
"226 66 LINE",
"153 78 LINE"
);
},
{
closed = 1;
nodes = (
"561 140 OFFCURVE",
"401 600 OFFCURVE",
"376 686 CURVE",
"151 681 LINE",
"136 615 LINE",
"261 585 LINE",
"308 419 OFFCURVE",
"413 116 OFFCURVE",
"418 107 CURVE SMOOTH",
"426 92 OFFCURVE",
"447 78 OFFCURVE",
"466 77 CURVE",
"358 66 LINE",
"352 0 LINE",
"645 0 LINE",
"650 66 LINE",
"596 78 LINE"
);
}
);
width = 600;
},
{
anchors = (
{
name = bottom;
position = "{335, 0}";
},
{
name = ogonek;
position = "{616, 10}";
},
{
name = top;
position = "{328, 708}";
}
);
background = {
paths = (
{
closed = 1;
nodes = (
"678 30 LINE",
"612 40 LINE",
"359 680 LINE",
"307 674 OFFCURVE",
"247 670 OFFCURVE",
"185 670 CURVE",
"180 640 LINE",
"205 631 OFFCURVE",
"236 622 OFFCURVE",
"267 616 CURVE",
"47 55 LINE",
"21 49 OFFCURVE",
"-4 40 OFFCURVE",
"-27 30 CURVE",
"-27 0 LINE",
"188 0 LINE",
"193 30 LINE",
"112 44 LINE",
"182 230 LINE",
"449 230 LINE",
"513 55 LINE",
"486 49 OFFCURVE",
"461 40 OFFCURVE",
"438 30 CURVE",
"438 0 LINE",
"673 0 LINE"
);
},
{
closed = 1;
nodes = (
"428 285 LINE",
"203 285 LINE",
"312 575 LINE",
"316 625 LINE",
"318 625 LINE",
"322 575 LINE"
);
}
);
};
layerId = "0B1F8F77-7348-4C28-A663-EA76351238C4";
paths = (
{
closed = 1;
nodes = (
"195 237 LINE",
"460 236 LINE",
"456 279 LINE",
"201 281 LINE"
);
},
{
closed = 1;
nodes = (
"206 220 OFFCURVE",
"267 390 OFFCURVE",
"317 539 CURVE SMOOTH",
"348 632 OFFCURVE",
"343 650 OFFCURVE",
"345 680 CURVE",
"305 679 LINE",
"254 513 OFFCURVE",
"137 198 OFFCURVE",
"105 118 CURVE SMOOTH",
"80 55 OFFCURVE",
"56 47 OFFCURVE",
"3 47 CURVE",
"0 0 LINE",
"221 1 LINE",
"228 46 LINE",
"154 58 LINE"
);
},
{
closed = 1;
nodes = (
"559 120 OFFCURVE",
"389 596 OFFCURVE",
"364 682 CURVE",
"219 680 LINE",
"213 635 LINE",
"315 617 LINE",
"316 611 OFFCURVE",
"318 606 OFFCURVE",
"319 601 CURVE",
"363 439 OFFCURVE",
"477 123 OFFCURVE",
"491 87 CURVE SMOOTH",
"497 72 OFFCURVE",
"520 58 OFFCURVE",
"539 57 CURVE",
"430 47 LINE",
"427 0 LINE",
"651 0 LINE",
"656 46 LINE",
"594 58 LINE"
);
}
);
width = 656;
}
);
leftKerningGroup = A;
rightKerningGroup = A;
},
{
glyphname = AE;
lastChange = "2017-02-22 21:11:01 +0000";
layers = (
{
background = {
paths = (
{
closed = 1;
nodes = (
"159 216 LINE",
"455 252 LINE",
"472 341 LINE",
"194 294 LINE"
);
},
{
closed = 1;
nodes = (
"505 280 LINE",
"647 297 LINE",
"654 249 LINE",
"712 252 LINE",
"720 295 OFFCURVE",
"733 392 OFFCURVE",
"718 392 CURVE SMOOTH",
"709 392 OFFCURVE",
"476 349 OFFCURVE",
"513 350 CURVE"
);
},
{
closed = 1;
nodes = (
"480 60 LINE",
"471 0 LINE",
"593 0 OFFCURVE",
"697 -1 OFFCURVE",
"819 -5 CURVE",
"855 168 LINE",
"805 176 LINE",
"767 106 LINE",
"723 92 OFFCURVE",
"629 88 OFFCURVE",
"553 90 CURVE"
);
},
{
closed = 1;
nodes = (
"315 636 LINE",
"235 460 OFFCURVE",
"122 198 OFFCURVE",
"83 126 CURVE SMOOTH",
"64 89 OFFCURVE",
"24 66 OFFCURVE",
"6 58 CURVE",
"10 0 LINE",
"205 1 LINE",
"219 56 LINE",
"162 68 LINE",
"209 195 OFFCURVE",
"402 600 OFFCURVE",
"431 640 CURVE"
);
},
{
closed = 1;
nodes = (
"396 440 OFFCURVE",
"414 105 OFFCURVE",
"417 97 CURVE",
"421 82 OFFCURVE",
"438 68 OFFCURVE",
"457 67 CURVE",
"358 57 LINE",
"350 0 LINE",
"604 0 LINE",
"622 54 LINE",
"567 66 LINE",
"552 115 OFFCURVE",
"527 433 OFFCURVE",
"516 604 CURVE",
"605 603 OFFCURVE",
"662 601 OFFCURVE",
"709 591 CURVE",
"736 529 LINE",
"793 539 LINE",
"783 704 LINE",
"753 703 OFFCURVE",
"596 698 OFFCURVE",
"486 698 CURVE SMOOTH",
"411 698 OFFCURVE",
"352 699 OFFCURVE",
"274 702 CURVE",
"261 638 LINE",
"389 603 LINE"
);
}
);
};
layerId = "71FD7A9F-05F5-4D76-8D4F-547475A05E4C";
paths = (
{
closed = 1;
nodes = (
"147 210 LINE",
"446 252 LINE",
"471 344 LINE",
"189 285 LINE"
);
},
{
closed = 1;
nodes = (
"499 280 LINE",
"642 297 LINE",
"648 249 LINE",
"703 252 LINE",
"715 295 OFFCURVE",
"721 385 OFFCURVE",
"706 392 CURVE SMOOTH",
"697 396 OFFCURVE",
"476 349 OFFCURVE",
"513 350 CURVE"
);
},
{
closed = 1;
nodes = (
"455 60 LINE",
"440 0 LINE",
"562 0 OFFCURVE",
"654 -1 OFFCURVE",
"776 -5 CURVE",
"815 168 LINE",
"759 176 LINE",
"722 106 LINE",
"677 92 OFFCURVE",
"606 88 OFFCURVE",
"530 90 CURVE"
);
},
{
closed = 1;
nodes = (
"340 616 LINE",
"245 440 OFFCURVE",
"109 198 OFFCURVE",
"63 126 CURVE SMOOTH",
"41 89 OFFCURVE",
"-1 66 OFFCURVE",
"-19 58 CURVE",
"-21 0 LINE",
"192 1 LINE",
"210 56 LINE",
"145 68 LINE",
"206 195 OFFCURVE",
"417 580 OFFCURVE",
"445 620 CURVE"
);
},
{
closed = 1;
nodes = (
"404 420 OFFCURVE",
"393 105 OFFCURVE",
"395 97 CURVE",
"398 82 OFFCURVE",
"413 68 OFFCURVE",
"432 67 CURVE",
"332 57 LINE",
"319 0 LINE",
"573 0 LINE",
"596 54 LINE",
"542 66 LINE",
"532 115 OFFCURVE",
"534 413 OFFCURVE",
"538 584 CURVE",
"627 583 OFFCURVE",
"674 581 OFFCURVE",
"720 571 CURVE",
"742 509 LINE",
"800 519 LINE",
"804 684 LINE",
"774 683 OFFCURVE",
"626 678 OFFCURVE",
"516 678 CURVE SMOOTH",
"441 678 OFFCURVE",
"383 679 OFFCURVE",
"305 682 CURVE",
"286 618 LINE",
"411 583 LINE"
);
}
);
width = 823;
},
{
background = {
paths = (
{
closed = 1;
nodes = (
"159 216 LINE",
"455 252 LINE",
"472 341 LINE",
"194 294 LINE"
);
},
{
closed = 1;
nodes = (
"505 280 LINE",
"647 297 LINE",
"654 249 LINE",
"712 252 LINE",
"720 295 OFFCURVE",
"733 392 OFFCURVE",
"718 392 CURVE SMOOTH",
"709 392 OFFCURVE",
"476 349 OFFCURVE",
"513 350 CURVE"
);
},
{
closed = 1;
nodes = (
"480 60 LINE",
"471 0 LINE",
"593 0 OFFCURVE",
"697 -1 OFFCURVE",
"819 -5 CURVE",
"855 168 LINE",
"805 176 LINE",
"767 106 LINE",
"723 92 OFFCURVE",
"629 88 OFFCURVE",
"553 90 CURVE"
);
},
{
closed = 1;
nodes = (
"315 636 LINE",
"235 460 OFFCURVE",
"122 198 OFFCURVE",
"83 126 CURVE SMOOTH",
"64 89 OFFCURVE",
"24 66 OFFCURVE",
"6 58 CURVE",
"10 0 LINE",
"205 1 LINE",
"219 56 LINE",
"162 68 LINE",
"209 195 OFFCURVE",
"402 600 OFFCURVE",
"431 640 CURVE"
);
},
{
closed = 1;
nodes = (
"396 440 OFFCURVE",
"414 105 OFFCURVE",
"417 97 CURVE",
"421 82 OFFCURVE",
"438 68 OFFCURVE",
"457 67 CURVE",
"358 57 LINE",
"350 0 LINE",
"604 0 LINE",
"622 54 LINE",
"567 66 LINE",
"552 115 OFFCURVE",
"527 433 OFFCURVE",
"516 604 CURVE",
"605 603 OFFCURVE",
"662 601 OFFCURVE",
"709 591 CURVE",
"736 529 LINE",
"793 539 LINE",
"783 704 LINE",
"753 703 OFFCURVE",
"596 698 OFFCURVE",
"486 698 CURVE SMOOTH",
"411 698 OFFCURVE",
"352 699 OFFCURVE",
"274 702 CURVE",
"261 638 LINE",
"389 603 LINE"
);
}
);
};
layerId = "977FCFA9-45AC-4A33-B2D7-4D17E6BBF8E0";
paths = (
{
closed = 1;
nodes = (
"147 210 LINE",
"446 252 LINE",
"471 344 LINE",
"189 285 LINE"
);
},
{
closed = 1;
nodes = (
"499 280 LINE",
"642 297 LINE",
"648 249 LINE",
"703 252 LINE",
"715 295 OFFCURVE",
"721 385 OFFCURVE",
"706 392 CURVE SMOOTH",
"697 396 OFFCURVE",
"476 349 OFFCURVE",
"513 350 CURVE"
);
},
{
closed = 1;
nodes = (
"455 60 LINE",
"440 0 LINE",
"562 0 OFFCURVE",
"654 -1 OFFCURVE",
"776 -5 CURVE",
"815 168 LINE",
"759 176 LINE",
"722 106 LINE",
"677 92 OFFCURVE",
"606 88 OFFCURVE",
"530 90 CURVE"
);
},
{
closed = 1;
nodes = (
"340 616 LINE",
"245 440 OFFCURVE",
"109 198 OFFCURVE",
"63 126 CURVE SMOOTH",
"41 89 OFFCURVE",
"-1 66 OFFCURVE",
"-19 58 CURVE",
"-21 0 LINE",
"192 1 LINE",
"210 56 LINE",
"145 68 LINE",
"206 195 OFFCURVE",
"417 580 OFFCURVE",
"445 620 CURVE"
);
},
{
closed = 1;
nodes = (
"404 420 OFFCURVE",
"393 105 OFFCURVE",
"395 97 CURVE",
"398 82 OFFCURVE",
"413 68 OFFCURVE",
"432 67 CURVE",
"332 57 LINE",
"319 0 LINE",
"573 0 LINE",
"596 54 LINE",
"542 66 LINE",
"532 115 OFFCURVE",
"534 413 OFFCURVE",
"538 584 CURVE",
"627 583 OFFCURVE",
"674 581 OFFCURVE",
"720 571 CURVE",
"742 509 LINE",
"800 519 LINE",
"804 684 LINE",
"774 683 OFFCURVE",
"626 678 OFFCURVE",
"516 678 CURVE SMOOTH",
"441 678 OFFCURVE",
"383 679 OFFCURVE",
"305 682 CURVE",
"286 618 LINE",
"411 583 LINE"
);
}
);
width = 844;
},
{
anchors = (
{
name = bottom;
position = "{471, 0}";
},
{
name = ogonek;
position = "{752, 10}";
},
{
name = top;
position = "{471, 700}";
},
{
name = topleft;
position = "{658, 700}";
}
);
components = (
{
name = _part.stem.cap;
transform = "{1, 0, -0.1047, 1, 143, 0}";
}
);
layerId = "11343128-4963-4E5D-BE9C-B74F53B36FA5";
paths = (
{
closed = 1;
nodes = (
"227 211 LINE",
"536 276 LINE",
"517 346 LINE",
"241 290 LINE"
);
},
{
closed = 1;
nodes = (
"249 240 OFFCURVE",
"314 390 OFFCURVE",
"367 539 CURVE SMOOTH",
"400 632 OFFCURVE",
"394 641 OFFCURVE",
"389 678 CURVE",
"313 678 LINE",
"257 508 OFFCURVE",
"133 206 OFFCURVE",
"92 126 CURVE SMOOTH",
"66 75 OFFCURVE",
"42 67 OFFCURVE",
"7 66 CURVE",
"0 0 LINE",
"265 1 LINE",
"273 66 LINE",
"200 78 LINE"
);
},
{
closed = 1;
nodes = (
"210 681 LINE",
"195 615 LINE",
"318 587 LINE",
"353 680 LINE"
);
},
{
closed = 1;
nodes = (
"504 0 LINE",
"730 0 OFFCURVE",
"669 1 OFFCURVE",
"849 -4 CURVE",
"871 189 LINE",
"806 197 LINE",
"775 115 LINE",
"732 101 OFFCURVE",
"630 96 OFFCURVE",
"551 99 CURVE"
);
},
{
closed = 1;
nodes = (
"525 267 LINE",
"714 286 LINE",
"707 393 LINE",
"689 399 LINE",
"632 386 OFFCURVE",
"568 369 OFFCURVE",
"511 354 CURVE"
);
},
{
closed = 1;
nodes = (
"578 585 OFFCURVE",
"667 582 OFFCURVE",
"717 574 CURVE",
"735 482 LINE",
"806 492 LINE",
"807 674 LINE",
"792 688 LINE",
"643 678 OFFCURVE",
"593 683 OFFCURVE",
"443 680 CURVE",
"458 586 LINE"
);
}
);
width = 876;
},
{
background = {
anchors = (
{
name = bottom;
position = "{658, 0}";
},
{
name = ogonek;
position = "{890, 10}";
},
{
name = top;
position = "{669, 708}";
},
{
name = topleft;
position = "{388, 700}";
}
);
paths = (
{
closed = 1;
nodes = (
"580 623 OFFCURVE",
"646 619 OFFCURVE",
"696 609 CURVE",
"711 527 LINE",
"757 537 LINE",
"759 689 LINE",
"654 683 OFFCURVE",
"561 680 OFFCURVE",
"445 680 CURVE",
"460 624 LINE"
);
},
{
closed = 1;
nodes = (
"483 1 LINE",
"583 1 OFFCURVE",
"680 0 OFFCURVE",
"784 -3 CURVE",
"806 152 LINE",
"765 159 LINE",
"730 70 LINE",
"687 56 OFFCURVE",
"561 51 OFFCURVE",
"484 55 CURVE"
);
},
{
closed = 1;
nodes = (
"467 341 LINE",
"671 323 LINE",
"684 390 LINE",
"672 398 LINE",
"620 395 OFFCURVE",
"440 389 OFFCURVE",
"471 390 CURVE"
);
},
{
closed = 1;
nodes = (
"195 237 LINE",
"480 236 LINE",
"476 279 LINE",
"201 281 LINE"
);
},
{
closed = 1;
nodes = (
"206 220 OFFCURVE",
"289 390 OFFCURVE",
"339 539 CURVE SMOOTH",
"370 632 OFFCURVE",
"370 611 OFFCURVE",
"388 671 CURVE",
"325 679 LINE",
"274 513 OFFCURVE",
"139 198 OFFCURVE",
"105 118 CURVE SMOOTH",
"78 55 OFFCURVE",
"56 47 OFFCURVE",
"3 47 CURVE",
"0 0 LINE",
"221 1 LINE",
"228 46 LINE",
"154 58 LINE"
);
},
{
closed = 1;
nodes = (
"222 680 LINE",
"216 635 LINE",
"321 616 LINE",
"345 680 LINE"
);
},
{
closed = 1;
nodes = (
"301 680 LINE",
"300 636 LINE",
"371 619 LINE",
"374 584 OFFCURVE",
"384 515 OFFCURVE",
"395 388 CURVE SMOOTH",
"413 178 OFFCURVE",
"412 145 OFFCURVE",
"416 93 CURVE SMOOTH",
"417 80 OFFCURVE",
"436 61 OFFCURVE",
"463 55 CURVE",
"352 46 LINE",
"352 0 LINE",
"600 0 LINE",
"601 46 LINE",
"531 55 LINE",
"497 111 OFFCURVE",
"486 288 OFFCURVE",
"482 334 CURVE SMOOTH",
"468 491 OFFCURVE",
"463 535 OFFCURVE",
"461 572 CURVE SMOOTH",
"458 621 OFFCURVE",
"471 634 OFFCURVE",
"533 636 CURVE",
"533 680 LINE"
);
}
);
};
layerId = "0B1F8F77-7348-4C28-A663-EA76351238C4";
paths = (
{
closed = 1;
nodes = (
"580 623 OFFCURVE",
"646 619 OFFCURVE",
"696 609 CURVE",
"711 527 LINE",
"757 537 LINE",
"759 689 LINE",
"654 683 OFFCURVE",
"561 680 OFFCURVE",
"445 680 CURVE",
"460 624 LINE"
);
},
{
closed = 1;
nodes = (
"483 1 LINE",
"583 1 OFFCURVE",
"680 0 OFFCURVE",
"784 -3 CURVE",
"806 152 LINE",
"765 159 LINE",
"730 70 LINE",
"687 56 OFFCURVE",
"561 51 OFFCURVE",
"484 55 CURVE"
);
},
{
closed = 1;
nodes = (
"478 294 LINE",
"681 321 LINE",
"678 390 LINE",
"664 395 LINE",
"615 381 OFFCURVE",
"441 334 OFFCURVE",
"471 342 CURVE"
);
},
{
closed = 1;
nodes = (
"213 235 LINE",
"490 298 LINE",
"477 339 LINE",
"208 279 LINE"
);
},
{
closed = 1;
nodes = (
"206 220 OFFCURVE",
"289 390 OFFCURVE",
"339 539 CURVE SMOOTH",
"370 632 OFFCURVE",
"370 611 OFFCURVE",
"388 671 CURVE",
"325 679 LINE",
"274 513 OFFCURVE",
"139 198 OFFCURVE",
"105 118 CURVE SMOOTH",
"78 55 OFFCURVE",
"56 47 OFFCURVE",
"3 47 CURVE",
"0 0 LINE",
"221 1 LINE",
"228 46 LINE",
"154 58 LINE"
);
},
{
closed = 1;
nodes = (
"222 680 LINE",
"216 635 LINE",
"321 616 LINE",
"345 680 LINE"
);
},
{
closed = 1;
nodes = (
"301 680 LINE",
"300 636 LINE",
"371 619 LINE",
"374 584 OFFCURVE",
"384 515 OFFCURVE",
"395 388 CURVE SMOOTH",
"413 178 OFFCURVE",
"412 145 OFFCURVE",
"416 93 CURVE SMOOTH",
"417 80 OFFCURVE",
"436 61 OFFCURVE",
"463 55 CURVE",
"352 46 LINE",
"352 0 LINE",
"600 0 LINE",
"601 46 LINE",
"531 55 LINE",
"497 111 OFFCURVE",
"486 288 OFFCURVE",
"482 334 CURVE SMOOTH",
"468 491 OFFCURVE",
"463 535 OFFCURVE",
"461 572 CURVE SMOOTH",
"458 621 OFFCURVE",
"471 634 OFFCURVE",
"533 636 CURVE",
"533 680 LINE"
);
}
);
width = 831;
}
);
leftKerningGroup = A;
leftMetricsKey = A;
rightKerningGroup = E;
rightMetricsKey = "=E-30";
unicode = 00C6;
},
{
glyphname = B;
lastChange = "2017-02-19 18:44:31 +0000";
layers = (
{
layerId = "71FD7A9F-05F5-4D76-8D4F-547475A05E4C";
width = 538;
},
{
anchors = (
{
name = bottom;
position = "{253, 0}";
},
{
name = top;
position = "{338, 700}";
}
);
background = {
components = (
{
name = R;
transform = "{1, 0, 0, 1, -25, 0}";
}
);
};
layerId = "977FCFA9-45AC-4A33-B2D7-4D17E6BBF8E0";
paths = (
{
closed = 1;
nodes = (
"50 676 LINE",
"40 621 LINE",
"95 610 LINE",
"105 585 OFFCURVE",
"98 502 OFFCURVE",
"87 399 CURVE SMOOTH",
"65 189 OFFCURVE",
"46 114 OFFCURVE",
"50 98 CURVE SMOOTH",
"52 86 OFFCURVE",
"67 71 OFFCURVE",
"96 65 CURVE",
"-12 55 LINE",
"-19 0 LINE",
"109 0 LINE",
"272 54 LINE",
"215 64 LINE",
"182 123 OFFCURVE",
"206 310 OFFCURVE",
"211 356 CURVE SMOOTH",
"225 489 OFFCURVE",
"237 565 OFFCURVE",
"253 586 CURVE SMOOTH",
"264 606 OFFCURVE",
"288 619 OFFCURVE",
"311 621 CURVE",
"317 676 LINE"
);
},
{
closed = 1;
nodes = (
"525 319 OFFCURVE",
"483 352 OFFCURVE",
"434 368 CURVE",
"503 394 OFFCURVE",
"549 469 OFFCURVE",
"533 554 CURVE SMOOTH",
"510 675 OFFCURVE",
"364 687 OFFCURVE",
"200 684 CURVE SMOOTH",
"148 683 OFFCURVE",
"58 679 OFFCURVE",
"50 676 CURVE",
"230 600 LINE",
"407 636 OFFCURVE",
"446 445 OFFCURVE",
"344 389 CURVE",
"318 382 OFFCURVE",
"244 379 OFFCURVE",
"204 394 CURVE",
"195 304 LINE",
"426 362 OFFCURVE",
"471 124 OFFCURVE",
"301 79 CURVE SMOOTH",
"266 70 OFFCURVE",
"218 83 OFFCURVE",
"193 91 CURVE",
"106 0 LINE",
"278 -1 LINE SMOOTH",
"405 -2 OFFCURVE",
"576 74 OFFCURVE",
"538 258 CURVE SMOOTH"
);
}
);
width = 548;
},
{
anchors = (
{
name = bottom;
position = "{332, 0}";
},
{
name = top;
position = "{332, 700}";
}
);
background = {
components = (
{
name = R;
transform = "{1, 0, 0, 1, 25, 0}";
}
);
};
components = (
{
name = _part.stem.cap;
transform = "{1, 0, 0, 1, -182, 0}";
piece = {
"BPR?" = 1;
};
}
);
layerId = "11343128-4963-4E5D-BE9C-B74F53B36FA5";
paths = (
{
closed = 1;
nodes = (
"605 319 OFFCURVE",
"543 355 OFFCURVE",
"483 363 CURVE",
"558 389 OFFCURVE",
"613 479 OFFCURVE",
"588 564 CURVE SMOOTH",
"552 685 OFFCURVE",
"421 688 OFFCURVE",
"257 685 CURVE SMOOTH",
"205 684 OFFCURVE",
"116 680 OFFCURVE",
"108 677 CURVE",
"271 596 LINE",
"443 640 OFFCURVE",
"479 455 OFFCURVE",
"398 394 CURVE",
"359 388 OFFCURVE",
"292 388 OFFCURVE",
"255 399 CURVE",
"232 304 LINE",
"317 311 LINE",
"512 315 OFFCURVE",
"524 119 OFFCURVE",
"417 77 CURVE",
"276 85 LINE",
"225 0 LINE",
"405 -3 LINE SMOOTH",
"532 -5 OFFCURVE",
"680 73 OFFCURVE",
"624 257 CURVE SMOOTH"
);
}
);
width = 671;
},
{
anchors = (
{
name = bottom;
position = "{312, 0}";
},
{
name = top;
position = "{312, 708}";
}
);
background = {
paths = (
{
closed = 1;
nodes = (
"436 349 LINE",
"469 356 OFFCURVE",
"540 410 OFFCURVE",
"540 500 CURVE SMOOTH",
"540 612 OFFCURVE",
"455 680 OFFCURVE",
"337 680 CURVE SMOOTH",
"266 680 OFFCURVE",
"186 670 OFFCURVE",
"125 670 CURVE SMOOTH",
"55 670 LINE",
"50 640 LINE",
"73 630 OFFCURVE",
"98 621 OFFCURVE",
"125 615 CURVE",
"125 55 LINE",
"98 49 OFFCURVE",
"73 40 OFFCURVE",
"50 30 CURVE",
"50 0 LINE",
"125 0 LINE SMOOTH",
"186 0 OFFCURVE",
"236 -10 OFFCURVE",
"307 -10 CURVE SMOOTH",
"455 -10 OFFCURVE",
"570 49 OFFCURVE",
"570 186 CURVE SMOOTH",
"570 301 OFFCURVE",
"469 340 OFFCURVE",
"436 347 CURVE"
);
},
{
closed = 1;
nodes = (
"210 368 LINE",
"210 622 LINE",
"240 624 OFFCURVE",
"271 625 OFFCURVE",
"307 625 CURVE SMOOTH",
"390 625 OFFCURVE",
"455 587 OFFCURVE",
"455 490 CURVE SMOOTH",
"455 427 OFFCURVE",
"438 398 OFFCURVE",
"438 398 CURVE",
"411 376 OFFCURVE",
"373 368 OFFCURVE",
"320 368 CURVE SMOOTH"
);
},
{
closed = 1;
nodes = (
"450 60 OFFCURVE",
"403 45 OFFCURVE",
"337 45 CURVE SMOOTH",
"294 45 OFFCURVE",
"248 47 OFFCURVE",
"205 49 CURVE",
"208 74 OFFCURVE",
"210 100 OFFCURVE",
"210 130 CURVE SMOOTH",
"210 317 LINE",
"320 317 LINE SMOOTH",
"407 317 OFFCURVE",
"485 286 OFFCURVE",
"485 176 CURVE SMOOTH",
"485 118 OFFCURVE",
"472 81 OFFCURVE",
"472 81 CURVE"
);
}
);
};
components = (
{
name = _part.stem.cap;
transform = "{1, 0, 0, 1, -122, 0}";
piece = {
"BPR?" = 1;
};
}
);
layerId = "0B1F8F77-7348-4C28-A663-EA76351238C4";
paths = (
{
closed = 1;
nodes = (
"490 368 OFFCURVE",
"556 464 OFFCURVE",
"529 555 CURVE SMOOTH",
"493 676 OFFCURVE",
"374 689 OFFCURVE",
"210 685 CURVE SMOOTH",
"168 684 OFFCURVE",
"73 681 OFFCURVE",
"65 678 CURVE",
"214 628 LINE",
"458 690 OFFCURVE",
"520 438 OFFCURVE",
"365 376 CURVE",
"306 373 OFFCURVE",
"261 375 OFFCURVE",
"214 381 CURVE",
"214 320 LINE",
"274 325 LINE",
"514 344 OFFCURVE",
"548 119 OFFCURVE",
"413 50 CURVE",
"226 61 LINE",
"175 0 LINE",
"348 -3 LINE SMOOTH",
"637 -8 OFFCURVE",
"640 344 OFFCURVE",
"407 352 CURVE"
);
}
);
width = 629;
}
);
leftKerningGroup = I;
leftMetricsKey = I;
rightKerningGroup = B;
unicode = 0042;
},
{
glyphname = B.001;
lastChange = "2017-02-19 14:03:58 +0000";
layers = (
{
layerId = "71FD7A9F-05F5-4D76-8D4F-547475A05E4C";
width = 538;
},
{
anchors = (
{
name = bottom;
position = "{253, 0}";
},
{
name = top;
position = "{338, 700}";
}
);
background = {
components = (
{
name = R;
transform = "{1, 0, 0, 1, -25, 0}";
}
);
};
layerId = "977FCFA9-45AC-4A33-B2D7-4D17E6BBF8E0";
paths = (
{
closed = 1;
nodes = (
"50 676 LINE",
"40 621 LINE",
"95 610 LINE",
"105 585 OFFCURVE",
"98 502 OFFCURVE",
"87 399 CURVE SMOOTH",
"65 189 OFFCURVE",
"46 114 OFFCURVE",
"50 98 CURVE SMOOTH",
"52 86 OFFCURVE",
"67 71 OFFCURVE",
"96 65 CURVE",
"-12 55 LINE",
"-19 0 LINE",
"109 0 LINE",
"272 54 LINE",
"215 64 LINE",
"182 123 OFFCURVE",
"206 310 OFFCURVE",
"211 356 CURVE SMOOTH",
"225 489 OFFCURVE",
"237 565 OFFCURVE",
"253 586 CURVE SMOOTH",
"264 606 OFFCURVE",
"288 619 OFFCURVE",
"311 621 CURVE",
"317 676 LINE"
);
},
{
closed = 1;
nodes = (
"525 319 OFFCURVE",
"483 352 OFFCURVE",
"434 368 CURVE",
"503 394 OFFCURVE",
"549 469 OFFCURVE",
"533 554 CURVE SMOOTH",
"510 675 OFFCURVE",
"364 687 OFFCURVE",
"200 684 CURVE SMOOTH",
"148 683 OFFCURVE",
"58 679 OFFCURVE",
"50 676 CURVE",
"230 600 LINE",
"407 636 OFFCURVE",
"446 445 OFFCURVE",
"344 389 CURVE",
"318 382 OFFCURVE",
"244 379 OFFCURVE",
"204 394 CURVE",
"195 304 LINE",
"426 362 OFFCURVE",
"471 124 OFFCURVE",
"301 79 CURVE SMOOTH",
"266 70 OFFCURVE",
"218 83 OFFCURVE",
"193 91 CURVE",
"106 0 LINE",
"278 -1 LINE SMOOTH",
"405 -2 OFFCURVE",
"576 74 OFFCURVE",
"538 258 CURVE SMOOTH"
);
}
);
width = 548;
},
{
anchors = (
{
name = bottom;
position = "{344, 0}";
},
{
name = top;
position = "{344, 700}";
}
);
background = {
components = (
{
name = R;
transform = "{1, 0, 0, 1, 37, 0}";
}
);
};
components = (
{
name = _part.stem.cap;
transform = "{1, 0, 0, 1, -170, 0}";
piece = {
"BPR?" = 1;
};
}
);
layerId = "11343128-4963-4E5D-BE9C-B74F53B36FA5";
paths = (
{
closed = 1;
nodes = (
"617 319 OFFCURVE",
"555 355 OFFCURVE",
"495 363 CURVE",
"570 389 OFFCURVE",
"625 479 OFFCURVE",
"600 564 CURVE SMOOTH",
"564 685 OFFCURVE",
"433 688 OFFCURVE",
"269 685 CURVE SMOOTH",
"217 684 OFFCURVE",
"128 680 OFFCURVE",
"120 677 CURVE",
"283 596 LINE",
"455 640 OFFCURVE",
"491 455 OFFCURVE",
"410 394 CURVE",
"371 388 OFFCURVE",
"304 388 OFFCURVE",
"267 399 CURVE",
"244 304 LINE",
"329 311 LINE",
"524 315 OFFCURVE",
"536 119 OFFCURVE",
"429 77 CURVE",
"288 85 LINE",
"237 0 LINE",
"417 -3 LINE SMOOTH",
"544 -5 OFFCURVE",
"692 73 OFFCURVE",
"636 257 CURVE SMOOTH"
);
}
);
width = 676;
},
{
anchors = (
{
name = bottom;
position = "{312, 0}";
},
{
name = top;
position = "{312, 708}";
}
);
background = {
paths = (
{
closed = 1;
nodes = (
"436 349 LINE",
"469 356 OFFCURVE",
"540 410 OFFCURVE",
"540 500 CURVE SMOOTH",
"540 612 OFFCURVE",
"455 680 OFFCURVE",
"337 680 CURVE SMOOTH",
"266 680 OFFCURVE",
"186 670 OFFCURVE",
"125 670 CURVE SMOOTH",
"55 670 LINE",
"50 640 LINE",
"73 630 OFFCURVE",
"98 621 OFFCURVE",
"125 615 CURVE",
"125 55 LINE",
"98 49 OFFCURVE",
"73 40 OFFCURVE",
"50 30 CURVE",
"50 0 LINE",
"125 0 LINE SMOOTH",
"186 0 OFFCURVE",
"236 -10 OFFCURVE",
"307 -10 CURVE SMOOTH",
"455 -10 OFFCURVE",
"570 49 OFFCURVE",
"570 186 CURVE SMOOTH",
"570 301 OFFCURVE",
"469 340 OFFCURVE",
"436 347 CURVE"
);
},
{
closed = 1;
nodes = (
"210 368 LINE",
"210 622 LINE",
"240 624 OFFCURVE",
"271 625 OFFCURVE",
"307 625 CURVE SMOOTH",
"390 625 OFFCURVE",
"455 587 OFFCURVE",
"455 490 CURVE SMOOTH",
"455 427 OFFCURVE",
"438 398 OFFCURVE",
"438 398 CURVE",
"411 376 OFFCURVE",
"373 368 OFFCURVE",
"320 368 CURVE SMOOTH"
);
},
{
closed = 1;
nodes = (
"450 60 OFFCURVE",
"403 45 OFFCURVE",
"337 45 CURVE SMOOTH",
"294 45 OFFCURVE",
"248 47 OFFCURVE",
"205 49 CURVE",
"208 74 OFFCURVE",
"210 100 OFFCURVE",
"210 130 CURVE SMOOTH",
"210 317 LINE",
"320 317 LINE SMOOTH",
"407 317 OFFCURVE",
"485 286 OFFCURVE",
"485 176 CURVE SMOOTH",
"485 118 OFFCURVE",
"472 81 OFFCURVE",
"472 81 CURVE"
);
}
);
};
components = (
{
name = _part.stem.cap;
transform = "{1, 0, 0, 1, -122, 0}";
piece = {
"BPR?" = 1;
};
}
);
layerId = "0B1F8F77-7348-4C28-A663-EA76351238C4";
paths = (
{
closed = 1;
nodes = (
"490 368 OFFCURVE",
"556 464 OFFCURVE",
"529 555 CURVE SMOOTH",
"493 676 OFFCURVE",
"374 689 OFFCURVE",
"210 685 CURVE SMOOTH",
"168 684 OFFCURVE",
"73 681 OFFCURVE",
"65 678 CURVE",
"214 628 LINE",
"458 690 OFFCURVE",
"520 438 OFFCURVE",
"365 376 CURVE",
"298 373 OFFCURVE",
"256 373 OFFCURVE",
"214 381 CURVE",
"214 320 LINE",
"274 325 LINE",
"514 344 OFFCURVE",
"548 119 OFFCURVE",
"413 50 CURVE",
"226 61 LINE",
"175 0 LINE",
"348 -3 LINE SMOOTH",
"637 -8 OFFCURVE",
"640 344 OFFCURVE",
"407 352 CURVE"
);
}
);
width = 629;
}
);
leftKerningGroup = I;
rightKerningGroup = B;
},
{
glyphname = C;
lastChange = "2017-02-22 21:05:13 +0000";
layers = (
{
layerId = "71FD7A9F-05F5-4D76-8D4F-547475A05E4C";
width = 548;
},
{
anchors = (
{
name = bottom;
position = "{276, 0}";
},
{
name = top;
position = "{371, 646}";
}
);
background = {
paths = (
{
closed = 1;
nodes = (
"157 724 OFFCURVE",
"4 495 OFFCURVE",
"38 235 CURVE SMOOTH",
"61 64 OFFCURVE",
"177 -5 OFFCURVE",
"291 -14 CURVE SMOOTH",
"420 -24 OFFCURVE",
"532 12 OFFCURVE",
"587 51 CURVE",
"587 129 OFFCURVE",
"593 227 OFFCURVE",
"600 249 CURVE SMOOTH",
"609 276 OFFCURVE",
"631 282 OFFCURVE",
"639 282 CURVE",
"643 343 LINE",
"558 340 OFFCURVE",
"514 341 OFFCURVE",
"434 344 CURVE",
"426 285 LINE",
"479 269 LINE",
"478 213 OFFCURVE",
"478 117 OFFCURVE",
"441 76 CURVE",
"304 62 OFFCURVE",
"223 113 OFFCURVE",
"196 270 CURVE SMOOTH",
"160 489 OFFCURVE",
"264 598 OFFCURVE",
"327 625 CURVE",
"424 619 OFFCURVE",
"486 584 OFFCURVE",
"513 547 CURVE",
"518 492 LINE",
"583 502 LINE",
"608 640 LINE",
"576 673 OFFCURVE",
"508 718 OFFCURVE",
"391 720 CURVE SMOOTH"
);
}
);
};
layerId = "977FCFA9-45AC-4A33-B2D7-4D17E6BBF8E0";
paths = (
{
closed = 1;
nodes = (
"539 59 LINE",
"517 41 OFFCURVE",
"433 -4 OFFCURVE",
"320 -9 CURVE SMOOTH",
"177 -15 OFFCURVE",
"52 43 OFFCURVE",
"18 204 CURVE SMOOTH",
"-32 442 OFFCURVE",
"114 698 OFFCURVE",
"379 694 CURVE SMOOTH",
"478 693 OFFCURVE",
"557 651 OFFCURVE",
"589 615 CURVE",
"563 476 LINE",
"499 466 LINE",
"497 517 LINE",
"477 549 OFFCURVE",
"415 616 OFFCURVE",
"322 616 CURVE",
"246 590 OFFCURVE",
"133 448 OFFCURVE",
"166 269 CURVE SMOOTH",
"186 163 OFFCURVE",
"248 93 OFFCURVE",
"359 84 CURVE SMOOTH",
"422 79 OFFCURVE",
"487 89 OFFCURVE",
"526 111 CURVE"
);
}
);
width = 558;
},
{
anchors = (
{
name = bottom;
position = "{331, 0}";
},
{
name = top;
position = "{355, 700}";
}
);
background = {
components = (
{
name = O;
}
);
};
layerId = "11343128-4963-4E5D-BE9C-B74F53B36FA5";
paths = (
{
closed = 1;
nodes = (
"552 106 OFFCURVE",
"466 79 OFFCURVE",
"403 86 CURVE SMOOTH",
"292 98 OFFCURVE",
"223 159 OFFCURVE",
"196 269 CURVE SMOOTH",
"151 452 OFFCURVE",
"256 578 OFFCURVE",
"329 604 CURVE",
"376 605 OFFCURVE",
"471 589 OFFCURVE",
"495 569 CURVE",
"515 484 LINE",
"587 494 LINE",
"594 656 LINE",
"557 680 OFFCURVE",
"477 699 OFFCURVE",
"361 696 CURVE SMOOTH",
"111 690 OFFCURVE",
"-19 431 OFFCURVE",
"47 202 CURVE SMOOTH",
"93 42 OFFCURVE",
"239 -20 OFFCURVE",
"381 -16 CURVE SMOOTH",
"509 -12 OFFCURVE",
"586 37 OFFCURVE",
"607 55 CURVE",
"587 126 LINE"
);
},
{
closed = 1;
nodes = (
"610 204 LINE",
"539 204 LINE",
"502 59 LINE",
"607 55 LINE"
);
}
);
width = 650;
},
{
anchors = (
{
name = bottom;
position = "{308, 0}";
},
{
name = top;
position = "{333, 708}";
}
);
background = {
components = (
{
name = G;
transform = "{1, 0, 0, 1, -1, 0}";
}
);
};
guideLines = (
{
angle = 85;
position = "{539, 285}";
}
);
layerId = "0B1F8F77-7348-4C28-A663-EA76351238C4";
paths = (
{
closed = 1;
nodes = (
"543 74 OFFCURVE",
"473 52 OFFCURVE",
"379 56 CURVE SMOOTH",
"289 60 OFFCURVE",
"180 101 OFFCURVE",
"137 273 CURVE SMOOTH",
"92 454 OFFCURVE",
"208 613 OFFCURVE",
"319 642 CURVE",
"409 642 OFFCURVE",
"485 622 OFFCURVE",
"509 599 CURVE",
"520 516 LINE",
"569 526 LINE",
"576 649 LINE",
"540 676 OFFCURVE",
"465 692 OFFCURVE",
"372 693 CURVE SMOOTH",
"106 696 OFFCURVE",
"-10 445 OFFCURVE",
"60 208 CURVE SMOOTH",
"107 48 OFFCURVE",
"228 -15 OFFCURVE",
"370 -9 CURVE SMOOTH",
"495 -4 OFFCURVE",
"574 40 OFFCURVE",
"595 58 CURVE",
"578 102 LINE"
);
},
{
closed = 1;
nodes = (
"595 58 LINE",
"595 181 LINE",
"547 177 LINE",
"524 63 LINE"
);
}
);
width = 645;
}
);
leftKerningGroup = O;
leftMetricsKey = O;
rightKerningGroup = C;
unicode = 0043;
},
{
glyphname = C.001;
lastChange = "2017-02-19 14:03:58 +0000";
layers = (
{
layerId = "71FD7A9F-05F5-4D76-8D4F-547475A05E4C";
width = 548;
},
{
anchors = (
{
name = bottom;
position = "{276, 0}";
},
{
name = top;
position = "{371, 646}";
}
);
background = {
paths = (
{
closed = 1;
nodes = (
"157 724 OFFCURVE",
"4 495 OFFCURVE",
"38 235 CURVE SMOOTH",
"61 64 OFFCURVE",
"177 -5 OFFCURVE",
"291 -14 CURVE SMOOTH",
"420 -24 OFFCURVE",
"532 12 OFFCURVE",
"587 51 CURVE",
"587 129 OFFCURVE",
"593 227 OFFCURVE",
"600 249 CURVE SMOOTH",
"609 276 OFFCURVE",
"631 282 OFFCURVE",
"639 282 CURVE",
"643 343 LINE",
"558 340 OFFCURVE",
"514 341 OFFCURVE",
"434 344 CURVE",
"426 285 LINE",
"479 269 LINE",
"478 213 OFFCURVE",
"478 117 OFFCURVE",
"441 76 CURVE",
"304 62 OFFCURVE",
"223 113 OFFCURVE",
"196 270 CURVE SMOOTH",
"160 489 OFFCURVE",
"264 598 OFFCURVE",
"327 625 CURVE",
"424 619 OFFCURVE",
"486 584 OFFCURVE",
"513 547 CURVE",
"518 492 LINE",
"583 502 LINE",
"608 640 LINE",
"576 673 OFFCURVE",
"508 718 OFFCURVE",
"391 720 CURVE SMOOTH"
);
}
);
};
layerId = "977FCFA9-45AC-4A33-B2D7-4D17E6BBF8E0";
paths = (
{
closed = 1;
nodes = (
"539 59 LINE",
"517 41 OFFCURVE",
"433 -4 OFFCURVE",
"320 -9 CURVE SMOOTH",
"177 -15 OFFCURVE",
"52 43 OFFCURVE",
"18 204 CURVE SMOOTH",
"-32 442 OFFCURVE",
"114 698 OFFCURVE",
"379 694 CURVE SMOOTH",
"478 693 OFFCURVE",
"557 651 OFFCURVE",
"589 615 CURVE",
"563 476 LINE",
"499 466 LINE",
"497 517 LINE",
"477 549 OFFCURVE",
"415 616 OFFCURVE",
"322 616 CURVE",
"246 590 OFFCURVE",
"133 448 OFFCURVE",
"166 269 CURVE SMOOTH",
"186 163 OFFCURVE",
"248 93 OFFCURVE",
"359 84 CURVE SMOOTH",
"422 79 OFFCURVE",
"487 89 OFFCURVE",
"526 111 CURVE"
);
}
);
width = 558;
},
{
anchors = (
{
name = bottom;
position = "{316, 0}";
},
{
name = top;
position = "{340, 700}";
}
);
background = {
components = (
{
name = E;
transform = "{1, 0, 0, 1, 64, 0}";
}
);
};
layerId = "11343128-4963-4E5D-BE9C-B74F53B36FA5";
paths = (
{
closed = 1;
nodes = (
"511 112 OFFCURVE",
"449 96 OFFCURVE",
"386 103 CURVE SMOOTH",
"275 115 OFFCURVE",
"213 167 OFFCURVE",
"184 272 CURVE SMOOTH",
"134 454 OFFCURVE",
"245 573 OFFCURVE",
"318 599 CURVE",
"365 600 OFFCURVE",
"437 589 OFFCURVE",
"461 569 CURVE",
"481 480 LINE",
"553 490 LINE",
"560 656 LINE",
"523 680 OFFCURVE",
"444 698 OFFCURVE",
"347 694 CURVE SMOOTH",
"81 683 OFFCURVE",
"-39 439 OFFCURVE",
"32 202 CURVE SMOOTH",
"80 42 OFFCURVE",
"210 -15 OFFCURVE",
"352 -9 CURVE SMOOTH",
"465 -4 OFFCURVE",
"545 40 OFFCURVE",
"566 58 CURVE",
"546 132 LINE"
);
},
{
closed = 1;
nodes = (
"573 204 LINE",
"502 204 LINE",
"461 59 LINE",
"566 58 LINE"
);
}
);
width = 602;
},
{
anchors = (
{
name = bottom;
position = "{308, 0}";
},
{
name = top;
position = "{333, 708}";
}
);
background = {
components = (
{
name = G;
transform = "{1, 0, 0, 1, -1, 0}";
}
);
};
layerId = "0B1F8F77-7348-4C28-A663-EA76351238C4";
paths = (
{
closed = 1;
nodes = (
"531 74 OFFCURVE",
"461 52 OFFCURVE",
"379 56 CURVE SMOOTH",
"289 60 OFFCURVE",
"180 101 OFFCURVE",
"137 273 CURVE SMOOTH",
"92 454 OFFCURVE",
"208 613 OFFCURVE",
"319 642 CURVE",
"409 642 OFFCURVE",
"479 622 OFFCURVE",
"503 599 CURVE",
"514 516 LINE",
"563 526 LINE",
"570 649 LINE",
"534 676 OFFCURVE",
"465 692 OFFCURVE",
"372 693 CURVE SMOOTH",
"106 696 OFFCURVE",
"-10 445 OFFCURVE",
"60 208 CURVE SMOOTH",
"107 48 OFFCURVE",
"228 -15 OFFCURVE",
"370 -9 CURVE SMOOTH",
"483 -4 OFFCURVE",
"562 40 OFFCURVE",
"583 58 CURVE",
"566 102 LINE"
);
},
{
closed = 1;
nodes = (
"583 58 LINE",
"589 181 LINE",
"541 177 LINE",
"512 63 LINE"
);
}
);
width = 619;
}
);
leftKerningGroup = O;
rightKerningGroup = C;
},
{
glyphname = D;
lastChange = "2017-02-22 20:16:57 +0000";
layers = (
{
layerId = "71FD7A9F-05F5-4D76-8D4F-547475A05E4C";
width = 595;
},
{
anchors = (
{
name = bottom;
position = "{287, 0}";
},
{
name = center;
position = "{183, 350}";
},
{
name = top;
position = "{332, 700}";
}
);
background = {
paths = (
{
closed = 1;
nodes = (
"504 683 OFFCURVE",
"417 727 OFFCURVE",
"283 709 CURVE",
"-6 647 OFFCURVE",
"-65 244 OFFCURVE",
"69 81 CURVE SMOOTH",
"140 -7 OFFCURVE",
"249 -28 OFFCURVE",
"366 0 CURVE",
"621 77 OFFCURVE",
"692 439 OFFCURVE",
"555 616 CURVE SMOOTH"
);
},
{
closed = 1;
nodes = (
"280 74 OFFCURVE",
"227 99 OFFCURVE",
"192 176 CURVE SMOOTH",
"118 333 OFFCURVE",
"146 545 OFFCURVE",
"286 626 CURVE",
"345 626 OFFCURVE",
"395 608 OFFCURVE",
"435 519 CURVE SMOOTH",
"503 371 OFFCURVE",
"478 162 OFFCURVE",
"340 75 CURVE"
);
}
);
};
layerId = "977FCFA9-45AC-4A33-B2D7-4D17E6BBF8E0";
paths = (
{
closed = 1;
nodes = (
"311 70 LINE",
"407 111 OFFCURVE",
"510 224 OFFCURVE",
"467 428 CURVE SMOOTH",
"434 583 OFFCURVE",
"312 626 OFFCURVE",
"242 616 CURVE",
"53 683 LINE",
"86 684 OFFCURVE",
"183 689 OFFCURVE",
"256 688 CURVE SMOOTH",
"436 686 OFFCURVE",
"569 640 OFFCURVE",
"607 470 CURVE SMOOTH",
"667 198 OFFCURVE",
"477 -5 OFFCURVE",
"264 -3 CURVE SMOOTH",
"-14 0 LINE",
"196 85 LINE"
);
},
{
closed = 1;
nodes = (
"315 628 LINE",
"291 626 OFFCURVE",
"267 613 OFFCURVE",
"256 593 CURVE SMOOTH",
"241 572 OFFCURVE",
"227 493 OFFCURVE",
"215 353 CURVE SMOOTH",
"211 307 OFFCURVE",
"187 123 OFFCURVE",
"220 64 CURVE",
"277 54 LINE",
"268 1 LINE",
"-14 0 LINE",
"-7 55 LINE",
"101 65 LINE",
"72 71 OFFCURVE",
"57 86 OFFCURVE",
"55 98 CURVE SMOOTH",
"51 114 OFFCURVE",
"75 197 OFFCURVE",
"92 407 CURVE SMOOTH",
"101 517 OFFCURVE",
"110 592 OFFCURVE",
"99 617 CURVE",
"41 628 LINE",
"51 683 LINE",
"320 683 LINE"
);
}
);
width = 607;
},
{
anchors = (
{
name = bottom;
position = "{345, 0}";
},
{
name = center;
position = "{185, 350}";
},
{
name = top;
position = "{345, 700}";
}
);
background = {
paths = (
{
closed = 1;
nodes = (
"47 0 LINE",
"325 -3 LINE SMOOTH",
"538 -5 OFFCURVE",
"704 198 OFFCURVE",
"636 482 CURVE SMOOTH",
"592 666 OFFCURVE",
"438 703 OFFCURVE",
"257 705 CURVE SMOOTH",
"183 706 OFFCURVE",
"90 701 OFFCURVE",
"57 700 CURVE",
"250 622 LINE",
"319 632 OFFCURVE",
"453 582 OFFCURVE",
"486 441 CURVE SMOOTH",
"534 234 OFFCURVE",
"439 107 OFFCURVE",
"366 71 CURVE",
"250 85 LINE"
);
}
);
};
components = (
{
name = _part.stem.cap;
transform = "{1, 0, 0, 1, -182, 0}";
}
);
layerId = "11343128-4963-4E5D-BE9C-B74F53B36FA5";
paths = (
{
closed = 1;
nodes = (
"59 0 LINE",
"357 -2 LINE SMOOTH",
"586 -4 OFFCURVE",
"727 225 OFFCURVE",
"658 480 CURVE SMOOTH",
"612 650 OFFCURVE",
"460 688 OFFCURVE",
"279 688 CURVE SMOOTH",
"197 688 OFFCURVE",
"84 682 OFFCURVE",
"51 680 CURVE",
"268 606 LINE",
"386 620 OFFCURVE",
"478 552 OFFCURVE",
"506 427 CURVE SMOOTH",
"547 245 OFFCURVE",
"473 112 OFFCURVE",
"389 75 CURVE",
"259 90 LINE"
);
}
);
width = 706;
},
{
anchors = (
{
name = bottom;
position = "{325, 0}";
},
{
name = center;
position = "{165, 350}";
},
{
name = top;
position = "{325, 708}";
}
);
background = {
components = (
{
name = C;
transform = "{-1, 0, 0, -1, 706, 684}";
}
);
};
components = (
{
name = _part.stem.cap;
transform = "{1, 0, 0, 1, -122, 0}";
piece = {
"BPR?" = 1;
};
}
);
layerId = "0B1F8F77-7348-4C28-A663-EA76351238C4";
paths = (
{
closed = 1;
nodes = (
"60 0 LINE",
"347 -4 LINE SMOOTH",
"571 -7 OFFCURVE",
"722 233 OFFCURVE",
"645 479 CURVE SMOOTH",
"593 646 OFFCURVE",
"455 685 OFFCURVE",
"288 689 CURVE SMOOTH",
"224 691 OFFCURVE",
"97 682 OFFCURVE",
"64 680 CURVE",
"219 638 LINE",
"388 644 OFFCURVE",
"513 594 OFFCURVE",
"559 447 CURVE SMOOTH",
"626 233 OFFCURVE",
"489 79 OFFCURVE",
"404 45 CURVE",
"218 64 LINE"
);
}
);
width = 705;
}
);
leftKerningGroup = I;
leftMetricsKey = I;
rightKerningGroup = O;
rightMetricsKey = O;
unicode = 0044;
},
{
glyphname = D.001;
lastChange = "2017-02-19 14:03:58 +0000";
layers = (
{
layerId = "71FD7A9F-05F5-4D76-8D4F-547475A05E4C";
width = 595;
},
{
anchors = (
{
name = bottom;
position = "{287, 0}";
},
{
name = center;
position = "{183, 350}";
},
{
name = top;
position = "{332, 700}";
}
);
background = {
paths = (
{
closed = 1;
nodes = (
"504 683 OFFCURVE",
"417 727 OFFCURVE",
"283 709 CURVE",
"-6 647 OFFCURVE",
"-65 244 OFFCURVE",
"69 81 CURVE SMOOTH",
"140 -7 OFFCURVE",
"249 -28 OFFCURVE",
"366 0 CURVE",
"621 77 OFFCURVE",
"692 439 OFFCURVE",
"555 616 CURVE SMOOTH"
);
},
{
closed = 1;
nodes = (
"280 74 OFFCURVE",
"227 99 OFFCURVE",
"192 176 CURVE SMOOTH",
"118 333 OFFCURVE",
"146 545 OFFCURVE",
"286 626 CURVE",
"345 626 OFFCURVE",
"395 608 OFFCURVE",
"435 519 CURVE SMOOTH",
"503 371 OFFCURVE",
"478 162 OFFCURVE",
"340 75 CURVE"
);
}
);
};
layerId = "977FCFA9-45AC-4A33-B2D7-4D17E6BBF8E0";
paths = (
{
closed = 1;
nodes = (
"311 70 LINE",
"407 111 OFFCURVE",
"510 224 OFFCURVE",
"467 428 CURVE SMOOTH",
"434 583 OFFCURVE",
"312 626 OFFCURVE",
"242 616 CURVE",
"53 683 LINE",
"86 684 OFFCURVE",
"183 689 OFFCURVE",
"256 688 CURVE SMOOTH",
"436 686 OFFCURVE",
"569 640 OFFCURVE",
"607 470 CURVE SMOOTH",
"667 198 OFFCURVE",
"477 -5 OFFCURVE",
"264 -3 CURVE SMOOTH",
"-14 0 LINE",
"196 85 LINE"
);
},
{
closed = 1;
nodes = (
"315 628 LINE",
"291 626 OFFCURVE",
"267 613 OFFCURVE",
"256 593 CURVE SMOOTH",
"241 572 OFFCURVE",
"227 493 OFFCURVE",
"215 353 CURVE SMOOTH",
"211 307 OFFCURVE",
"187 123 OFFCURVE",
"220 64 CURVE",
"277 54 LINE",
"268 1 LINE",
"-14 0 LINE",
"-7 55 LINE",
"101 65 LINE",
"72 71 OFFCURVE",
"57 86 OFFCURVE",
"55 98 CURVE SMOOTH",
"51 114 OFFCURVE",
"75 197 OFFCURVE",
"92 407 CURVE SMOOTH",
"101 517 OFFCURVE",
"110 592 OFFCURVE",
"99 617 CURVE",
"41 628 LINE",
"51 683 LINE",
"320 683 LINE"
);
}
);
width = 607;
},
{
anchors = (
{
name = bottom;
position = "{357, 0}";
},
{
name = center;
position = "{197, 350}";
},
{
name = top;
position = "{357, 700}";
}
);
background = {
paths = (
{
closed = 1;
nodes = (
"59 0 LINE",
"337 -3 LINE SMOOTH",
"550 -5 OFFCURVE",
"716 198 OFFCURVE",
"648 482 CURVE SMOOTH",
"604 666 OFFCURVE",
"450 703 OFFCURVE",
"269 705 CURVE SMOOTH",
"195 706 OFFCURVE",
"102 701 OFFCURVE",
"69 700 CURVE",
"262 622 LINE",
"331 632 OFFCURVE",
"465 582 OFFCURVE",
"498 441 CURVE SMOOTH",
"546 234 OFFCURVE",
"451 107 OFFCURVE",
"378 71 CURVE",
"262 85 LINE"
);
}
);
};
components = (
{
name = _part.stem.cap;
transform = "{1, 0, 0, 1, -170, 0}";
}
);
layerId = "11343128-4963-4E5D-BE9C-B74F53B36FA5";
paths = (
{
closed = 1;
nodes = (
"71 0 LINE",
"369 -2 LINE SMOOTH",
"598 -4 OFFCURVE",
"739 225 OFFCURVE",
"670 480 CURVE SMOOTH",
"624 650 OFFCURVE",
"472 688 OFFCURVE",
"291 688 CURVE SMOOTH",
"209 688 OFFCURVE",
"96 682 OFFCURVE",
"63 680 CURVE",
"280 606 LINE",
"398 620 OFFCURVE",
"490 552 OFFCURVE",
"518 427 CURVE SMOOTH",
"559 245 OFFCURVE",
"485 112 OFFCURVE",
"401 75 CURVE",
"271 90 LINE"
);
}
);
width = 702;
},
{
anchors = (
{
name = bottom;
position = "{325, 0}";
},
{
name = center;
position = "{165, 350}";
},
{
name = top;
position = "{325, 708}";
}
);
background = {
components = (
{
name = C;
transform = "{-1, 0, 0, -1, 706, 684}";
}
);
};
components = (
{
name = _part.stem.cap;
transform = "{1, 0, 0, 1, -122, 0}";
piece = {
"BPR?" = 1;
};
}
);
layerId = "0B1F8F77-7348-4C28-A663-EA76351238C4";
paths = (
{
closed = 1;
nodes = (
"60 0 LINE",
"347 -4 LINE SMOOTH",
"571 -7 OFFCURVE",
"722 233 OFFCURVE",
"645 479 CURVE SMOOTH",
"593 646 OFFCURVE",
"455 685 OFFCURVE",
"288 689 CURVE SMOOTH",
"224 691 OFFCURVE",
"97 682 OFFCURVE",
"64 680 CURVE",
"219 638 LINE",
"388 644 OFFCURVE",
"513 594 OFFCURVE",
"559 447 CURVE SMOOTH",
"626 233 OFFCURVE",
"489 79 OFFCURVE",
"404 45 CURVE",
"218 64 LINE"
);
}
);
width = 705;
}
);
leftKerningGroup = I;
rightKerningGroup = O;
},
{
glyphname = E;
lastChange = "2017-02-19 18:47:58 +0000";
layers = (
{
layerId = "71FD7A9F-05F5-4D76-8D4F-547475A05E4C";
width = 495;
},
{
anchors = (
{
name = bottom;
position = "{242, 0}";
},
{
name = ogonek;
position = "{465, 10}";
},
{
name = top;
position = "{311, 658}";
},
{
name = topleft;
position = "{68, 700}";
}
);
background = {
paths = (
{
closed = 1;
nodes = (
"63 700 LINE",
"55 653 LINE",
"105 642 LINE",
"116 602 OFFCURVE",
"109 484 OFFCURVE",
"106 427 CURVE SMOOTH",
"97 249 OFFCURVE",
"72 101 OFFCURVE",
"75 88 CURVE SMOOTH",
"79 74 OFFCURVE",
"117 56 OFFCURVE",
"136 50 CURVE",
"16 51 LINE",
"13 0 LINE",
"511 -1 LINE",
"537 164 LINE",
"487 175 LINE",
"482 165 OFFCURVE",
"467 127 OFFCURVE",
"453 98 CURVE",
"414 85 OFFCURVE",
"315 80 OFFCURVE",
"241 81 CURVE",
"211 114 OFFCURVE",
"219 228 OFFCURVE",
"227 331 CURVE",
"349 325 LINE",
"360 279 LINE",
"400 282 LINE",
"405 325 OFFCURVE",
"412 410 OFFCURVE",
"397 410 CURVE SMOOTH",
"389 410 OFFCURVE",
"226 404 OFFCURVE",
"232 404 CURVE",
"233 455 OFFCURVE",
"249 570 OFFCURVE",
"260 614 CURVE",
"331 614 OFFCURVE",
"430 615 OFFCURVE",
"474 601 CURVE",
"481 585 OFFCURVE",
"493 561 OFFCURVE",
"508 524 CURVE",
"558 535 LINE",
"532 700 LINE"
);
}
);
};
guideLines = (
{
angle = 12;
position = "{479, 529}";
},
{
angle = -12;
position = "{460, 175}";
},
{
angle = 84;
position = "{474, 548}";
}
);
layerId = "977FCFA9-45AC-4A33-B2D7-4D17E6BBF8E0";
paths = (
{
closed = 1;
nodes = (
"192 329 LINE",
"312 322 LINE",
"321 276 LINE",
"379 279 LINE",
"386 322 OFFCURVE",
"395 410 OFFCURVE",
"380 410 CURVE SMOOTH",
"371 410 OFFCURVE",
"156 403 OFFCURVE",
"202 404 CURVE"
);
},
{
closed = 1;
nodes = (
"305 583 OFFCURVE",
"405 582 OFFCURVE",
"455 572 CURVE",
"483 510 LINE",
"539 520 LINE",
"525 685 LINE",
"409 681 OFFCURVE",
"294 680 OFFCURVE",
"178 680 CURVE",
"185 584 LINE"
);
},
{
closed = 1;
nodes = (
"121 63 LINE",
"114 0 LINE",
"236 0 OFFCURVE",
"357 -1 OFFCURVE",
"479 -5 CURVE",
"510 168 LINE",
"460 176 LINE",
"424 106 LINE",
"380 92 OFFCURVE",
"269 88 OFFCURVE",
"193 90 CURVE"
);
},
{
closed = 1;
nodes = (
"49 680 LINE",
"40 625 LINE",
"94 614 LINE",
"104 589 OFFCURVE",
"97 514 OFFCURVE",
"86 407 CURVE SMOOTH",
"64 197 OFFCURVE",
"46 114 OFFCURVE",
"49 98 CURVE SMOOTH",
"52 86 OFFCURVE",
"67 71 OFFCURVE",
"95 65 CURVE",
"-9 55 LINE",
"-15 0 LINE",
"262 0 LINE",
"271 54 LINE",
"214 70 LINE",
"181 129 OFFCURVE",
"204 307 OFFCURVE",
"209 353 CURVE SMOOTH",
"223 490 OFFCURVE",
"237 569 OFFCURVE",
"252 590 CURVE SMOOTH",
"264 610 OFFCURVE",
"287 623 OFFCURVE",
"311 625 CURVE",
"316 680 LINE"
);
}
);
width = 518;
},
{
anchors = (
{
name = bottom;
position = "{328, 0}";
},
{
name = ogonek;
position = "{560, 10}";
},
{
name = top;
position = "{312, 703}";
},
{
name = topleft;
position = "{58, 700}";
}
);
background = {
components = (
{
name = P;
transform = "{1, 0, 0, 1, 38, 0}";
}
);
};
components = (
{
name = _part.stem.cap;
transform = "{1, 0, 0, 1, -182, 0}";
}
);
layerId = "11343128-4963-4E5D-BE9C-B74F53B36FA5";
paths = (
{
closed = 1;
nodes = (
"215 0 LINE",
"441 0 OFFCURVE",
"380 1 OFFCURVE",
"560 -4 CURVE",
"582 189 LINE",
"517 197 LINE",
"486 115 LINE",
"443 101 OFFCURVE",
"341 96 OFFCURVE",
"262 99 CURVE"
);
},
{
closed = 1;
nodes = (
"245 313 LINE",
"433 292 LINE",
"449 398 LINE",
"433 408 LINE",
"374 407 OFFCURVE",
"308 404 OFFCURVE",
"249 401 CURVE"
);
},
{
closed = 1;
nodes = (
"320 585 OFFCURVE",
"409 582 OFFCURVE",
"459 574 CURVE",
"477 482 LINE",
"548 492 LINE",
"549 677 LINE",
"537 687 LINE",
"391 679 OFFCURVE",
"335 683 OFFCURVE",
"185 680 CURVE",
"200 586 LINE"
);
}
);
width = 617;
},
{
anchors = (
{
name = bottom;
position = "{294, 0}";
},
{
name = ogonek;
position = "{526, 10}";
},
{
name = top;
position = "{305, 708}";
},
{
name = topleft;
position = "{24, 700}";
}
);
background = {
paths = (
{
closed = 1;
nodes = (
"535 151 LINE",
"485 156 LINE",
"468 123 OFFCURVE",
"453 90 OFFCURVE",
"438 53 CURVE",
"206 47 LINE",
"210 68 OFFCURVE",
"211 89 OFFCURVE",
"211 110 CURVE SMOOTH",
"211 317 LINE",
"466 305 LINE",
"468 330 OFFCURVE",
"468 355 OFFCURVE",
"466 380 CURVE",
"211 368 LINE",
"211 623 LINE",
"419 617 LINE",
"442 513 LINE",
"492 508 LINE",
"500 543 OFFCURVE",
"509 616 OFFCURVE",
"511 660 CURVE",
"501 670 LINE",
"56 670 LINE",
"51 640 LINE",
"74 630 OFFCURVE",
"99 621 OFFCURVE",
"126 615 CURVE",
"126 55 LINE",
"99 49 OFFCURVE",
"74 40 OFFCURVE",
"51 30 CURVE",
"51 0 LINE",
"511 0 LINE",
"521 10 LINE"
);
}
);
};
components = (
{
name = _part.stem.cap;
transform = "{1, 0, 0, 1, -122, 0}";
}
);
layerId = "0B1F8F77-7348-4C28-A663-EA76351238C4";
paths = (
{
closed = 1;
nodes = (
"216 1 LINE",
"316 1 OFFCURVE",
"426 0 OFFCURVE",
"530 -3 CURVE",
"552 152 LINE",
"511 159 LINE",
"476 70 LINE",
"433 56 OFFCURVE",
"294 51 OFFCURVE",
"217 55 CURVE"
);
},
{
closed = 1;
nodes = (
"200 341 LINE",
"417 323 LINE",
"430 390 LINE",
"418 398 LINE",
"366 395 OFFCURVE",
"173 389 OFFCURVE",
"204 390 CURVE"
);
},
{
closed = 1;
nodes = (
"313 623 OFFCURVE",
"406 619 OFFCURVE",
"456 609 CURVE",
"471 527 LINE",
"517 537 LINE",
"519 680 LINE",
"510 689 LINE",
"407 683 OFFCURVE",
"291 680 OFFCURVE",
"178 680 CURVE",
"193 624 LINE"
);
}
);
width = 607;
}
);
leftKerningGroup = I;
leftMetricsKey = I;
rightKerningGroup = E;
unicode = 0045;
},
{
glyphname = E.001;
lastChange = "2017-02-22 21:11:01 +0000";
layers = (
{
layerId = "71FD7A9F-05F5-4D76-8D4F-547475A05E4C";
width = 495;
},
{
anchors = (
{
name = bottom;
position = "{242, 0}";
},
{
name = ogonek;
position = "{465, 10}";
},
{
name = top;
position = "{311, 658}";
},
{
name = topleft;
position = "{68, 700}";
}
);
background = {
paths = (
{
closed = 1;
nodes = (
"63 700 LINE",
"55 653 LINE",
"105 642 LINE",
"116 602 OFFCURVE",
"109 484 OFFCURVE",
"106 427 CURVE SMOOTH",
"97 249 OFFCURVE",
"72 101 OFFCURVE",
"75 88 CURVE SMOOTH",
"79 74 OFFCURVE",
"117 56 OFFCURVE",
"136 50 CURVE",
"16 51 LINE",
"13 0 LINE",
"511 -1 LINE",
"537 164 LINE",
"487 175 LINE",
"482 165 OFFCURVE",
"467 127 OFFCURVE",
"453 98 CURVE",
"414 85 OFFCURVE",
"315 80 OFFCURVE",
"241 81 CURVE",
"211 114 OFFCURVE",
"219 228 OFFCURVE",
"227 331 CURVE",
"349 325 LINE",
"360 279 LINE",
"400 282 LINE",
"405 325 OFFCURVE",
"412 410 OFFCURVE",
"397 410 CURVE SMOOTH",
"389 410 OFFCURVE",
"226 404 OFFCURVE",
"232 404 CURVE",
"233 455 OFFCURVE",
"249 570 OFFCURVE",
"260 614 CURVE",
"331 614 OFFCURVE",
"430 615 OFFCURVE",
"474 601 CURVE",
"481 585 OFFCURVE",
"493 561 OFFCURVE",
"508 524 CURVE",
"558 535 LINE",
"532 700 LINE"
);
}
);
};
guideLines = (
{
angle = 12;
position = "{479, 529}";
},
{
angle = -12;
position = "{460, 175}";
},
{
angle = 84;
position = "{474, 548}";
}
);
layerId = "977FCFA9-45AC-4A33-B2D7-4D17E6BBF8E0";
paths = (
{
closed = 1;
nodes = (
"192 329 LINE",
"312 322 LINE",
"321 276 LINE",
"379 279 LINE",
"386 322 OFFCURVE",
"395 410 OFFCURVE",
"380 410 CURVE SMOOTH",
"371 410 OFFCURVE",
"156 403 OFFCURVE",
"202 404 CURVE"
);
},
{
closed = 1;
nodes = (
"305 583 OFFCURVE",
"405 582 OFFCURVE",
"455 572 CURVE",
"483 510 LINE",
"539 520 LINE",
"525 685 LINE",
"409 681 OFFCURVE",
"294 680 OFFCURVE",
"178 680 CURVE",
"185 584 LINE"
);
},
{
closed = 1;
nodes = (
"121 63 LINE",
"114 0 LINE",
"236 0 OFFCURVE",
"357 -1 OFFCURVE",
"479 -5 CURVE",
"510 168 LINE",
"460 176 LINE",
"424 106 LINE",
"380 92 OFFCURVE",
"269 88 OFFCURVE",
"193 90 CURVE"
);
},
{
closed = 1;
nodes = (
"49 680 LINE",
"40 625 LINE",
"94 614 LINE",
"104 589 OFFCURVE",
"97 514 OFFCURVE",
"86 407 CURVE SMOOTH",
"64 197 OFFCURVE",
"46 114 OFFCURVE",
"49 98 CURVE SMOOTH",
"52 86 OFFCURVE",
"67 71 OFFCURVE",
"95 65 CURVE",
"-9 55 LINE",
"-15 0 LINE",
"262 0 LINE",
"271 54 LINE",
"214 70 LINE",
"181 129 OFFCURVE",
"204 307 OFFCURVE",
"209 353 CURVE SMOOTH",
"223 490 OFFCURVE",
"237 569 OFFCURVE",
"252 590 CURVE SMOOTH",
"264 610 OFFCURVE",
"287 623 OFFCURVE",
"311 625 CURVE",
"316 680 LINE"
);
}
);
width = 518;
},
{
anchors = (
{
name = bottom;
position = "{328, 0}";
},
{
name = ogonek;
position = "{560, 10}";
},
{
name = top;
position = "{312, 703}";
},
{
name = topleft;
position = "{58, 700}";
}
);
background = {
components = (
{
name = P;
transform = "{1, 0, 0, 1, 38, 0}";
}
);
};
components = (
{
name = _part.stem.cap;
transform = "{1, 0, 0, 1, -182, 0}";
}
);
layerId = "11343128-4963-4E5D-BE9C-B74F53B36FA5";
paths = (
{
closed = 1;
nodes = (
"215 0 LINE",
"441 0 OFFCURVE",
"380 1 OFFCURVE",
"560 -4 CURVE",
"582 189 LINE",
"517 197 LINE",
"486 115 LINE",
"443 101 OFFCURVE",
"341 96 OFFCURVE",
"262 99 CURVE"
);
},
{
closed = 1;
nodes = (
"245 313 LINE",
"433 292 LINE",
"449 398 LINE",
"433 408 LINE",
"374 407 OFFCURVE",
"308 404 OFFCURVE",
"249 401 CURVE"
);
},
{
closed = 1;
nodes = (
"320 585 OFFCURVE",
"409 582 OFFCURVE",
"459 574 CURVE",
"477 482 LINE",
"548 492 LINE",
"549 677 LINE",
"537 687 LINE",
"391 679 OFFCURVE",
"335 683 OFFCURVE",
"185 680 CURVE",
"200 586 LINE"
);
}
);
width = 642;
},
{
anchors = (
{
name = bottom;
position = "{294, 0}";
},
{
name = ogonek;
position = "{526, 10}";
},
{
name = top;
position = "{305, 708}";
},
{
name = topleft;
position = "{24, 700}";
}
);
background = {
paths = (
{
closed = 1;
nodes = (
"535 151 LINE",
"485 156 LINE",
"468 123 OFFCURVE",
"453 90 OFFCURVE",
"438 53 CURVE",
"206 47 LINE",
"210 68 OFFCURVE",
"211 89 OFFCURVE",
"211 110 CURVE SMOOTH",
"211 317 LINE",
"466 305 LINE",
"468 330 OFFCURVE",
"468 355 OFFCURVE",
"466 380 CURVE",
"211 368 LINE",
"211 623 LINE",
"419 617 LINE",
"442 513 LINE",
"492 508 LINE",
"500 543 OFFCURVE",
"509 616 OFFCURVE",
"511 660 CURVE",
"501 670 LINE",
"56 670 LINE",
"51 640 LINE",
"74 630 OFFCURVE",
"99 621 OFFCURVE",
"126 615 CURVE",
"126 55 LINE",
"99 49 OFFCURVE",
"74 40 OFFCURVE",
"51 30 CURVE",
"51 0 LINE",
"511 0 LINE",
"521 10 LINE"
);
}
);
};
components = (
{
name = _part.stem.cap;
transform = "{1, 0, 0, 1, -122, 0}";
}
);
layerId = "0B1F8F77-7348-4C28-A663-EA76351238C4";
paths = (
{
closed = 1;
nodes = (
"216 1 LINE",
"316 1 OFFCURVE",
"426 0 OFFCURVE",
"530 -3 CURVE",
"552 152 LINE",
"511 159 LINE",
"476 70 LINE",
"433 56 OFFCURVE",
"294 51 OFFCURVE",
"217 55 CURVE"
);
},
{
closed = 1;
nodes = (
"200 341 LINE",
"417 323 LINE",
"430 390 LINE",
"418 398 LINE",
"366 395 OFFCURVE",
"173 389 OFFCURVE",
"204 390 CURVE"
);
},
{
closed = 1;
nodes = (
"313 623 OFFCURVE",
"406 619 OFFCURVE",
"456 609 CURVE",
"471 527 LINE",
"517 537 LINE",
"519 680 LINE",
"510 689 LINE",
"407 683 OFFCURVE",
"291 680 OFFCURVE",
"178 680 CURVE",
"193 624 LINE"
);
}
);
width = 591;
}
);
leftKerningGroup = I;
leftMetricsKey = I;
rightKerningGroup = E;
},
{
glyphname = F;
lastChange = "2017-02-22 21:09:45 +0000";
layers = (
{
layerId = "71FD7A9F-05F5-4D76-8D4F-547475A05E4C";
width = 462;
},
{
background = {
components = (
{
name = E;
transform = "{1, 0, 0, 1, -25, 0}";
}
);
};
guideLines = (
{
position = "{476, 541}";
}
);
layerId = "977FCFA9-45AC-4A33-B2D7-4D17E6BBF8E0";
paths = (
{
closed = 1;
nodes = (
"183 324 LINE",
"303 317 LINE",
"313 271 LINE",
"371 274 LINE",
"377 317 OFFCURVE",
"387 405 OFFCURVE",
"372 405 CURVE SMOOTH",
"363 405 OFFCURVE",
"147 398 OFFCURVE",
"193 399 CURVE"
);
},
{
closed = 1;
nodes = (
"290 585 OFFCURVE",
"390 584 OFFCURVE",
"440 574 CURVE",
"468 512 LINE",
"524 522 LINE",
"510 686 LINE",
"394 678 OFFCURVE",
"279 680 OFFCURVE",
"163 680 CURVE",
"170 586 LINE"
);
},
{
closed = 1;
nodes = (
"85 0 LINE",
"277 0 LINE",
"286 53 LINE",
"155 75 LINE"
);
},
{
closed = 1;
nodes = (
"49 680 LINE",
"40 625 LINE",
"94 614 LINE",
"104 589 OFFCURVE",
"97 514 OFFCURVE",
"86 407 CURVE SMOOTH",
"64 197 OFFCURVE",
"46 114 OFFCURVE",
"49 98 CURVE SMOOTH",
"52 86 OFFCURVE",
"67 71 OFFCURVE",
"95 65 CURVE",
"-13 55 LINE",
"-19 0 LINE",
"262 1 LINE",
"271 54 LINE",
"214 64 LINE",
"181 123 OFFCURVE",
"204 307 OFFCURVE",
"209 353 CURVE SMOOTH",
"223 490 OFFCURVE",
"237 569 OFFCURVE",
"252 590 CURVE SMOOTH",
"264 610 OFFCURVE",
"287 623 OFFCURVE",
"311 625 CURVE",
"316 680 LINE"
);
}
);
width = 494;
},
{
anchors = (
{
name = bottom;
position = "{308, 0}";
},
{
name = top;
position = "{308, 700}";
}
);
background = {
components = (
{
name = I;
transform = "{1, 0, 0, 1, 20, 0}";
}
);
paths = (
{
closed = 1;
nodes = (
"237 327 LINE",
"358 320 LINE",
"371 274 LINE",
"429 277 LINE",
"432 320 OFFCURVE",
"434 405 OFFCURVE",
"419 405 CURVE SMOOTH",
"410 405 OFFCURVE",
"195 398 OFFCURVE",
"241 399 CURVE"
);
},
{
closed = 1;
nodes = (
"167 0 LINE",
"359 0 LINE",
"364 53 LINE",
"231 75 LINE"
);
}
);
};
components = (
{
name = _part.stem.cap;
transform = "{1, 0, 0, 1, -182, 0}";
}
);
guideLines = (
{
angle = 86;
position = "{426, 235}";
}
);
layerId = "11343128-4963-4E5D-BE9C-B74F53B36FA5";
paths = (
{
closed = 1;
nodes = (
"237 317 LINE",
"442 296 LINE",
"458 392 LINE",
"442 402 LINE",
"383 401 OFFCURVE",
"300 398 OFFCURVE",
"241 395 CURVE"
);
},
{
closed = 1;
nodes = (
"321 595 OFFCURVE",
"408 592 OFFCURVE",
"458 584 CURVE",
"480 492 LINE",
"549 502 LINE",
"543 678 LINE",
"529 687 LINE",
"417 681 OFFCURVE",
"297 682 OFFCURVE",
"186 680 CURVE",
"201 596 LINE"
);
},
{
closed = 1;
nodes = (
"221 0 LINE",
"403 0 LINE",
"408 66 LINE",
"287 78 LINE",
"207 61 LINE"
);
}
);
width = 564;
},
{
anchors = (
{
name = bottom;
position = "{285, 0}";
},
{
name = top;
position = "{285, 708}";
}
);
background = {
components = (
{
name = E;
transform = "{1, 0, 0, 1, 1, 0}";
}
);
};
components = (
{
name = _part.stem.cap;
transform = "{1, 0, 0, 1, -122, 0}";
}
);
layerId = "0B1F8F77-7348-4C28-A663-EA76351238C4";
paths = (
{
closed = 1;
nodes = (
"192 338 LINE",
"411 320 LINE",
"424 387 LINE",
"412 395 LINE",
"360 392 OFFCURVE",
"165 386 OFFCURVE",
"196 387 CURVE"
);
},
{
closed = 1;
nodes = (
"307 623 OFFCURVE",
"401 618 OFFCURVE",
"451 610 CURVE",
"466 527 LINE",
"513 537 LINE",
"513 680 LINE",
"504 688 LINE",
"391 682 OFFCURVE",
"285 683 OFFCURVE",
"172 680 CURVE",
"187 624 LINE"
);
},
{
closed = 1;
nodes = (
"202 36 LINE",
"207 0 LINE",
"335 0 LINE",
"344 48 LINE",
"222 58 LINE"
);
}
);
width = 523;
}
);
leftKerningGroup = I;
leftMetricsKey = I;
rightKerningGroup = F;
unicode = 0046;
},
{
glyphname = F.001;
lastChange = "2017-02-22 21:11:01 +0000";
layers = (
{
layerId = "71FD7A9F-05F5-4D76-8D4F-547475A05E4C";
width = 462;
},
{
background = {
components = (
{
name = E;
transform = "{1, 0, 0, 1, -25, 0}";
}
);
};
guideLines = (
{
position = "{476, 541}";
}
);
layerId = "977FCFA9-45AC-4A33-B2D7-4D17E6BBF8E0";
paths = (
{
closed = 1;
nodes = (
"183 324 LINE",
"303 317 LINE",
"313 271 LINE",
"371 274 LINE",
"377 317 OFFCURVE",
"387 405 OFFCURVE",
"372 405 CURVE SMOOTH",
"363 405 OFFCURVE",
"147 398 OFFCURVE",
"193 399 CURVE"
);
},
{
closed = 1;
nodes = (
"290 585 OFFCURVE",
"390 584 OFFCURVE",
"440 574 CURVE",
"468 512 LINE",
"524 522 LINE",
"510 686 LINE",
"394 678 OFFCURVE",
"279 680 OFFCURVE",
"163 680 CURVE",
"170 586 LINE"
);
},
{
closed = 1;
nodes = (
"85 0 LINE",
"277 0 LINE",
"286 53 LINE",
"155 75 LINE"
);
},
{
closed = 1;
nodes = (
"49 680 LINE",
"40 625 LINE",
"94 614 LINE",
"104 589 OFFCURVE",
"97 514 OFFCURVE",
"86 407 CURVE SMOOTH",
"64 197 OFFCURVE",
"46 114 OFFCURVE",
"49 98 CURVE SMOOTH",
"52 86 OFFCURVE",
"67 71 OFFCURVE",
"95 65 CURVE",
"-13 55 LINE",
"-19 0 LINE",
"262 1 LINE",
"271 54 LINE",
"214 64 LINE",
"181 123 OFFCURVE",
"204 307 OFFCURVE",
"209 353 CURVE SMOOTH",
"223 490 OFFCURVE",
"237 569 OFFCURVE",
"252 590 CURVE SMOOTH",
"264 610 OFFCURVE",
"287 623 OFFCURVE",
"311 625 CURVE",
"316 680 LINE"
);
}
);
width = 494;
},
{
anchors = (
{
name = bottom;
position = "{308, 0}";
},
{
name = top;
position = "{308, 700}";
}
);
background = {
components = (
{
name = I;
transform = "{1, 0, 0, 1, 20, 0}";
}
);
paths = (
{
closed = 1;
nodes = (
"237 327 LINE",
"358 320 LINE",
"371 274 LINE",
"429 277 LINE",
"432 320 OFFCURVE",
"434 405 OFFCURVE",
"419 405 CURVE SMOOTH",
"410 405 OFFCURVE",
"195 398 OFFCURVE",
"241 399 CURVE"
);
},
{
closed = 1;
nodes = (
"167 0 LINE",
"359 0 LINE",
"364 53 LINE",
"231 75 LINE"
);
}
);
};
components = (
{
name = _part.stem.cap;
transform = "{1, 0, 0, 1, -182, 0}";
}
);
layerId = "11343128-4963-4E5D-BE9C-B74F53B36FA5";
paths = (
{
closed = 1;
nodes = (
"237 317 LINE",
"442 296 LINE",
"458 392 LINE",
"442 402 LINE",
"383 401 OFFCURVE",
"300 398 OFFCURVE",
"241 395 CURVE"
);
},
{
closed = 1;
nodes = (
"321 595 OFFCURVE",
"408 592 OFFCURVE",
"458 584 CURVE",
"480 492 LINE",
"549 502 LINE",
"543 678 LINE",
"529 687 LINE",
"417 681 OFFCURVE",
"297 682 OFFCURVE",
"186 680 CURVE",
"201 596 LINE"
);
},
{
closed = 1;
nodes = (
"221 0 LINE",
"403 0 LINE",
"407 66 LINE",
"287 78 LINE",
"207 61 LINE"
);
}
);
width = 549;
},
{
anchors = (
{
name = bottom;
position = "{285, 0}";
},
{
name = top;
position = "{285, 708}";
}
);
background = {
components = (
{
name = E;
transform = "{1, 0, 0, 1, 1, 0}";
}
);
};
components = (
{
name = _part.stem.cap;
transform = "{1, 0, 0, 1, -122, 0}";
}
);
layerId = "0B1F8F77-7348-4C28-A663-EA76351238C4";
paths = (
{
closed = 1;
nodes = (
"192 338 LINE",
"411 320 LINE",
"424 387 LINE",
"412 395 LINE",
"360 392 OFFCURVE",
"165 386 OFFCURVE",
"196 387 CURVE"
);
},
{
closed = 1;
nodes = (
"307 623 OFFCURVE",
"401 618 OFFCURVE",
"451 610 CURVE",
"466 527 LINE",
"513 537 LINE",
"513 680 LINE",
"504 688 LINE",
"391 682 OFFCURVE",
"285 683 OFFCURVE",
"172 680 CURVE",
"187 624 LINE"
);
},
{
closed = 1;
nodes = (
"202 36 LINE",
"207 0 LINE",
"335 0 LINE",
"344 48 LINE",
"222 58 LINE"
);
}
);
width = 523;
}
);
leftKerningGroup = I;
leftMetricsKey = I;
rightKerningGroup = F;
},
{
glyphname = G;
lastChange = "2017-02-22 21:06:28 +0000";
layers = (
{
layerId = "71FD7A9F-05F5-4D76-8D4F-547475A05E4C";
width = 595;
},
{
anchors = (
{
name = bottom;
position = "{320, 0}";
},
{
name = top;
position = "{340, 654}";
}
);
background = {
components = (
{
name = C;
transform = "{1, 0, 0, 1, -26, 0}";
}
);
};
layerId = "977FCFA9-45AC-4A33-B2D7-4D17E6BBF8E0";
paths = (
{
closed = 1;
nodes = (
"131 694 OFFCURVE",
"-23 489 OFFCURVE",
"17 235 CURVE SMOOTH",
"43 71 OFFCURVE",
"161 -5 OFFCURVE",
"279 -14 CURVE SMOOTH",
"412 -24 OFFCURVE",
"514 12 OFFCURVE",
"571 51 CURVE",
"571 129 OFFCURVE",
"577 227 OFFCURVE",
"584 249 CURVE SMOOTH",
"593 276 OFFCURVE",
"616 282 OFFCURVE",
"624 282 CURVE",
"628 343 LINE",
"540 340 OFFCURVE",
"495 341 OFFCURVE",
"412 344 CURVE",
"404 285 LINE",
"459 269 LINE",
"458 213 OFFCURVE",
"458 117 OFFCURVE",
"420 76 CURVE",
"301 57 OFFCURVE",
"194 114 OFFCURVE",
"169 271 CURVE SMOOTH",
"137 469 OFFCURVE",
"250 579 OFFCURVE",
"314 606 CURVE",
"396 600 OFFCURVE",
"481 551 OFFCURVE",
"508 514 CURVE",
"513 459 LINE",
"576 470 LINE",
"605 629 LINE",
"571 662 OFFCURVE",
"500 694 OFFCURVE",
"373 694 CURVE SMOOTH"
);
}
);
width = 620;
},
{
anchors = (
{
name = bottom;
position = "{345, 0}";
},
{
name = top;
position = "{359, 708}";
}
);
background = {
components = (
{
name = C;
transform = "{1, 0, 0, 1, -1, 0}";
}
);
};
guideLines = (
{
angle = 86;
position = "{661, 414}";
},
{
angle = 90;
position = "{617, 214}";
}
);
layerId = "11343128-4963-4E5D-BE9C-B74F53B36FA5";
paths = (
{
closed = 1;
nodes = (
"129 692 OFFCURVE",
"-13 463 OFFCURVE",
"41 223 CURVE SMOOTH",
"78 59 OFFCURVE",
"211 -5 OFFCURVE",
"329 -14 CURVE SMOOTH",
"463 -24 OFFCURVE",
"561 12 OFFCURVE",
"615 51 CURVE",
"613 129 OFFCURVE",
"613 236 OFFCURVE",
"614 258 CURVE",
"649 274 LINE",
"654 344 LINE",
"567 343 OFFCURVE",
"483 343 OFFCURVE",
"400 345 CURVE",
"395 277 LINE",
"480 257 LINE",
"483 201 OFFCURVE",
"482 123 OFFCURVE",
"466 82 CURVE",
"379 64 OFFCURVE",
"237 103 OFFCURVE",
"196 267 CURVE SMOOTH",
"150 450 OFFCURVE",
"260 577 OFFCURVE",
"323 604 CURVE",
"386 607 OFFCURVE",
"475 591 OFFCURVE",
"516 555 CURVE",
"531 472 LINE",
"608 483 LINE",
"618 656 LINE",
"573 677 OFFCURVE",
"485 701 OFFCURVE",
"371 698 CURVE SMOOTH"
);
}
);
width = 704;
},
{
anchors = (
{
name = bottom;
position = "{336, 0}";
},
{
name = top;
position = "{350, 708}";
}
);
background = {
components = (
{
name = O;
transform = "{1, 0, 0, 1, -1, 0}";
}
);
};
guideLines = (
{
angle = 90;
position = "{588, 405}";
}
);
layerId = "0B1F8F77-7348-4C28-A663-EA76351238C4";
paths = (
{
closed = 1;
nodes = (
"136 683 OFFCURVE",
"-2 482 OFFCURVE",
"51 235 CURVE SMOOTH",
"89 59 OFFCURVE",
"199 -1 OFFCURVE",
"317 -9 CURVE SMOOTH",
"463 -19 OFFCURVE",
"536 12 OFFCURVE",
"590 51 CURVE",
"585 129 OFFCURVE",
"588 249 OFFCURVE",
"589 271 CURVE",
"621 288 LINE",
"624 331 LINE",
"537 330 OFFCURVE",
"499 330 OFFCURVE",
"414 331 CURVE",
"409 288 LINE",
"515 267 LINE",
"518 211 OFFCURVE",
"524 103 OFFCURVE",
"498 62 CURVE",
"340 20 OFFCURVE",
"182 75 OFFCURVE",
"137 271 CURVE SMOOTH",
"93 462 OFFCURVE",
"202 604 OFFCURVE",
"315 642 CURVE",
"410 644 OFFCURVE",
"496 613 OFFCURVE",
"527 586 CURVE",
"537 503 LINE",
"587 513 LINE",
"595 638 LINE",
"554 666 OFFCURVE",
"470 696 OFFCURVE",
"364 692 CURVE SMOOTH"
);
}
);
width = 694;
}
);
leftKerningGroup = O;
leftMetricsKey = O;
rightKerningGroup = I;
unicode = 0047;
},
{
glyphname = G.001;
lastChange = "2017-02-19 14:03:58 +0000";
layers = (
{
layerId = "71FD7A9F-05F5-4D76-8D4F-547475A05E4C";
width = 595;
},
{
anchors = (
{
name = bottom;
position = "{320, 0}";
},
{
name = top;
position = "{340, 654}";
}
);
background = {
components = (
{
name = C;
transform = "{1, 0, 0, 1, -26, 0}";
}
);
};
layerId = "977FCFA9-45AC-4A33-B2D7-4D17E6BBF8E0";
paths = (
{
closed = 1;
nodes = (
"131 694 OFFCURVE",
"-23 489 OFFCURVE",
"17 235 CURVE SMOOTH",
"43 71 OFFCURVE",
"161 -5 OFFCURVE",
"279 -14 CURVE SMOOTH",
"412 -24 OFFCURVE",
"514 12 OFFCURVE",
"571 51 CURVE",
"571 129 OFFCURVE",
"577 227 OFFCURVE",
"584 249 CURVE SMOOTH",
"593 276 OFFCURVE",
"616 282 OFFCURVE",
"624 282 CURVE",
"628 343 LINE",
"540 340 OFFCURVE",
"495 341 OFFCURVE",
"412 344 CURVE",
"404 285 LINE",
"459 269 LINE",
"458 213 OFFCURVE",
"458 117 OFFCURVE",
"420 76 CURVE",
"301 57 OFFCURVE",
"194 114 OFFCURVE",
"169 271 CURVE SMOOTH",
"137 469 OFFCURVE",
"250 579 OFFCURVE",
"314 606 CURVE",
"396 600 OFFCURVE",
"481 551 OFFCURVE",
"508 514 CURVE",
"513 459 LINE",
"576 470 LINE",
"605 629 LINE",
"571 662 OFFCURVE",
"500 694 OFFCURVE",
"373 694 CURVE SMOOTH"
);
}
);
width = 620;
},
{
anchors = (
{
name = bottom;
position = "{321, 0}";
},
{
name = top;
position = "{335, 708}";
}
);
background = {
components = (
{
name = C;
transform = "{1, 0, 0, 1, -23, 0}";
}
);
};
layerId = "11343128-4963-4E5D-BE9C-B74F53B36FA5";
paths = (
{
closed = 1;
nodes = (
"112 694 OFFCURVE",
"-31 484 OFFCURVE",
"26 230 CURVE SMOOTH",
"63 66 OFFCURVE",
"187 -5 OFFCURVE",
"305 -14 CURVE SMOOTH",
"439 -24 OFFCURVE",
"537 12 OFFCURVE",
"591 51 CURVE",
"589 129 OFFCURVE",
"590 211 OFFCURVE",
"591 233 CURVE SMOOTH",
"592 256 OFFCURVE",
"604 270 OFFCURVE",
"623 270 CURVE",
"631 340 LINE",
"544 339 OFFCURVE",
"461 339 OFFCURVE",
"378 341 CURVE",
"368 273 LINE",
"457 253 LINE",
"460 197 OFFCURVE",
"456 135 OFFCURVE",
"440 94 CURVE",
"351 87 OFFCURVE",
"221 123 OFFCURVE",
"182 277 CURVE SMOOTH",
"136 460 OFFCURVE",
"249 573 OFFCURVE",
"312 600 CURVE",
"380 601 OFFCURVE",
"452 588 OFFCURVE",
"482 553 CURVE",
"497 470 LINE",
"574 481 LINE",
"584 654 LINE",
"539 675 OFFCURVE",
"469 700 OFFCURVE",
"354 698 CURVE SMOOTH"
);
}
);
width = 672;
},
{
anchors = (
{
name = bottom;
position = "{337, 0}";
},
{
name = top;
position = "{351, 708}";
}
);
background = {
components = (
{
name = E;
transform = "{1, 0, 0, 1, 68, 0}";
}
);
};
layerId = "0B1F8F77-7348-4C28-A663-EA76351238C4";
paths = (
{
closed = 1;
nodes = (
"137 692 OFFCURVE",
"-2 482 OFFCURVE",
"52 235 CURVE SMOOTH",
"88 71 OFFCURVE",
"203 1 OFFCURVE",
"321 -8 CURVE SMOOTH",
"455 -18 OFFCURVE",
"525 12 OFFCURVE",
"579 51 CURVE",
"574 129 OFFCURVE",
"577 228 OFFCURVE",
"578 250 CURVE SMOOTH",
"579 276 OFFCURVE",
"590 284 OFFCURVE",
"610 288 CURVE",
"613 331 LINE",
"526 330 OFFCURVE",
"488 330 OFFCURVE",
"403 331 CURVE",
"398 288 LINE",
"504 267 LINE",
"507 211 OFFCURVE",
"513 104 OFFCURVE",
"487 63 CURVE",
"326 29 OFFCURVE",
"184 82 OFFCURVE",
"138 271 CURVE SMOOTH",
"91 462 OFFCURVE",
"212 606 OFFCURVE",
"316 642 CURVE",
"409 644 OFFCURVE",
"477 625 OFFCURVE",
"507 599 CURVE",
"521 516 LINE",
"571 526 LINE",
"573 651 LINE",
"529 677 OFFCURVE",
"471 692 OFFCURVE",
"365 692 CURVE SMOOTH"
);
}
);
width = 668;
}
);
leftKerningGroup = O;
rightKerningGroup = I;
},
{
glyphname = H;
lastChange = "2017-02-19 18:48:11 +0000";
layers = (
{
layerId = "71FD7A9F-05F5-4D76-8D4F-547475A05E4C";
width = 634;
},
{
anchors = (
{
name = bottom;
position = "{310, 0}";
},
{
name = center;
position = "{353, 350}";
},
{
name = top;
position = "{354, 640}";
},
{
name = topleft;
position = "{56, 700}";
}
);
background = {
paths = (
{
closed = 1;
nodes = (
"533 671 OFFCURVE",
"462 732 OFFCURVE",
"296 696 CURVE SMOOTH",
"44 641 OFFCURVE",
"-10 234 OFFCURVE",
"114 89 CURVE SMOOTH",
"185 6 OFFCURVE",
"267 -23 OFFCURVE",
"407 8 CURVE SMOOTH",
"640 60 OFFCURVE",
"708 458 OFFCURVE",
"579 615 CURVE SMOOTH"
);
},
{
closed = 1;
nodes = (
"311 77 OFFCURVE",
"262 104 OFFCURVE",
"228 179 CURVE SMOOTH",
"159 333 OFFCURVE",
"179 544 OFFCURVE",
"314 627 CURVE",
"371 627 OFFCURVE",
"430 609 OFFCURVE",
"468 522 CURVE SMOOTH",
"532 377 OFFCURVE",
"516 162 OFFCURVE",
"379 77 CURVE"
);
}
);
};
guideLines = (
{
position = "{1786, 733}";
}
);
layerId = "977FCFA9-45AC-4A33-B2D7-4D17E6BBF8E0";
paths = (
{
closed = 1;
nodes = (
"184 295 LINE",
"490 298 LINE",
"489 381 LINE",
"196 381 LINE"
);
},
{
closed = 1;
nodes = (
"49 680 LINE",
"40 625 LINE",
"94 614 LINE",
"104 589 OFFCURVE",
"97 514 OFFCURVE",
"86 407 CURVE SMOOTH",
"64 197 OFFCURVE",
"46 114 OFFCURVE",
"49 98 CURVE SMOOTH",
"52 86 OFFCURVE",
"67 71 OFFCURVE",
"95 65 CURVE",
"-13 55 LINE",
"-19 0 LINE",
"261 1 LINE",
"270 54 LINE",
"213 64 LINE",
"180 123 OFFCURVE",
"203 307 OFFCURVE",
"208 353 CURVE SMOOTH",
"222 490 OFFCURVE",
"236 569 OFFCURVE",
"251 590 CURVE SMOOTH",
"263 610 OFFCURVE",
"286 623 OFFCURVE",
"310 625 CURVE",
"315 680 LINE"
);
},
{
closed = 1;
nodes = (
"421 680 LINE",
"412 625 LINE",
"466 614 LINE",
"476 589 OFFCURVE",
"469 514 OFFCURVE",
"458 407 CURVE SMOOTH",
"436 197 OFFCURVE",
"418 114 OFFCURVE",
"421 98 CURVE SMOOTH",
"424 86 OFFCURVE",
"439 71 OFFCURVE",
"467 65 CURVE",
"359 55 LINE",
"353 0 LINE",
"633 1 LINE",
"642 54 LINE",
"585 64 LINE",
"552 123 OFFCURVE",
"575 307 OFFCURVE",
"580 353 CURVE SMOOTH",
"594 490 OFFCURVE",
"608 569 OFFCURVE",
"623 590 CURVE SMOOTH",
"635 610 OFFCURVE",
"658 623 OFFCURVE",
"682 625 CURVE",
"687 680 LINE"
);
}
);
width = 662;
},
{
anchors = (
{
name = bottom;
position = "{383, 0}";
},
{
name = center;
position = "{383, 350}";
},
{
name = top;
position = "{383, 700}";
},
{
name = topleft;
position = "{42, 700}";
}
);
components = (
{
name = _part.stem.cap;
transform = "{1, 0, 0, 1, -182, 0}";
},
{
name = _part.stem.cap;
transform = "{1, 0, 0, 1, 219, 0}";
}
);
layerId = "11343128-4963-4E5D-BE9C-B74F53B36FA5";
paths = (
{
closed = 1;
nodes = (
"234 305 LINE",
"559 308 LINE",
"550 391 LINE",
"238 391 LINE"
);
}
);
width = 802;
},
{
anchors = (
{
name = bottom;
position = "{366, 0}";
},
{
name = center;
position = "{366, 350}";
},
{
name = top;
position = "{366, 708}";
},
{
name = topleft;
position = "{25, 700}";
}
);
background = {
paths = (
{
closed = 1;
nodes = (
"675 629 LINE",
"745 640 LINE",
"740 670 LINE",
"520 670 LINE",
"515 640 LINE",
"538 630 OFFCURVE",
"563 621 OFFCURVE",
"590 615 CURVE",
"590 370 LINE",
"210 370 LINE",
"210 629 LINE",
"280 640 LINE",
"275 670 LINE",
"55 670 LINE",
"50 640 LINE",
"73 630 OFFCURVE",
"98 621 OFFCURVE",
"125 615 CURVE",
"125 55 LINE",
"98 49 OFFCURVE",
"73 40 OFFCURVE",
"50 30 CURVE",
"50 0 LINE",
"275 0 LINE",
"280 30 LINE",
"204 42 LINE",
"208 69 OFFCURVE",
"210 97 OFFCURVE",
"210 130 CURVE SMOOTH",
"210 315 LINE",
"590 315 LINE",
"590 55 LINE",
"563 49 OFFCURVE",
"538 40 OFFCURVE",
"515 30 CURVE",
"515 0 LINE",
"740 0 LINE",
"745 30 LINE",
"669 42 LINE",
"673 69 OFFCURVE",
"675 97 OFFCURVE",
"675 130 CURVE SMOOTH"
);
}
);
};
components = (
{
name = _part.stem.cap;
transform = "{1, 0, 0, 1, -122, 0}";
},
{
name = _part.stem.cap;
transform = "{1, 0, 0, 1, 280, 0}";
}
);
layerId = "0B1F8F77-7348-4C28-A663-EA76351238C4";
paths = (
{
closed = 1;
nodes = (
"190 322 LINE",
"576 324 LINE",
"567 372 LINE",
"194 372 LINE"
);
}
);
width = 765;
}
);
leftKerningGroup = I;
leftMetricsKey = I;
rightKerningGroup = I;
unicode = 0048;
},
{
glyphname = H.001;
lastChange = "2017-02-19 14:03:58 +0000";
layers = (
{
layerId = "71FD7A9F-05F5-4D76-8D4F-547475A05E4C";
width = 634;
},
{
anchors = (
{
name = bottom;
position = "{310, 0}";
},
{
name = center;
position = "{353, 350}";
},
{
name = top;
position = "{354, 640}";
},
{
name = topleft;
position = "{56, 700}";
}
);
background = {
paths = (
{
closed = 1;
nodes = (
"533 671 OFFCURVE",
"462 732 OFFCURVE",
"296 696 CURVE SMOOTH",
"44 641 OFFCURVE",
"-10 234 OFFCURVE",
"114 89 CURVE SMOOTH",
"185 6 OFFCURVE",
"267 -23 OFFCURVE",
"407 8 CURVE SMOOTH",
"640 60 OFFCURVE",
"708 458 OFFCURVE",
"579 615 CURVE SMOOTH"
);
},
{
closed = 1;
nodes = (
"311 77 OFFCURVE",
"262 104 OFFCURVE",
"228 179 CURVE SMOOTH",
"159 333 OFFCURVE",
"179 544 OFFCURVE",
"314 627 CURVE",
"371 627 OFFCURVE",
"430 609 OFFCURVE",
"468 522 CURVE SMOOTH",
"532 377 OFFCURVE",
"516 162 OFFCURVE",
"379 77 CURVE"
);
}
);
};
guideLines = (
{
position = "{1786, 733}";
}
);
layerId = "977FCFA9-45AC-4A33-B2D7-4D17E6BBF8E0";
paths = (
{
closed = 1;
nodes = (
"184 295 LINE",
"490 298 LINE",
"489 381 LINE",
"196 381 LINE"
);
},
{
closed = 1;
nodes = (
"49 680 LINE",
"40 625 LINE",
"94 614 LINE",
"104 589 OFFCURVE",
"97 514 OFFCURVE",
"86 407 CURVE SMOOTH",
"64 197 OFFCURVE",
"46 114 OFFCURVE",
"49 98 CURVE SMOOTH",
"52 86 OFFCURVE",
"67 71 OFFCURVE",
"95 65 CURVE",
"-13 55 LINE",
"-19 0 LINE",
"261 1 LINE",
"270 54 LINE",
"213 64 LINE",
"180 123 OFFCURVE",
"203 307 OFFCURVE",
"208 353 CURVE SMOOTH",
"222 490 OFFCURVE",
"236 569 OFFCURVE",
"251 590 CURVE SMOOTH",
"263 610 OFFCURVE",
"286 623 OFFCURVE",
"310 625 CURVE",
"315 680 LINE"
);
},
{
closed = 1;
nodes = (
"421 680 LINE",
"412 625 LINE",
"466 614 LINE",
"476 589 OFFCURVE",
"469 514 OFFCURVE",
"458 407 CURVE SMOOTH",
"436 197 OFFCURVE",
"418 114 OFFCURVE",
"421 98 CURVE SMOOTH",
"424 86 OFFCURVE",
"439 71 OFFCURVE",
"467 65 CURVE",
"359 55 LINE",
"353 0 LINE",
"633 1 LINE",
"642 54 LINE",
"585 64 LINE",
"552 123 OFFCURVE",
"575 307 OFFCURVE",
"580 353 CURVE SMOOTH",
"594 490 OFFCURVE",
"608 569 OFFCURVE",
"623 590 CURVE SMOOTH",
"635 610 OFFCURVE",
"658 623 OFFCURVE",
"682 625 CURVE",
"687 680 LINE"
);
}
);
width = 662;
},
{
anchors = (
{
name = bottom;
position = "{395, 0}";
},
{
name = center;
position = "{395, 350}";
},
{
name = top;
position = "{395, 700}";
},
{
name = topleft;
position = "{54, 700}";
}
);
components = (
{
name = _part.stem.cap;
transform = "{1, 0, 0, 1, -170, 0}";
},
{
name = _part.stem.cap;
transform = "{1, 0, 0, 1, 231, 0}";
}
);
layerId = "11343128-4963-4E5D-BE9C-B74F53B36FA5";
paths = (
{
closed = 1;
nodes = (
"246 305 LINE",
"571 308 LINE",
"562 391 LINE",
"250 391 LINE"
);
}
);
width = 818;
},
{
anchors = (
{
name = bottom;
position = "{351, 0}";
},
{
name = center;
position = "{351, 350}";
},
{
name = top;
position = "{351, 708}";
},
{
name = topleft;
position = "{10, 700}";
}
);
background = {
paths = (
{
closed = 1;
nodes = (
"660 629 LINE",
"730 640 LINE",
"725 670 LINE",
"505 670 LINE",
"500 640 LINE",
"523 630 OFFCURVE",
"548 621 OFFCURVE",
"575 615 CURVE",
"575 370 LINE",
"195 370 LINE",
"195 629 LINE",
"265 640 LINE",
"260 670 LINE",
"40 670 LINE",
"35 640 LINE",
"58 630 OFFCURVE",
"83 621 OFFCURVE",
"110 615 CURVE",
"110 55 LINE",
"83 49 OFFCURVE",
"58 40 OFFCURVE",
"35 30 CURVE",
"35 0 LINE",
"260 0 LINE",
"265 30 LINE",
"189 42 LINE",
"193 69 OFFCURVE",
"195 97 OFFCURVE",
"195 130 CURVE SMOOTH",
"195 315 LINE",
"575 315 LINE",
"575 55 LINE",
"548 49 OFFCURVE",
"523 40 OFFCURVE",
"500 30 CURVE",
"500 0 LINE",
"725 0 LINE",
"730 30 LINE",
"654 42 LINE",
"658 69 OFFCURVE",
"660 97 OFFCURVE",
"660 130 CURVE SMOOTH"
);
}
);
};
components = (
{
name = _part.stem.cap;
transform = "{1, 0, 0, 1, -137, 0}";
},
{
name = _part.stem.cap;
transform = "{1, 0, 0, 1, 265, 0}";
}
);
layerId = "0B1F8F77-7348-4C28-A663-EA76351238C4";
paths = (
{
closed = 1;
nodes = (
"175 322 LINE",
"561 324 LINE",
"552 372 LINE",
"179 372 LINE"
);
}
);
width = 702;
}
);
leftKerningGroup = I;
rightKerningGroup = I;
},
{
glyphname = I;
lastChange = "2017-02-19 18:50:03 +0000";
layers = (
{
layerId = "71FD7A9F-05F5-4D76-8D4F-547475A05E4C";
width = 260;
},
{
anchors = (
{
name = bottom;
position = "{172, 0}";
},
{
name = ogonek;
position = "{279, 10}";
},
{
name = top;
position = "{227, 648}";
},
{
name = topleft;
position = "{108, 700}";
}
);
background = {
paths = (
{
closed = 1;
nodes = (
"487 175 LINE",
"484 172 OFFCURVE",
"474 96 OFFCURVE",
"415 74 CURVE SMOOTH",
"372 58 OFFCURVE",
"315 58 OFFCURVE",
"264 61 CURVE",
"246 150 OFFCURVE",
"257 278 OFFCURVE",
"274 433 CURVE SMOOTH",
"282 505 OFFCURVE",
"292 614 OFFCURVE",
"321 637 CURVE SMOOTH",
"338 650 OFFCURVE",
"355 649 OFFCURVE",
"362 650 CURVE",
"367 700 LINE",
"262 697 OFFCURVE",
"205 697 OFFCURVE",
"107 700 CURVE",
"103 650 LINE",
"114 650 OFFCURVE",
"132 646 OFFCURVE",
"143 634 CURVE SMOOTH",
"167 608 OFFCURVE",
"155 510 OFFCURVE",
"145 418 CURVE SMOOTH",
"132 299 OFFCURVE",
"101 102 OFFCURVE",
"103 88 CURVE SMOOTH",
"107 77 OFFCURVE",
"123 67 OFFCURVE",
"159 51 CURVE",
"40 53 LINE",
"34 0 LINE",
"196 4 OFFCURVE",
"256 4 OFFCURVE",
"511 0 CURVE",
"521 89 OFFCURVE",
"535 159 OFFCURVE",
"536 165 CURVE"
);
}
);
};
layerId = "977FCFA9-45AC-4A33-B2D7-4D17E6BBF8E0";
paths = (
{
closed = 1;
nodes = (
"49 680 LINE",
"40 625 LINE",
"94 614 LINE",
"104 589 OFFCURVE",
"97 514 OFFCURVE",
"86 407 CURVE SMOOTH",
"64 197 OFFCURVE",
"46 114 OFFCURVE",
"49 98 CURVE SMOOTH",
"52 86 OFFCURVE",
"67 71 OFFCURVE",
"95 65 CURVE",
"-13 55 LINE",
"-19 0 LINE",
"260 0 LINE",
"269 54 LINE",
"212 64 LINE",
"179 123 OFFCURVE",
"203 307 OFFCURVE",
"207 353 CURVE SMOOTH",
"221 510 OFFCURVE",
"235 569 OFFCURVE",
"250 590 CURVE SMOOTH",
"262 610 OFFCURVE",
"285 623 OFFCURVE",
"309 625 CURVE",
"314 680 LINE"
);
}
);
width = 289;
},
{
anchors = (
{
name = bottom;
position = "{200, 0}";
},
{
name = ogonek;
position = "{340, 10}";
},
{
name = top;
position = "{200, 702}";
},
{
name = topleft;
position = "{44, 700}";
}
);
background = {
components = (
{
name = _part.stem.cap;
transform = "{1, 0, 0, 1, -194, 0}";
}
);
};
guideLines = (
{
angle = 90;
position = "{18, 101}";
}
);
layerId = "11343128-4963-4E5D-BE9C-B74F53B36FA5";
paths = (
{
closed = 1;
nodes = (
"43 680 LINE",
"38 613 LINE",
"96 603 LINE",
"108 577 OFFCURVE",
"108 524 OFFCURVE",
"108 407 CURVE SMOOTH",
"108 197 OFFCURVE",
"97 124 OFFCURVE",
"102 108 CURVE SMOOTH",
"106 96 OFFCURVE",
"118 81 OFFCURVE",
"147 75 CURVE",
"39 65 LINE",
"35 0 LINE",
"338 1 LINE",
"343 64 LINE",
"283 74 LINE",
"249 132 OFFCURVE",
"253 238 OFFCURVE",
"253 353 CURVE SMOOTH",
"253 500 OFFCURVE",
"256 576 OFFCURVE",
"267 603 CURVE",
"326 615 LINE",
"331 680 LINE"
);
}
);
width = 373;
},
{
anchors = (
{
name = bottom;
position = "{179, 0}";
},
{
name = ogonek;
position = "{319, 10}";
},
{
name = top;
position = "{178, 708}";
},
{
name = topleft;
position = "{23, 700}";
}
);
components = (
{
name = _part.stem.cap;
transform = "{1, 0, 0, 1, -122, 0}";
}
);
guideLines = (
{
angle = 90;
position = "{-3, 101}";
}
);
layerId = "0B1F8F77-7348-4C28-A663-EA76351238C4";
width = 358;
}
);
leftKerningGroup = I;
rightKerningGroup = I;
unicode = 0049;
},
{
glyphname = I.001;
lastChange = "2017-02-19 14:03:58 +0000";
layers = (
{
layerId = "71FD7A9F-05F5-4D76-8D4F-547475A05E4C";
width = 260;
},
{
anchors = (
{
name = bottom;
position = "{172, 0}";
},
{
name = ogonek;
position = "{279, 10}";
},
{
name = top;
position = "{227, 648}";
},
{
name = topleft;
position = "{108, 700}";
}
);
background = {
paths = (
{
closed = 1;
nodes = (
"487 175 LINE",
"484 172 OFFCURVE",
"474 96 OFFCURVE",
"415 74 CURVE SMOOTH",
"372 58 OFFCURVE",
"315 58 OFFCURVE",
"264 61 CURVE",
"246 150 OFFCURVE",
"257 278 OFFCURVE",
"274 433 CURVE SMOOTH",
"282 505 OFFCURVE",
"292 614 OFFCURVE",
"321 637 CURVE SMOOTH",
"338 650 OFFCURVE",
"355 649 OFFCURVE",
"362 650 CURVE",
"367 700 LINE",
"262 697 OFFCURVE",
"205 697 OFFCURVE",
"107 700 CURVE",
"103 650 LINE",
"114 650 OFFCURVE",
"132 646 OFFCURVE",
"143 634 CURVE SMOOTH",
"167 608 OFFCURVE",
"155 510 OFFCURVE",
"145 418 CURVE SMOOTH",
"132 299 OFFCURVE",
"101 102 OFFCURVE",
"103 88 CURVE SMOOTH",
"107 77 OFFCURVE",
"123 67 OFFCURVE",
"159 51 CURVE",
"40 53 LINE",
"34 0 LINE",
"196 4 OFFCURVE",
"256 4 OFFCURVE",
"511 0 CURVE",
"521 89 OFFCURVE",
"535 159 OFFCURVE",
"536 165 CURVE"
);
}
);
};
layerId = "977FCFA9-45AC-4A33-B2D7-4D17E6BBF8E0";
paths = (
{
closed = 1;
nodes = (
"49 680 LINE",
"40 625 LINE",
"94 614 LINE",
"104 589 OFFCURVE",
"97 514 OFFCURVE",
"86 407 CURVE SMOOTH",
"64 197 OFFCURVE",
"46 114 OFFCURVE",
"49 98 CURVE SMOOTH",
"52 86 OFFCURVE",
"67 71 OFFCURVE",
"95 65 CURVE",
"-13 55 LINE",
"-19 0 LINE",
"260 0 LINE",
"269 54 LINE",
"212 64 LINE",
"179 123 OFFCURVE",
"203 307 OFFCURVE",
"207 353 CURVE SMOOTH",
"221 510 OFFCURVE",
"235 569 OFFCURVE",
"250 590 CURVE SMOOTH",
"262 610 OFFCURVE",
"285 623 OFFCURVE",
"309 625 CURVE",
"314 680 LINE"
);
}
);
width = 289;
},
{
anchors = (
{
name = bottom;
position = "{217, 0}";
},
{
name = ogonek;
position = "{357, 10}";
},
{
name = top;
position = "{217, 702}";
},
{
name = topleft;
position = "{61, 700}";
}
);
background = {
components = (
{
name = _part.stem.cap;
transform = "{1, 0, 0, 1, -177, 0}";
}
);
};
guideLines = (
{
angle = 90;
position = "{35, 101}";
}
);
layerId = "11343128-4963-4E5D-BE9C-B74F53B36FA5";
paths = (
{
closed = 1;
nodes = (
"60 680 LINE",
"55 613 LINE",
"113 603 LINE",
"125 577 OFFCURVE",
"125 524 OFFCURVE",
"125 407 CURVE SMOOTH",
"125 197 OFFCURVE",
"114 124 OFFCURVE",
"119 108 CURVE SMOOTH",
"123 96 OFFCURVE",
"135 81 OFFCURVE",
"164 75 CURVE",
"56 65 LINE",
"52 0 LINE",
"355 1 LINE",
"360 64 LINE",
"300 74 LINE",
"266 132 OFFCURVE",
"270 238 OFFCURVE",
"270 353 CURVE SMOOTH",
"270 500 OFFCURVE",
"273 576 OFFCURVE",
"284 603 CURVE",
"343 615 LINE",
"348 680 LINE"
);
}
);
width = 401;
},
{
anchors = (
{
name = bottom;
position = "{179, 0}";
},
{
name = ogonek;
position = "{319, 10}";
},
{
name = top;
position = "{178, 708}";
},
{
name = topleft;
position = "{23, 700}";
}
);
components = (
{
name = _part.stem.cap;
transform = "{1, 0, 0, 1, -122, 0}";
}
);
guideLines = (
{
angle = 90;
position = "{-3, 101}";
}
);
layerId = "0B1F8F77-7348-4C28-A663-EA76351238C4";
width = 353;
}
);
leftKerningGroup = I;
rightKerningGroup = I;
},
{
glyphname = J;
lastChange = "2017-02-22 21:10:33 +0000";
layers = (
{
layerId = "71FD7A9F-05F5-4D76-8D4F-547475A05E4C";
width = 269;
},
{
anchors = (
{
name = bottom;
position = "{128, 0}";
},
{
name = top;
position = "{206, 644}";
}
);
background = {
components = (
{
name = I;
transform = "{1, 0, 0, 1, 25, 0}";
}
);
};
guideLines = (
{
position = "{1333, 737}";
}
);
layerId = "977FCFA9-45AC-4A33-B2D7-4D17E6BBF8E0";
paths = (
{
closed = 1;
nodes = (
"83 681 LINE",
"73 624 LINE",
"127 615 LINE",
"138 590 OFFCURVE",
"129 489 OFFCURVE",
"124 429 CURVE",
"92 30 OFFCURVE",
"72 -37 OFFCURVE",
"37 -97 CURVE",
"-14 -78 LINE",
"-39 -134 LINE",
"31 -174 LINE",
"146 -146 OFFCURVE",
"210 -56 OFFCURVE",
"221 67 CURVE SMOOTH",
"251 384 OFFCURVE",
"267 569 OFFCURVE",
"281 591 CURVE SMOOTH",
"293 611 OFFCURVE",
"316 619 OFFCURVE",
"339 621 CURVE",
"345 680 LINE"
);
}
);
width = 299;
},
{
anchors = (
{
name = bottom;
position = "{142, 0}";
},
{
name = top;
position = "{142, 707}";
}
);
background = {
components = (
{
name = I;
transform = "{1, 0, 0, 1, -45, 0}";
}
);
};
guideLines = (
{
position = "{-196, -204}";
},
{
angle = 86;
position = "{21, 377}";
}
);
layerId = "11343128-4963-4E5D-BE9C-B74F53B36FA5";
paths = (
{
closed = 1;
nodes = (
"17 681 LINE",
"12 613 LINE",
"66 603 LINE",
"79 578 OFFCURVE",
"75 269 OFFCURVE",
"75 209 CURVE",
"75 -39 OFFCURVE",
"50 -115 OFFCURVE",
"10 -163 CURVE",
"47 -206 LINE",
"162 -145 OFFCURVE",
"221 -31 OFFCURVE",
"221 275 CURVE SMOOTH",
"221 441 OFFCURVE",
"221 561 OFFCURVE",
"230 603 CURVE",
"287 613 LINE",
"292 680 LINE"
);
}
);
width = 317;
},
{
anchors = (
{
name = bottom;
position = "{150, 0}";
},
{
name = top;
position = "{145, 708}";
}
);
background = {
components = (
{
name = I;
transform = "{1, 0, 0, 1, -12, 0}";
}
);
};
guideLines = (
{
position = "{-188, -204}";
},
{
angle = 85;
position = "{272, 452}";
}
);
layerId = "0B1F8F77-7348-4C28-A663-EA76351238C4";
paths = (
{
closed = 1;
nodes = (
"28 681 LINE",
"24 636 LINE",
"95 626 LINE",
"108 601 OFFCURVE",
"102 338 OFFCURVE",
"102 186 CURVE SMOOTH",
"102 -62 OFFCURVE",
"65 -113 OFFCURVE",
"25 -158 CURVE",
"49 -187 LINE",
"140 -120 OFFCURVE",
"185 0 OFFCURVE",
"185 275 CURVE SMOOTH",
"185 441 OFFCURVE",
"181 600 OFFCURVE",
"188 623 CURVE",
"256 635 LINE",
"260 680 LINE"
);
}
);
width = 300;
}
);
leftKerningGroup = I;
rightKerningGroup = I;
unicode = 004A;
},
{
glyphname = J.001;
lastChange = "2017-02-19 14:03:58 +0000";
layers = (
{
layerId = "71FD7A9F-05F5-4D76-8D4F-547475A05E4C";
width = 269;
},
{
anchors = (
{
name = bottom;
position = "{128, 0}";
},
{
name = top;
position = "{206, 644}";
}
);
background = {
components = (
{
name = I;
transform = "{1, 0, 0, 1, 25, 0}";
}
);
};
guideLines = (
{
position = "{1333, 737}";
}
);
layerId = "977FCFA9-45AC-4A33-B2D7-4D17E6BBF8E0";
paths = (
{
closed = 1;
nodes = (
"83 681 LINE",
"73 624 LINE",
"127 615 LINE",
"138 590 OFFCURVE",
"129 489 OFFCURVE",
"124 429 CURVE",
"92 30 OFFCURVE",
"72 -37 OFFCURVE",
"37 -97 CURVE",
"-14 -78 LINE",
"-39 -134 LINE",
"31 -174 LINE",
"146 -146 OFFCURVE",
"210 -56 OFFCURVE",
"221 67 CURVE SMOOTH",
"251 384 OFFCURVE",
"267 569 OFFCURVE",
"281 591 CURVE SMOOTH",
"293 611 OFFCURVE",
"316 619 OFFCURVE",
"339 621 CURVE",
"345 680 LINE"
);
}
);
width = 299;
},
{
anchors = (
{
name = bottom;
position = "{166, 0}";
},
{
name = top;
position = "{166, 707}";
}
);
background = {
components = (
{
name = I;
transform = "{1, 0, 0, 1, -21, 0}";
}
);
};
guideLines = (
{
position = "{-172, -204}";
},
{
angle = 86;
position = "{45, 377}";
}
);
layerId = "11343128-4963-4E5D-BE9C-B74F53B36FA5";
paths = (
{
closed = 1;
nodes = (
"41 681 LINE",
"36 613 LINE",
"90 603 LINE",
"103 578 OFFCURVE",
"99 269 OFFCURVE",
"99 209 CURVE",
"99 -39 OFFCURVE",
"74 -115 OFFCURVE",
"34 -163 CURVE",
"71 -206 LINE",
"186 -145 OFFCURVE",
"245 -31 OFFCURVE",
"245 275 CURVE SMOOTH",
"245 441 OFFCURVE",
"245 561 OFFCURVE",
"254 603 CURVE",
"311 613 LINE",
"316 680 LINE"
);
}
);
width = 352;
},
{
anchors = (
{
name = bottom;
position = "{147, 0}";
},
{
name = top;
position = "{142, 708}";
}
);
background = {
components = (
{
name = I;
transform = "{1, 0, 0, 1, -15, 0}";
}
);
};
guideLines = (
{
position = "{-191, -204}";
}
);
layerId = "0B1F8F77-7348-4C28-A663-EA76351238C4";
paths = (
{
closed = 1;
nodes = (
"28 681 LINE",
"24 636 LINE",
"92 626 LINE",
"105 601 OFFCURVE",
"99 246 OFFCURVE",
"99 186 CURVE",
"99 -62 OFFCURVE",
"62 -113 OFFCURVE",
"22 -158 CURVE",
"46 -187 LINE",
"137 -120 OFFCURVE",
"182 0 OFFCURVE",
"182 275 CURVE SMOOTH",
"182 441 OFFCURVE",
"178 582 OFFCURVE",
"185 605 CURVE SMOOTH",
"191 625 OFFCURVE",
"216 635 OFFCURVE",
"253 635 CURVE",
"257 680 LINE"
);
}
);
width = 293;
}
);
leftKerningGroup = I;
rightKerningGroup = I;
},
{
glyphname = K;
lastChange = "2017-02-22 19:57:14 +0000";
layers = (
{
layerId = "71FD7A9F-05F5-4D76-8D4F-547475A05E4C";
width = 614;
},
{
layerId = "977FCFA9-45AC-4A33-B2D7-4D17E6BBF8E0";
paths = (
{
closed = 1;
nodes = (
"418 558 OFFCURVE",
"234 354 OFFCURVE",
"153 266 CURVE",
"194 208 LINE",
"335 359 LINE",
"417 452 OFFCURVE",
"525 557 OFFCURVE",
"552 586 CURVE SMOOTH",
"578 610 OFFCURVE",
"610 625 OFFCURVE",
"637 625 CURVE",
"644 680 LINE",
"413 680 LINE",
"402 625 LINE",
"453 616 LINE"
);
},
{
closed = 1;
nodes = (
"50 680 LINE",
"40 625 LINE",
"95 614 LINE",
"106 589 OFFCURVE",
"98 514 OFFCURVE",
"89 407 CURVE SMOOTH",
"71 197 OFFCURVE",
"49 114 OFFCURVE",
"53 98 CURVE SMOOTH",
"54 86 OFFCURVE",
"69 71 OFFCURVE",
"98 65 CURVE",
"-9 55 LINE",
"-16 0 LINE",
"265 1 LINE",
"274 54 LINE",
"217 64 LINE",
"184 123 OFFCURVE",
"208 307 OFFCURVE",
"212 353 CURVE SMOOTH",
"226 510 OFFCURVE",
"238 569 OFFCURVE",
"254 590 CURVE SMOOTH",
"265 610 OFFCURVE",
"288 623 OFFCURVE",
"311 625 CURVE",
"317 680 LINE"
);
},
{
closed = 1;
nodes = (
"296 352 LINE",
"303 272 OFFCURVE",
"379 52 OFFCURVE",
"405 32 CURVE SMOOTH",
"414 25 OFFCURVE",
"481 -3 OFFCURVE",
"534 -3 CURVE",
"569 5 OFFCURVE",
"606 26 OFFCURVE",
"611 29 CURVE",
"598 82 LINE",
"578 74 OFFCURVE",
"564 73 OFFCURVE",
"553 71 CURVE",
"501 127 OFFCURVE",
"406 326 OFFCURVE",
"383 425 CURVE"
);
}
);
width = 633;
},
{
anchors = (
{
name = bottom;
position = "{391, 0}";
},
{
name = top;
position = "{391, 700}";
}
);
background = {
components = (
{
name = V;
transform = "{-1, 0, 0, -1, 772, 700}";
}
);
};
components = (
{
name = _part.stem.cap;
transform = "{1, 0, 0, 1, -182, 0}";
}
);
guideLines = (
{
position = "{-219, 248}";
},
{
angle = 86;
position = "{270, 399}";
},
{
angle = 86;
position = "{660, 350}";
}
);
layerId = "11343128-4963-4E5D-BE9C-B74F53B36FA5";
paths = (
{
closed = 1;
nodes = (
"444 545 OFFCURVE",
"283 341 OFFCURVE",
"210 253 CURVE",
"253 185 LINE",
"384 349 LINE",
"457 442 OFFCURVE",
"564 572 OFFCURVE",
"590 601 CURVE",
"668 615 LINE",
"673 680 LINE",
"416 680 LINE",
"411 615 LINE",
"474 603 LINE"
);
},
{
closed = 1;
nodes = (
"325 330 LINE",
"381 229 OFFCURVE",
"458 69 OFFCURVE",
"507 0 CURVE",
"709 0 LINE",
"714 66 LINE",
"673 68 OFFCURVE",
"656 84 OFFCURVE",
"614 133 CURVE SMOOTH",
"555 201 OFFCURVE",
"443 371 OFFCURVE",
"411 428 CURVE"
);
}
);
width = 724;
},
{
anchors = (
{
name = bottom;
position = "{349, 0}";
},
{
name = top;
position = "{349, 708}";
}
);
background = {
components = (
{
name = R;
transform = "{1, 0, 0, 1, 45, 0}";
}
);
};
components = (
{
name = _part.stem.cap;
transform = "{1, 0, 0, 1, -122, 0}";
}
);
guideLines = (
{
position = "{184, 680}";
},
{
angle = 86;
position = "{621, 358}";
},
{
angle = 85;
position = "{688, 231}";
}
);
layerId = "0B1F8F77-7348-4C28-A663-EA76351238C4";
paths = (
{
closed = 1;
nodes = (
"456 569 OFFCURVE",
"264 316 OFFCURVE",
"191 228 CURVE",
"203 165 LINE",
"347 349 LINE",
"420 442 OFFCURVE",
"547 598 OFFCURVE",
"571 627 CURVE",
"629 636 LINE",
"632 680 LINE",
"415 680 LINE",
"412 636 LINE",
"486 627 LINE"
);
},
{
closed = 1;
nodes = (
"330 343 LINE",
"391 242 OFFCURVE",
"486 69 OFFCURVE",
"530 0 CURVE",
"662 0 LINE",
"666 44 LINE",
"599 60 LINE",
"546 131 OFFCURVE",
"405 342 OFFCURVE",
"373 399 CURVE"
);
}
);
width = 681;
}
);
leftKerningGroup = I;
leftMetricsKey = I;
rightKerningGroup = X;
unicode = 004B;
},
{
glyphname = K.001;
lastChange = "2017-02-19 14:03:58 +0000";
layers = (
{
layerId = "71FD7A9F-05F5-4D76-8D4F-547475A05E4C";
width = 614;
},
{
layerId = "977FCFA9-45AC-4A33-B2D7-4D17E6BBF8E0";
paths = (
{
closed = 1;
nodes = (
"418 558 OFFCURVE",
"234 354 OFFCURVE",
"153 266 CURVE",
"194 208 LINE",
"335 359 LINE",
"417 452 OFFCURVE",
"525 557 OFFCURVE",
"552 586 CURVE SMOOTH",
"578 610 OFFCURVE",
"610 625 OFFCURVE",
"637 625 CURVE",
"644 680 LINE",
"413 680 LINE",
"402 625 LINE",
"453 616 LINE"
);
},
{
closed = 1;
nodes = (
"50 680 LINE",
"40 625 LINE",
"95 614 LINE",
"106 589 OFFCURVE",
"98 514 OFFCURVE",
"89 407 CURVE SMOOTH",
"71 197 OFFCURVE",
"49 114 OFFCURVE",
"53 98 CURVE SMOOTH",
"54 86 OFFCURVE",
"69 71 OFFCURVE",
"98 65 CURVE",
"-9 55 LINE",
"-16 0 LINE",
"265 1 LINE",
"274 54 LINE",
"217 64 LINE",
"184 123 OFFCURVE",
"208 307 OFFCURVE",
"212 353 CURVE SMOOTH",
"226 510 OFFCURVE",
"238 569 OFFCURVE",
"254 590 CURVE SMOOTH",
"265 610 OFFCURVE",
"288 623 OFFCURVE",
"311 625 CURVE",
"317 680 LINE"
);
},
{
closed = 1;
nodes = (
"296 352 LINE",
"303 272 OFFCURVE",
"379 52 OFFCURVE",
"405 32 CURVE SMOOTH",
"414 25 OFFCURVE",
"481 -3 OFFCURVE",
"534 -3 CURVE",
"569 5 OFFCURVE",
"606 26 OFFCURVE",
"611 29 CURVE",
"598 82 LINE",
"578 74 OFFCURVE",
"564 73 OFFCURVE",
"553 71 CURVE",
"501 127 OFFCURVE",
"406 326 OFFCURVE",
"383 425 CURVE"
);
}
);
width = 633;
},
{
anchors = (
{
name = bottom;
position = "{382, 0}";
},
{
name = top;
position = "{382, 700}";
}
);
background = {
components = (
{
name = V;
transform = "{-1, 0, 0, -1, 763, 700}";
}
);
};
components = (
{
name = _part.stem.cap;
transform = "{1, 0, 0, 1, -191, 0}";
}
);
guideLines = (
{
position = "{-228, 248}";
},
{
angle = 86;
position = "{261, 399}";
},
{
angle = 86;
position = "{651, 350}";
}
);
layerId = "11343128-4963-4E5D-BE9C-B74F53B36FA5";
paths = (
{
closed = 1;
nodes = (
"435 545 OFFCURVE",
"274 341 OFFCURVE",
"201 253 CURVE",
"244 185 LINE",
"375 349 LINE",
"448 442 OFFCURVE",
"555 572 OFFCURVE",
"581 601 CURVE",
"659 615 LINE",
"664 680 LINE",
"407 680 LINE",
"402 615 LINE",
"465 603 LINE"
);
},
{
closed = 1;
nodes = (
"316 330 LINE",
"372 229 OFFCURVE",
"449 69 OFFCURVE",
"498 0 CURVE",
"700 0 LINE",
"705 66 LINE",
"664 68 OFFCURVE",
"647 84 OFFCURVE",
"605 133 CURVE SMOOTH",
"546 201 OFFCURVE",
"434 371 OFFCURVE",
"402 428 CURVE"
);
}
);
width = 713;
},
{
anchors = (
{
name = bottom;
position = "{354, 0}";
},
{
name = top;
position = "{354, 708}";
}
);
background = {
components = (
{
name = V;
transform = "{-1, 0, 0, -1, 735, 700}";
}
);
};
components = (
{
name = _part.stem.cap;
transform = "{1, 0, 0, 1, -117, 0}";
}
);
guideLines = (
{
position = "{189, 680}";
},
{
angle = 86;
position = "{626, 358}";
}
);
layerId = "0B1F8F77-7348-4C28-A663-EA76351238C4";
paths = (
{
closed = 1;
nodes = (
"461 569 OFFCURVE",
"269 316 OFFCURVE",
"196 228 CURVE",
"208 165 LINE",
"352 349 LINE",
"425 442 OFFCURVE",
"552 598 OFFCURVE",
"576 627 CURVE",
"634 636 LINE",
"637 680 LINE",
"420 680 LINE",
"417 636 LINE",
"491 627 LINE"
);
},
{
closed = 1;
nodes = (
"334 343 LINE",
"396 242 OFFCURVE",
"486 69 OFFCURVE",
"535 0 CURVE",
"671 0 LINE",
"674 45 LINE",
"633 47 OFFCURVE",
"611 67 OFFCURVE",
"571 120 CURVE SMOOTH",
"518 191 OFFCURVE",
"411 342 OFFCURVE",
"379 399 CURVE"
);
}
);
width = 684;
}
);
leftKerningGroup = I;
rightKerningGroup = X;
},
{
glyphname = L;
lastChange = "2017-02-19 18:48:35 +0000";
layers = (
{
layerId = "71FD7A9F-05F5-4D76-8D4F-547475A05E4C";
width = 509;
},
{
anchors = (
{
name = bottom;
position = "{219, 0}";
},
{
name = center;
position = "{161, 370}";
},
{
name = top;
position = "{192, 662}";
},
{
name = topright;
position = "{546, 700}";
}
);
background = {
paths = (
{
closed = 1;
nodes = (
"44 700 LINE",
"36 653 LINE",
"86 642 LINE",
"97 602 OFFCURVE",
"90 484 OFFCURVE",
"87 427 CURVE SMOOTH",
"78 249 OFFCURVE",
"53 101 OFFCURVE",
"56 88 CURVE SMOOTH",
"60 74 OFFCURVE",
"98 56 OFFCURVE",
"117 50 CURVE",
"-3 51 LINE",
"-6 0 LINE",
"492 -1 LINE",
"519 163 LINE",
"474 173 LINE",
"470 166 OFFCURVE",
"465 115 OFFCURVE",
"402 94 CURVE SMOOTH",
"363 81 OFFCURVE",
"296 80 OFFCURVE",
"222 81 CURVE",
"192 114 OFFCURVE",
"200 228 OFFCURVE",
"208 331 CURVE",
"330 325 LINE",
"341 279 LINE",
"381 282 LINE",
"386 325 OFFCURVE",
"393 410 OFFCURVE",
"378 410 CURVE SMOOTH",
"370 410 OFFCURVE",
"207 404 OFFCURVE",
"213 404 CURVE",
"214 455 OFFCURVE",
"230 569 OFFCURVE",
"241 613 CURVE",
"356 613 LINE",
"450 610 OFFCURVE",
"479 580 OFFCURVE",
"487 527 CURVE",
"534 537 LINE",
"516 699 LINE"
);
}
);
};
guideLines = (
{
angle = -12;
position = "{439, 184}";
}
);
layerId = "977FCFA9-45AC-4A33-B2D7-4D17E6BBF8E0";
paths = (
{
closed = 1;
nodes = (
"106 0 LINE",
"491 0 LINE",
"502 89 OFFCURVE",
"516 159 OFFCURVE",
"517 165 CURVE",
"455 174 LINE",
"416 97 LINE",
"373 82 OFFCURVE",
"252 78 OFFCURVE",
"215 84 CURVE",
"126 54 LINE"
);
},
{
closed = 1;
nodes = (
"49 680 LINE",
"40 625 LINE",
"94 614 LINE",
"104 589 OFFCURVE",
"98 534 OFFCURVE",
"87 407 CURVE SMOOTH",
"68 197 OFFCURVE",
"47 114 OFFCURVE",
"50 98 CURVE SMOOTH",
"53 86 OFFCURVE",
"68 71 OFFCURVE",
"96 65 CURVE",
"-12 55 LINE",
"-18 0 LINE",
"263 1 LINE",
"272 54 LINE",
"215 64 LINE",
"182 123 OFFCURVE",
"206 307 OFFCURVE",
"210 353 CURVE SMOOTH",
"224 510 OFFCURVE",
"237 569 OFFCURVE",
"252 590 CURVE SMOOTH",
"264 610 OFFCURVE",
"287 623 OFFCURVE",
"311 625 CURVE",
"316 680 LINE"
);
}
);
width = 525;
},
{
anchors = (
{
name = bottom;
position = "{365, 0}";
},
{
name = center;
position = "{251, 350}";
},
{
name = top;
position = "{258, 700}";
},
{
name = topright;
position = "{626, 700}";
}
);
background = {
components = (
{
name = E;
transform = "{1, 0, 0, 1, 83, 0}";
}
);
};
components = (
{
name = _part.stem.cap;
transform = "{1, 0, 0, 1, -182, 0}";
}
);
guideLines = (
{
angle = 86;
position = "{602, 399}";
}
);
layerId = "11343128-4963-4E5D-BE9C-B74F53B36FA5";
paths = (
{
closed = 1;
nodes = (
"175 0 LINE",
"562 0 LINE",
"572 99 OFFCURVE",
"578 138 OFFCURVE",
"583 180 CURVE",
"516 188 LINE",
"482 106 LINE",
"441 91 OFFCURVE",
"323 85 OFFCURVE",
"286 91 CURVE",
"191 54 LINE"
);
}
);
width = 591;
},
{
anchors = (
{
name = bottom;
position = "{293, 0}";
},
{
name = center;
position = "{179, 351}";
},
{
name = top;
position = "{186, 708}";
},
{
name = topright;
position = "{554, 700}";
}
);
background = {
paths = (
{
closed = 1;
nodes = (
"535 151 LINE",
"485 156 LINE",
"469 125 OFFCURVE",
"455 93 OFFCURVE",
"441 59 CURVE",
"213 56 LINE",
"215 74 OFFCURVE",
"216 92 OFFCURVE",
"216 110 CURVE SMOOTH",
"216 629 LINE",
"286 640 LINE",
"281 670 LINE",
"61 670 LINE",
"56 640 LINE",
"79 630 OFFCURVE",
"104 621 OFFCURVE",
"131 615 CURVE",
"131 55 LINE",
"104 49 OFFCURVE",
"79 40 OFFCURVE",
"56 30 CURVE",
"56 0 LINE",
"511 0 LINE",
"521 10 LINE"
);
}
);
};
components = (
{
name = _part.stem.cap;
transform = "{1, 0, 0, 1, -122, 0}";
}
);
layerId = "0B1F8F77-7348-4C28-A663-EA76351238C4";
paths = (
{
closed = 1;
nodes = (
"158 0 LINE",
"523 0 LINE",
"528 64 OFFCURVE",
"538 153 OFFCURVE",
"539 159 CURVE",
"501 166 LINE",
"463 72 LINE",
"422 57 OFFCURVE",
"278 49 OFFCURVE",
"241 54 CURVE",
"186 54 LINE"
);
}
);
width = 549;
}
);
leftKerningGroup = I;
leftMetricsKey = I;
rightKerningGroup = L;
unicode = 004C;
},
{
glyphname = L.001;
lastChange = "2017-02-19 14:03:58 +0000";
layers = (
{
layerId = "71FD7A9F-05F5-4D76-8D4F-547475A05E4C";
width = 509;
},
{
anchors = (
{
name = bottom;
position = "{219, 0}";
},
{
name = center;
position = "{161, 370}";
},
{
name = top;
position = "{192, 662}";
},
{
name = topright;
position = "{546, 700}";
}
);
background = {
paths = (
{
closed = 1;
nodes = (
"44 700 LINE",
"36 653 LINE",
"86 642 LINE",
"97 602 OFFCURVE",
"90 484 OFFCURVE",
"87 427 CURVE SMOOTH",
"78 249 OFFCURVE",
"53 101 OFFCURVE",
"56 88 CURVE SMOOTH",
"60 74 OFFCURVE",
"98 56 OFFCURVE",
"117 50 CURVE",
"-3 51 LINE",
"-6 0 LINE",
"492 -1 LINE",
"519 163 LINE",
"474 173 LINE",
"470 166 OFFCURVE",
"465 115 OFFCURVE",
"402 94 CURVE SMOOTH",
"363 81 OFFCURVE",
"296 80 OFFCURVE",
"222 81 CURVE",
"192 114 OFFCURVE",
"200 228 OFFCURVE",
"208 331 CURVE",
"330 325 LINE",
"341 279 LINE",
"381 282 LINE",
"386 325 OFFCURVE",
"393 410 OFFCURVE",
"378 410 CURVE SMOOTH",
"370 410 OFFCURVE",
"207 404 OFFCURVE",
"213 404 CURVE",
"214 455 OFFCURVE",
"230 569 OFFCURVE",
"241 613 CURVE",
"356 613 LINE",
"450 610 OFFCURVE",
"479 580 OFFCURVE",
"487 527 CURVE",
"534 537 LINE",
"516 699 LINE"
);
}
);
};
guideLines = (
{
angle = -12;
position = "{439, 184}";
}
);
layerId = "977FCFA9-45AC-4A33-B2D7-4D17E6BBF8E0";
paths = (
{
closed = 1;
nodes = (
"106 0 LINE",
"491 0 LINE",
"502 89 OFFCURVE",
"516 159 OFFCURVE",
"517 165 CURVE",
"455 174 LINE",
"416 97 LINE",
"373 82 OFFCURVE",
"252 78 OFFCURVE",
"215 84 CURVE",
"126 54 LINE"
);
},
{
closed = 1;
nodes = (
"49 680 LINE",
"40 625 LINE",
"94 614 LINE",
"104 589 OFFCURVE",
"98 534 OFFCURVE",
"87 407 CURVE SMOOTH",
"68 197 OFFCURVE",
"47 114 OFFCURVE",
"50 98 CURVE SMOOTH",
"53 86 OFFCURVE",
"68 71 OFFCURVE",
"96 65 CURVE",
"-12 55 LINE",
"-18 0 LINE",
"263 1 LINE",
"272 54 LINE",
"215 64 LINE",
"182 123 OFFCURVE",
"206 307 OFFCURVE",
"210 353 CURVE SMOOTH",
"224 510 OFFCURVE",
"237 569 OFFCURVE",
"252 590 CURVE SMOOTH",
"264 610 OFFCURVE",
"287 623 OFFCURVE",
"311 625 CURVE",
"316 680 LINE"
);
}
);
width = 525;
},
{
anchors = (
{
name = bottom;
position = "{320, 0}";
},
{
name = center;
position = "{206, 350}";
},
{
name = top;
position = "{213, 700}";
},
{
name = topright;
position = "{581, 700}";
}
);
background = {
components = (
{
name = E;
transform = "{1, 0, 0, 1, 38, 0}";
}
);
};
components = (
{
name = _part.stem.cap;
transform = "{1, 0, 0, 1, -227, 0}";
}
);
guideLines = (
{
angle = 86;
position = "{557, 399}";
}
);
layerId = "11343128-4963-4E5D-BE9C-B74F53B36FA5";
paths = (
{
closed = 1;
nodes = (
"130 0 LINE",
"517 0 LINE",
"527 99 OFFCURVE",
"533 138 OFFCURVE",
"538 180 CURVE",
"471 188 LINE",
"437 106 LINE",
"396 91 OFFCURVE",
"278 85 OFFCURVE",
"241 91 CURVE",
"146 54 LINE"
);
}
);
width = 546;
},
{
anchors = (
{
name = bottom;
position = "{306, 0}";
},
{
name = center;
position = "{192, 351}";
},
{
name = top;
position = "{199, 708}";
},
{
name = topright;
position = "{567, 700}";
}
);
background = {
paths = (
{
closed = 1;
nodes = (
"548 151 LINE",
"498 156 LINE",
"482 125 OFFCURVE",
"468 93 OFFCURVE",
"454 59 CURVE",
"226 56 LINE",
"228 74 OFFCURVE",
"229 92 OFFCURVE",
"229 110 CURVE SMOOTH",
"229 629 LINE",
"299 640 LINE",
"294 670 LINE",
"74 670 LINE",
"69 640 LINE",
"92 630 OFFCURVE",
"117 621 OFFCURVE",
"144 615 CURVE",
"144 55 LINE",
"117 49 OFFCURVE",
"92 40 OFFCURVE",
"69 30 CURVE",
"69 0 LINE",
"524 0 LINE",
"534 10 LINE"
);
}
);
};
components = (
{
name = _part.stem.cap;
transform = "{1, 0, 0, 1, -109, 0}";
}
);
layerId = "0B1F8F77-7348-4C28-A663-EA76351238C4";
paths = (
{
closed = 1;
nodes = (
"171 0 LINE",
"535 0 LINE",
"540 64 OFFCURVE",
"552 153 OFFCURVE",
"553 159 CURVE",
"514 166 LINE",
"476 72 LINE",
"435 57 OFFCURVE",
"291 49 OFFCURVE",
"254 54 CURVE",
"199 54 LINE"
);
}
);
width = 555;
}
);
leftKerningGroup = I;
rightKerningGroup = L;
},
{
glyphname = M;
lastChange = "2017-02-19 18:55:19 +0000";
layers = (
{
layerId = "71FD7A9F-05F5-4D76-8D4F-547475A05E4C";
width = 854;
},
{
layerId = "977FCFA9-45AC-4A33-B2D7-4D17E6BBF8E0";
paths = (
{
closed = 1;
nodes = (
"217 459 LINE",
"256 308 OFFCURVE",
"343 3 OFFCURVE",
"346 -3 CURVE",
"434 161 LINE",
"428 180 OFFCURVE",
"342 500 OFFCURVE",
"300 680 CURVE",
"295 675 LINE",
"298 680 LINE",
"157 615 LINE"
);
},
{
closed = 1;
nodes = (
"506 147 OFFCURVE",
"605 349 OFFCURVE",
"644 443 CURVE",
"643 178 OFFCURVE",
"649 119 OFFCURVE",
"649 104 CURVE SMOOTH",
"648 88 OFFCURVE",
"664 75 OFFCURVE",
"692 65 CURVE",
"585 55 LINE",
"579 0 LINE",
"843 0 LINE",
"854 55 LINE",
"799 65 LINE",
"776 150 OFFCURVE",
"779 433 OFFCURVE",
"777 564 CURVE SMOOTH",
"777 608 OFFCURVE",
"810 625 OFFCURVE",
"837 625 CURVE",
"844 680 LINE",
"645 680 LINE",
"556 434 OFFCURVE",
"478 280 OFFCURVE",
"418 146 CURVE",
"395 87 OFFCURVE",
"372 56 OFFCURVE",
"346 -3 CURVE",
"444 4 LINE"
);
},
{
closed = 1;
nodes = (
"153 98 OFFCURVE",
"208 362 OFFCURVE",
"229 521 CURVE",
"245 576 OFFCURVE",
"276 660 OFFCURVE",
"300 680 CURVE",
"110 680 LINE",
"99 626 LINE",
"155 615 LINE",
"115 360 OFFCURVE",
"81 173 OFFCURVE",
"68 130 CURVE SMOOTH",
"49 70 OFFCURVE",
"9 56 OFFCURVE",
"-17 56 CURVE",
"-25 0 LINE",
"213 0 LINE",
"224 55 LINE",
"165 64 LINE"
);
}
);
width = 873;
},
{
anchors = (
{
name = bottom;
position = "{480, 0}";
},
{
name = top;
position = "{480, 700}";
}
);
background = {
paths = (
{
closed = 1;
nodes = (
"500 43 OFFCURVE",
"515 90 OFFCURVE",
"530 137 CURVE SMOOTH",
"560 230 OFFCURVE",
"588 314 OFFCURVE",
"614 382 CURVE SMOOTH",
"627 416 OFFCURVE",
"636 445 OFFCURVE",
"644 470 CURVE",
"654 470 LINE",
"658 412 OFFCURVE",
"662 358 OFFCURVE",
"664 308 CURVE SMOOTH",
"665 287 OFFCURVE",
"668 266 OFFCURVE",
"669 246 CURVE SMOOTH",
"670 225 OFFCURVE",
"671 206 OFFCURVE",
"672 188 CURVE SMOOTH",
"674 153 OFFCURVE",
"675 125 OFFCURVE",
"675 115 CURVE SMOOTH",
"675 83 OFFCURVE",
"658 68 OFFCURVE",
"617 64 CURVE",
"609 -8 LINE",
"610 -7 OFFCURVE",
"617 -7 OFFCURVE",
"631 -6 CURVE SMOOTH",
"644 -5 OFFCURVE",
"659 -4 OFFCURVE",
"676 -3 CURVE SMOOTH",
"710 -1 OFFCURVE",
"746 0 OFFCURVE",
"763 0 CURVE SMOOTH",
"784 0 OFFCURVE",
"811 0 OFFCURVE",
"832 -2 CURVE SMOOTH",
"845 -3 OFFCURVE",
"857 -3 OFFCURVE",
"870 -3 CURVE",
"880 66 LINE",
"875 72 LINE",
"868 71 OFFCURVE",
"863 70 OFFCURVE",
"855 70 CURVE SMOOTH",
"852 70 OFFCURVE",
"848 70 OFFCURVE",
"845 70 CURVE SMOOTH",
"829 70 OFFCURVE",
"817 76 OFFCURVE",
"810 90 CURVE SMOOTH",
"803 103 OFFCURVE",
"797 128 OFFCURVE",
"794 166 CURVE SMOOTH",
"789 228 OFFCURVE",
"783 315 OFFCURVE",
"778 392 CURVE SMOOTH",
"773 468 OFFCURVE",
"769 534 OFFCURVE",
"769 558 CURVE SMOOTH",
"769 597 OFFCURVE",
"786 610 OFFCURVE",
"846 614 CURVE",
"852 680 LINE",
"848 684 LINE",
"823 681 OFFCURVE",
"799 680 OFFCURVE",
"775 679 CURVE SMOOTH",
"750 678 OFFCURVE",
"732 676 OFFCURVE",
"708 676 CURVE SMOOTH",
"683 676 OFFCURVE",
"660 678 OFFCURVE",
"639 679 CURVE",
"629 679 OFFCURVE",
"619 679 OFFCURVE",
"612 679 CURVE",
"594 621 OFFCURVE",
"576 566 OFFCURVE",
"560 514 CURVE SMOOTH",
"544 462 OFFCURVE",
"528 417 OFFCURVE",
"516 377 CURVE SMOOTH",
"502 331 OFFCURVE",
"487 287 OFFCURVE",
"474 248 CURVE",
"465 248 LINE",
"451 287 OFFCURVE",
"438 331 OFFCURVE",
"424 377 CURVE SMOOTH",
"412 417 OFFCURVE",
"399 463 OFFCURVE",
"383 515 CURVE SMOOTH",
"367 567 OFFCURVE",
"350 622 OFFCURVE",
"334 682 CURVE",
"321 681 OFFCURVE",
"307 681 OFFCURVE",
"293 680 CURVE SMOOTH",
"269 678 OFFCURVE",
"240 678 OFFCURVE",
"219 678 CURVE SMOOTH",
"210 678 OFFCURVE",
"197 678 OFFCURVE",
"182 679 CURVE",
"152 679 OFFCURVE",
"122 680 OFFCURVE",
"85 683 CURVE",
"76 620 LINE",
"81 613 LINE",
"114 610 OFFCURVE",
"133 607 OFFCURVE",
"145 599 CURVE",
"157 591 OFFCURVE",
"160 578 OFFCURVE",
"160 560 CURVE SMOOTH",
"160 555 OFFCURVE",
"159 543 OFFCURVE",
"158 522 CURVE",
"154 480 OFFCURVE",
"149 420 OFFCURVE",
"141 354 CURVE SMOOTH",
"133 286 OFFCURVE",
"128 226 OFFCURVE",
"123 182 CURVE",
"120 160 OFFCURVE",
"119 145 OFFCURVE",
"118 139 CURVE",
"114 85 OFFCURVE",
"96 68 OFFCURVE",
"55 63 CURVE",
"47 -8 LINE",
"59 -7 OFFCURVE",
"72 -5 OFFCURVE",
"84 -4 CURVE",
"105 -1 OFFCURVE",
"133 0 OFFCURVE",
"154 0 CURVE SMOOTH",
"171 0 OFFCURVE",
"201 0 OFFCURVE",
"230 -2 CURVE SMOOTH",
"246 -3 OFFCURVE",
"263 -3 OFFCURVE",
"279 -4 CURVE",
"291 65 LINE",
"285 71 LINE",
"273 70 OFFCURVE",
"267 69 OFFCURVE",
"259 69 CURVE SMOOTH",
"255 69 OFFCURVE",
"252 69 OFFCURVE",
"250 69 CURVE SMOOTH",
"228 69 OFFCURVE",
"216 81 OFFCURVE",
"216 104 CURVE SMOOTH",
"216 107 OFFCURVE",
"216 114 OFFCURVE",
"217 127 CURVE SMOOTH",
"218 139 OFFCURVE",
"219 153 OFFCURVE",
"220 171 CURVE SMOOTH",
"221 189 OFFCURVE",
"222 208 OFFCURVE",
"224 230 CURVE SMOOTH",
"226 251 OFFCURVE",
"226 274 OFFCURVE",
"227 296 CURVE SMOOTH",
"229 347 OFFCURVE",
"233 405 OFFCURVE",
"237 470 CURVE",
"246 470 LINE",
"264 420 OFFCURVE",
"289 351 OFFCURVE",
"316 267 CURVE SMOOTH",
"343 183 OFFCURVE",
"374 86 OFFCURVE",
"407 -16 CURVE",
"484 -7 LINE"
);
}
);
};
guideLines = (
{
position = "{701, 454}";
},
{
angle = 86;
position = "{-4, 200}";
}
);
layerId = "11343128-4963-4E5D-BE9C-B74F53B36FA5";
paths = (
{
closed = 1;
nodes = (
"239 467 LINE",
"291 316 OFFCURVE",
"412 -1 OFFCURVE",
"415 -7 CURVE",
"498 161 LINE",
"491 180 OFFCURVE",
"370 500 OFFCURVE",
"313 680 CURVE",
"290 680 LINE",
"301 680 LINE",
"191 588 LINE"
);
},
{
closed = 1;
nodes = (
"542 146 OFFCURVE",
"613 347 OFFCURVE",
"644 441 CURVE",
"663 179 OFFCURVE",
"668 156 OFFCURVE",
"671 141 CURVE SMOOTH",
"679 102 OFFCURVE",
"693 85 OFFCURVE",
"722 76 CURVE",
"616 66 LINE",
"611 0 LINE",
"894 0 LINE",
"898 66 LINE",
"837 76 LINE",
"807 161 OFFCURVE",
"782 472 OFFCURVE",
"769 603 CURVE",
"847 615 LINE",
"852 680 LINE",
"631 680 LINE",
"563 434 OFFCURVE",
"486 280 OFFCURVE",
"443 146 CURVE",
"425 87 OFFCURVE",
"436 52 OFFCURVE",
"415 -7 CURVE",
"497 3 LINE"
);
},
{
closed = 1;
nodes = (
"211 109 OFFCURVE",
"241 362 OFFCURVE",
"255 521 CURVE",
"266 565 OFFCURVE",
"280 660 OFFCURVE",
"303 680 CURVE",
"95 680 LINE",
"90 615 LINE",
"169 604 LINE",
"142 349 OFFCURVE",
"114 120 OFFCURVE",
"106 77 CURVE",
"34 65 LINE",
"30 0 LINE",
"299 0 LINE",
"304 66 LINE",
"226 75 LINE"
);
}
);
width = 928;
},
{
anchors = (
{
name = bottom;
position = "{474, 0}";
},
{
name = top;
position = "{474, 708}";
}
);
background = {
paths = (
{
closed = 1;
nodes = (
"936 30 LINE",
"862 41 LINE",
"755 626 LINE",
"828 640 LINE",
"823 670 LINE",
"637 670 LINE",
"467 105 LINE",
"463 65 LINE",
"461 65 LINE",
"457 105 LINE",
"289 670 LINE",
"115 670 LINE",
"110 640 LINE",
"130 631 OFFCURVE",
"152 623 OFFCURVE",
"175 617 CURVE",
"65 54 LINE",
"39 48 OFFCURVE",
"14 40 OFFCURVE",
"-8 30 CURVE",
"-8 0 LINE",
"197 0 LINE",
"202 30 LINE",
"130 43 LINE",
"226 575 LINE",
"229 615 LINE",
"231 615 LINE",
"236 575 LINE",
"403 10 LINE",
"504 10 LINE",
"678 575 LINE",
"683 615 LINE",
"685 615 LINE",
"688 575 LINE",
"770 55 LINE",
"744 49 OFFCURVE",
"719 39 OFFCURVE",
"696 29 CURVE",
"696 0 LINE",
"931 0 LINE"
);
}
);
};
guideLines = (
{
angle = 86;
position = "{949, 115}";
}
);
layerId = "0B1F8F77-7348-4C28-A663-EA76351238C4";
paths = (
{
closed = 1;
nodes = (
"257 468 LINE",
"309 317 OFFCURVE",
"415 -1 OFFCURVE",
"418 -7 CURVE",
"472 95 LINE",
"465 114 OFFCURVE",
"328 500 OFFCURVE",
"271 680 CURVE",
"266 675 LINE",
"269 680 LINE",
"213 613 LINE"
);
},
{
closed = 1;
nodes = (
"526 154 OFFCURVE",
"628 456 OFFCURVE",
"654 538 CURVE",
"661 455 OFFCURVE",
"696 144 OFFCURVE",
"701 104 CURVE SMOOTH",
"703 88 OFFCURVE",
"719 66 OFFCURVE",
"748 56 CURVE",
"644 46 LINE",
"640 0 LINE",
"856 0 LINE",
"860 46 LINE",
"801 56 LINE",
"773 141 OFFCURVE",
"769 232 OFFCURVE",
"724 622 CURVE",
"798 635 LINE",
"801 680 LINE",
"638 680 LINE",
"565 434 OFFCURVE",
"509 279 OFFCURVE",
"461 146 CURVE",
"443 87 OFFCURVE",
"439 52 OFFCURVE",
"418 -7 CURVE",
"471 2 LINE"
);
},
{
closed = 1;
nodes = (
"178 89 OFFCURVE",
"216 384 OFFCURVE",
"231 543 CURVE",
"242 598 OFFCURVE",
"248 660 OFFCURVE",
"271 680 CURVE",
"113 680 LINE",
"110 635 LINE",
"179 624 LINE",
"155 369 OFFCURVE",
"121 107 OFFCURVE",
"114 64 CURVE",
"39 45 LINE",
"35 0 LINE",
"252 0 LINE",
"256 46 LINE",
"192 55 LINE"
);
}
);
width = 905;
}
);
leftKerningGroup = A;
rightKerningGroup = A;
unicode = 004D;
},
{
glyphname = M.001;
lastChange = "2017-02-19 14:03:58 +0000";
layers = (
{
layerId = "71FD7A9F-05F5-4D76-8D4F-547475A05E4C";
width = 854;
},
{
layerId = "977FCFA9-45AC-4A33-B2D7-4D17E6BBF8E0";
paths = (
{
closed = 1;
nodes = (
"217 459 LINE",
"256 308 OFFCURVE",
"343 3 OFFCURVE",
"346 -3 CURVE",
"434 161 LINE",
"428 180 OFFCURVE",
"342 500 OFFCURVE",
"300 680 CURVE",
"295 675 LINE",
"298 680 LINE",
"157 615 LINE"
);
},
{
closed = 1;
nodes = (
"506 147 OFFCURVE",
"605 349 OFFCURVE",
"644 443 CURVE",
"643 178 OFFCURVE",
"649 119 OFFCURVE",
"649 104 CURVE SMOOTH",
"648 88 OFFCURVE",
"664 75 OFFCURVE",
"692 65 CURVE",
"585 55 LINE",
"579 0 LINE",
"843 0 LINE",
"854 55 LINE",
"799 65 LINE",
"776 150 OFFCURVE",
"779 433 OFFCURVE",
"777 564 CURVE SMOOTH",
"777 608 OFFCURVE",
"810 625 OFFCURVE",
"837 625 CURVE",
"844 680 LINE",
"645 680 LINE",
"556 434 OFFCURVE",
"478 280 OFFCURVE",
"418 146 CURVE",
"395 87 OFFCURVE",
"372 56 OFFCURVE",
"346 -3 CURVE",
"444 4 LINE"
);
},
{
closed = 1;
nodes = (
"153 98 OFFCURVE",
"208 362 OFFCURVE",
"229 521 CURVE",
"245 576 OFFCURVE",
"276 660 OFFCURVE",
"300 680 CURVE",
"110 680 LINE",
"99 626 LINE",
"155 615 LINE",
"115 360 OFFCURVE",
"81 173 OFFCURVE",
"68 130 CURVE SMOOTH",
"49 70 OFFCURVE",
"9 56 OFFCURVE",
"-17 56 CURVE",
"-25 0 LINE",
"213 0 LINE",
"224 55 LINE",
"165 64 LINE"
);
}
);
width = 873;
},
{
anchors = (
{
name = bottom;
position = "{474, 0}";
},
{
name = top;
position = "{474, 700}";
}
);
background = {
components = (
{
name = V;
transform = "{1, 0, 0, 1, 16, 0}";
},
{
name = I;
transform = "{1, 0, 0, 1, 718, 0}";
}
);
};
guideLines = (
{
position = "{695, 454}";
},
{
angle = 86;
position = "{935, 151}";
}
);
layerId = "11343128-4963-4E5D-BE9C-B74F53B36FA5";
paths = (
{
closed = 1;
nodes = (
"232 468 LINE",
"284 317 OFFCURVE",
"406 1 OFFCURVE",
"409 -5 CURVE",
"498 161 LINE",
"491 180 OFFCURVE",
"370 500 OFFCURVE",
"313 680 CURVE",
"304 680 LINE",
"295 680 LINE",
"166 604 LINE"
);
},
{
closed = 1;
nodes = (
"556 148 OFFCURVE",
"630 352 OFFCURVE",
"661 446 CURVE",
"693 181 OFFCURVE",
"702 156 OFFCURVE",
"705 141 CURVE SMOOTH",
"713 102 OFFCURVE",
"727 85 OFFCURVE",
"756 76 CURVE",
"650 66 LINE",
"645 0 LINE",
"928 0 LINE",
"932 66 LINE",
"871 76 LINE",
"841 161 OFFCURVE",
"796 469 OFFCURVE",
"784 600 CURVE",
"861 615 LINE",
"866 680 LINE",
"635 680 LINE",
"567 434 OFFCURVE",
"500 280 OFFCURVE",
"457 146 CURVE",
"439 87 OFFCURVE",
"430 54 OFFCURVE",
"409 -5 CURVE",
"511 5 LINE"
);
},
{
closed = 1;
nodes = (
"185 109 OFFCURVE",
"235 362 OFFCURVE",
"249 521 CURVE",
"260 565 OFFCURVE",
"274 660 OFFCURVE",
"297 680 CURVE",
"105 680 LINE",
"100 615 LINE",
"164 604 LINE",
"137 349 OFFCURVE",
"88 120 OFFCURVE",
"80 77 CURVE",
"8 65 LINE",
"4 0 LINE",
"273 0 LINE",
"278 66 LINE",
"200 75 LINE"
);
}
);
width = 950;
},
{
anchors = (
{
name = bottom;
position = "{477, 0}";
},
{
name = top;
position = "{477, 708}";
}
);
background = {
paths = (
{
closed = 1;
nodes = (
"939 30 LINE",
"865 41 LINE",
"758 626 LINE",
"831 640 LINE",
"826 670 LINE",
"640 670 LINE",
"470 105 LINE",
"466 65 LINE",
"464 65 LINE",
"460 105 LINE",
"292 670 LINE",
"118 670 LINE",
"113 640 LINE",
"133 631 OFFCURVE",
"155 623 OFFCURVE",
"178 617 CURVE",
"68 54 LINE",
"42 48 OFFCURVE",
"17 40 OFFCURVE",
"-5 30 CURVE",
"-5 0 LINE",
"200 0 LINE",
"205 30 LINE",
"133 43 LINE",
"229 575 LINE",
"232 615 LINE",
"234 615 LINE",
"239 575 LINE",
"406 10 LINE",
"507 10 LINE",
"681 575 LINE",
"686 615 LINE",
"688 615 LINE",
"691 575 LINE",
"773 55 LINE",
"747 49 OFFCURVE",
"722 39 OFFCURVE",
"699 29 CURVE",
"699 0 LINE",
"934 0 LINE"
);
}
);
};
guideLines = (
{
position = "{695, 530}";
}
);
layerId = "0B1F8F77-7348-4C28-A663-EA76351238C4";
paths = (
{
closed = 1;
nodes = (
"260 468 LINE",
"312 317 OFFCURVE",
"418 0 OFFCURVE",
"421 -6 CURVE",
"475 95 LINE",
"468 114 OFFCURVE",
"331 500 OFFCURVE",
"274 680 CURVE",
"269 675 LINE",
"272 680 LINE",
"216 613 LINE"
);
},
{
closed = 1;
nodes = (
"544 153 OFFCURVE",
"646 456 OFFCURVE",
"672 538 CURVE",
"679 455 OFFCURVE",
"734 144 OFFCURVE",
"739 104 CURVE SMOOTH",
"741 88 OFFCURVE",
"757 66 OFFCURVE",
"786 56 CURVE",
"680 46 LINE",
"678 0 LINE",
"894 0 LINE",
"898 46 LINE",
"839 56 LINE",
"808 141 OFFCURVE",
"763 448 OFFCURVE",
"748 579 CURVE SMOOTH",
"743 623 OFFCURVE",
"765 635 OFFCURVE",
"818 635 CURVE",
"821 680 LINE",
"656 680 LINE",
"583 434 OFFCURVE",
"527 279 OFFCURVE",
"479 146 CURVE",
"461 87 OFFCURVE",
"442 53 OFFCURVE",
"421 -6 CURVE",
"489 1 LINE"
);
},
{
closed = 1;
nodes = (
"161 89 OFFCURVE",
"208 384 OFFCURVE",
"234 543 CURVE",
"245 598 OFFCURVE",
"251 660 OFFCURVE",
"274 680 CURVE",
"118 680 LINE",
"113 635 LINE",
"182 624 LINE",
"147 369 OFFCURVE",
"112 154 OFFCURVE",
"105 111 CURVE SMOOTH",
"96 56 OFFCURVE",
"56 47 OFFCURVE",
"22 47 CURVE",
"18 0 LINE",
"235 0 LINE",
"239 46 LINE",
"175 55 LINE"
);
}
);
width = 916;
}
);
leftKerningGroup = A;
rightKerningGroup = A;
},
{
glyphname = N;
lastChange = "2017-02-22 19:59:07 +0000";
layers = (
{
layerId = "71FD7A9F-05F5-4D76-8D4F-547475A05E4C";
width = 664;
},
{
anchors = (
{
name = bottom;
position = "{333, 0}";
},
{
name = top;
position = "{378, 661}";
}
);
layerId = "977FCFA9-45AC-4A33-B2D7-4D17E6BBF8E0";
paths = (
{
closed = 1;
nodes = (
"133 544 LINE",
"147 530 OFFCURVE",
"157 480 OFFCURVE",
"180 457 CURVE SMOOTH",
"214 426 OFFCURVE",
"247 372 OFFCURVE",
"265 339 CURVE SMOOTH",
"350 190 OFFCURVE",
"467 -7 OFFCURVE",
"469 -11 CURVE",
"567 115 LINE",
"549 139 OFFCURVE",
"540 207 OFFCURVE",
"503 239 CURVE SMOOTH",
"473 268 OFFCURVE",
"442 307 OFFCURVE",
"422 339 CURVE SMOOTH",
"346 461 OFFCURVE",
"282 562 OFFCURVE",
"231 680 CURVE",
"226 675 LINE",
"229 680 LINE",
"122 572 LINE"
);
},
{
closed = 1;
nodes = (
"174 91 OFFCURVE",
"172 160 OFFCURVE",
"180 236 CURVE SMOOTH",
"194 371 OFFCURVE",
"202 521 OFFCURVE",
"231 680 CURVE",
"50 680 LINE",
"40 623 LINE",
"97 613 LINE",
"116 587 OFFCURVE",
"108 479 OFFCURVE",
"94 325 CURVE SMOOTH",
"85 226 OFFCURVE",
"74 172 OFFCURVE",
"64 129 CURVE SMOOTH",
"51 70 OFFCURVE",
"11 55 OFFCURVE",
"-15 55 CURVE",
"-22 0 LINE",
"232 0 LINE",
"242 55 LINE",
"183 66 LINE"
);
},
{
closed = 1;
nodes = (
"513 590 OFFCURVE",
"507 474 OFFCURVE",
"502 424 CURVE SMOOTH",
"469 73 OFFCURVE",
"473 97 OFFCURVE",
"469 -11 CURVE",
"563 -3 LINE",
"584 283 OFFCURVE",
"605 484 OFFCURVE",
"620 546 CURVE SMOOTH",
"632 599 OFFCURVE",
"665 625 OFFCURVE",
"703 625 CURVE",
"710 680 LINE",
"449 680 LINE",
"438 625 LINE",
"500 616 LINE"
);
}
);
width = 664;
},
{
anchors = (
{
name = bottom;
position = "{369, 0}";
},
{
name = top;
position = "{369, 702}";
}
);
background = {
components = (
{
name = I;
transform = "{-1, 0, 0, -1, 345, 700}";
}
);
paths = (
{
closed = 1;
nodes = (
"523 603 OFFCURVE",
"523 514 OFFCURVE",
"523 464 CURVE SMOOTH",
"523 317 OFFCURVE",
"527 159 OFFCURVE",
"513 0 CURVE",
"694 0 LINE",
"699 55 LINE",
"647 65 LINE",
"600 143 OFFCURVE",
"623 528 OFFCURVE",
"630 571 CURVE SMOOTH",
"640 630 OFFCURVE",
"678 642 OFFCURVE",
"704 642 CURVE",
"705 700 LINE",
"451 700 LINE",
"446 642 LINE",
"507 633 LINE"
);
}
);
};
guideLines = (
{
angle = 86;
position = "{705, 230}";
}
);
layerId = "11343128-4963-4E5D-BE9C-B74F53B36FA5";
paths = (
{
closed = 1;
nodes = (
"144 544 LINE",
"159 530 OFFCURVE",
"174 468 OFFCURVE",
"200 445 CURVE SMOOTH",
"236 414 OFFCURVE",
"268 363 OFFCURVE",
"297 330 CURVE SMOOTH",
"429 181 OFFCURVE",
"561 -7 OFFCURVE",
"564 -11 CURVE",
"648 115 LINE",
"629 139 OFFCURVE",
"610 191 OFFCURVE",
"572 223 CURVE SMOOTH",
"538 252 OFFCURVE",
"506 304 OFFCURVE",
"483 333 CURVE SMOOTH",
"395 444 OFFCURVE",
"297 562 OFFCURVE",
"235 680 CURVE",
"227 675 LINE",
"232 680 LINE",
"131 572 LINE"
);
},
{
closed = 1;
nodes = (
"226 102 OFFCURVE",
"220 171 OFFCURVE",
"220 236 CURVE SMOOTH",
"220 363 OFFCURVE",
"219 521 OFFCURVE",
"233 680 CURVE",
"49 680 LINE",
"44 615 LINE",
"102 605 LINE",
"123 579 OFFCURVE",
"124 502 OFFCURVE",
"124 340 CURVE SMOOTH",
"124 268 OFFCURVE",
"120 122 OFFCURVE",
"114 79 CURVE",
"40 65 LINE",
"35 0 LINE",
"304 0 LINE",
"309 66 LINE",
"238 77 LINE"
);
},
{
closed = 1;
nodes = (
"550 580 OFFCURVE",
"555 474 OFFCURVE",
"555 424 CURVE SMOOTH",
"555 73 OFFCURVE",
"558 97 OFFCURVE",
"564 -11 CURVE",
"654 3 LINE",
"650 289 OFFCURVE",
"653 541 OFFCURVE",
"660 603 CURVE",
"738 615 LINE",
"743 680 LINE",
"466 680 LINE",
"461 615 LINE",
"536 606 LINE"
);
}
);
width = 763;
},
{
anchors = (
{
name = bottom;
position = "{363, 0}";
},
{
name = top;
position = "{363, 708}";
}
);
background = {
components = (
{
name = I;
transform = "{-1, 0, 0, -1, 339, 700}";
}
);
paths = (
{
closed = 1;
nodes = (
"517 603 OFFCURVE",
"517 514 OFFCURVE",
"517 464 CURVE SMOOTH",
"517 317 OFFCURVE",
"521 159 OFFCURVE",
"507 0 CURVE",
"688 0 LINE",
"693 55 LINE",
"641 65 LINE",
"594 143 OFFCURVE",
"617 528 OFFCURVE",
"624 571 CURVE SMOOTH",
"634 630 OFFCURVE",
"672 642 OFFCURVE",
"698 642 CURVE",
"699 700 LINE",
"445 700 LINE",
"440 642 LINE",
"501 633 LINE"
);
}
);
};
guideLines = (
{
angle = 85;
position = "{282, 152}";
},
{
angle = 85;
position = "{693, 158}";
}
);
layerId = "0B1F8F77-7348-4C28-A663-EA76351238C4";
paths = (
{
closed = 1;
nodes = (
"167 550 LINE",
"183 537 OFFCURVE",
"206 510 OFFCURVE",
"228 483 CURVE SMOOTH",
"252 454 OFFCURVE",
"280 417 OFFCURVE",
"304 385 CURVE SMOOTH",
"510 109 OFFCURVE",
"575 -5 OFFCURVE",
"578 -9 CURVE",
"598 76 LINE",
"579 100 OFFCURVE",
"619 109 OFFCURVE",
"585 147 CURVE SMOOTH",
"553 182 OFFCURVE",
"500 242 OFFCURVE",
"459 296 CURVE SMOOTH",
"289 520 OFFCURVE",
"270 562 OFFCURVE",
"208 680 CURVE",
"204 675 LINE",
"206 680 LINE",
"145 579 LINE"
);
},
{
closed = 1;
nodes = (
"204 82 OFFCURVE",
"198 160 OFFCURVE",
"198 236 CURVE SMOOTH",
"198 363 OFFCURVE",
"194 521 OFFCURVE",
"208 680 CURVE",
"67 680 LINE",
"63 635 LINE",
"119 626 LINE",
"140 600 OFFCURVE",
"141 479 OFFCURVE",
"141 317 CURVE SMOOTH",
"141 145 OFFCURVE",
"137 103 OFFCURVE",
"132 60 CURVE",
"59 45 LINE",
"55 0 LINE",
"270 0 LINE",
"274 46 LINE",
"216 57 LINE"
);
},
{
closed = 1;
nodes = (
"569 600 OFFCURVE",
"568 534 OFFCURVE",
"568 424 CURVE SMOOTH",
"568 73 OFFCURVE",
"572 99 OFFCURVE",
"578 -9 CURVE",
"627 0 LINE",
"623 286 OFFCURVE",
"630 560 OFFCURVE",
"637 622 CURVE",
"710 635 LINE",
"714 680 LINE",
"496 680 LINE",
"492 635 LINE",
"555 626 LINE"
);
}
);
width = 754;
}
);
leftKerningGroup = I;
rightKerningGroup = I;
unicode = 004E;
},
{
glyphname = N.001;
lastChange = "2017-02-19 14:03:58 +0000";
layers = (
{
layerId = "71FD7A9F-05F5-4D76-8D4F-547475A05E4C";
width = 664;
},
{
anchors = (
{
name = bottom;
position = "{333, 0}";
},
{
name = top;
position = "{378, 661}";
}
);
layerId = "977FCFA9-45AC-4A33-B2D7-4D17E6BBF8E0";
paths = (
{
closed = 1;
nodes = (
"133 544 LINE",
"147 530 OFFCURVE",
"157 480 OFFCURVE",
"180 457 CURVE SMOOTH",
"214 426 OFFCURVE",
"247 372 OFFCURVE",
"265 339 CURVE SMOOTH",
"350 190 OFFCURVE",
"467 -7 OFFCURVE",
"469 -11 CURVE",
"567 115 LINE",
"549 139 OFFCURVE",
"540 207 OFFCURVE",
"503 239 CURVE SMOOTH",
"473 268 OFFCURVE",
"442 307 OFFCURVE",
"422 339 CURVE SMOOTH",
"346 461 OFFCURVE",
"282 562 OFFCURVE",
"231 680 CURVE",
"226 675 LINE",
"229 680 LINE",
"122 572 LINE"
);
},
{
closed = 1;
nodes = (
"174 91 OFFCURVE",
"172 160 OFFCURVE",
"180 236 CURVE SMOOTH",
"194 371 OFFCURVE",
"202 521 OFFCURVE",
"231 680 CURVE",
"50 680 LINE",
"40 623 LINE",
"97 613 LINE",
"116 587 OFFCURVE",
"108 479 OFFCURVE",
"94 325 CURVE SMOOTH",
"85 226 OFFCURVE",
"74 172 OFFCURVE",
"64 129 CURVE SMOOTH",
"51 70 OFFCURVE",
"11 55 OFFCURVE",
"-15 55 CURVE",
"-22 0 LINE",
"232 0 LINE",
"242 55 LINE",
"183 66 LINE"
);
},
{
closed = 1;
nodes = (
"513 590 OFFCURVE",
"507 474 OFFCURVE",
"502 424 CURVE SMOOTH",
"469 73 OFFCURVE",
"473 97 OFFCURVE",
"469 -11 CURVE",
"563 -3 LINE",
"584 283 OFFCURVE",
"605 484 OFFCURVE",
"620 546 CURVE SMOOTH",
"632 599 OFFCURVE",
"665 625 OFFCURVE",
"703 625 CURVE",
"710 680 LINE",
"449 680 LINE",
"438 625 LINE",
"500 616 LINE"
);
}
);
width = 664;
},
{
anchors = (
{
name = bottom;
position = "{377, 0}";
},
{
name = top;
position = "{377, 702}";
}
);
background = {
components = (
{
name = I;
transform = "{-1, 0, 0, -1, 353, 700}";
}
);
paths = (
{
closed = 1;
nodes = (
"531 603 OFFCURVE",
"531 514 OFFCURVE",
"531 464 CURVE SMOOTH",
"531 317 OFFCURVE",
"535 159 OFFCURVE",
"521 0 CURVE",
"702 0 LINE",
"707 55 LINE",
"655 65 LINE",
"608 143 OFFCURVE",
"631 528 OFFCURVE",
"638 571 CURVE SMOOTH",
"648 630 OFFCURVE",
"686 642 OFFCURVE",
"712 642 CURVE",
"713 700 LINE",
"459 700 LINE",
"454 642 LINE",
"515 633 LINE"
);
}
);
};
guideLines = (
{
angle = 86;
position = "{713, 230}";
}
);
layerId = "11343128-4963-4E5D-BE9C-B74F53B36FA5";
paths = (
{
closed = 1;
nodes = (
"152 544 LINE",
"167 530 OFFCURVE",
"182 468 OFFCURVE",
"208 445 CURVE SMOOTH",
"244 414 OFFCURVE",
"276 363 OFFCURVE",
"305 330 CURVE SMOOTH",
"437 181 OFFCURVE",
"569 -7 OFFCURVE",
"572 -11 CURVE",
"656 115 LINE",
"637 139 OFFCURVE",
"618 191 OFFCURVE",
"580 223 CURVE SMOOTH",
"546 252 OFFCURVE",
"514 304 OFFCURVE",
"491 333 CURVE SMOOTH",
"403 444 OFFCURVE",
"305 562 OFFCURVE",
"243 680 CURVE",
"235 675 LINE",
"240 680 LINE",
"139 572 LINE"
);
},
{
closed = 1;
nodes = (
"234 102 OFFCURVE",
"228 171 OFFCURVE",
"228 236 CURVE SMOOTH",
"228 363 OFFCURVE",
"227 521 OFFCURVE",
"241 680 CURVE",
"57 680 LINE",
"52 615 LINE",
"110 605 LINE",
"131 579 OFFCURVE",
"132 502 OFFCURVE",
"132 340 CURVE SMOOTH",
"132 268 OFFCURVE",
"128 183 OFFCURVE",
"122 140 CURVE SMOOTH",
"114 81 OFFCURVE",
"74 66 OFFCURVE",
"48 66 CURVE",
"43 0 LINE",
"312 0 LINE",
"317 66 LINE",
"246 77 LINE"
);
},
{
closed = 1;
nodes = (
"558 580 OFFCURVE",
"563 474 OFFCURVE",
"563 424 CURVE SMOOTH",
"563 73 OFFCURVE",
"566 97 OFFCURVE",
"572 -11 CURVE",
"662 3 LINE",
"658 289 OFFCURVE",
"661 541 OFFCURVE",
"668 603 CURVE",
"746 615 LINE",
"751 680 LINE",
"474 680 LINE",
"469 615 LINE",
"544 606 LINE"
);
}
);
width = 775;
},
{
anchors = (
{
name = bottom;
position = "{363, 0}";
},
{
name = top;
position = "{363, 708}";
}
);
background = {
components = (
{
name = I;
transform = "{-1, 0, 0, -1, 339, 700}";
}
);
paths = (
{
closed = 1;
nodes = (
"517 603 OFFCURVE",
"517 514 OFFCURVE",
"517 464 CURVE SMOOTH",
"517 317 OFFCURVE",
"521 159 OFFCURVE",
"507 0 CURVE",
"688 0 LINE",
"693 55 LINE",
"641 65 LINE",
"594 143 OFFCURVE",
"617 528 OFFCURVE",
"624 571 CURVE SMOOTH",
"634 630 OFFCURVE",
"672 642 OFFCURVE",
"698 642 CURVE",
"699 700 LINE",
"445 700 LINE",
"440 642 LINE",
"501 633 LINE"
);
}
);
};
layerId = "0B1F8F77-7348-4C28-A663-EA76351238C4";
paths = (
{
closed = 1;
nodes = (
"167 550 LINE",
"183 537 OFFCURVE",
"206 510 OFFCURVE",
"228 483 CURVE SMOOTH",
"252 454 OFFCURVE",
"280 417 OFFCURVE",
"304 385 CURVE SMOOTH",
"510 109 OFFCURVE",
"575 -5 OFFCURVE",
"578 -9 CURVE",
"598 76 LINE",
"579 100 OFFCURVE",
"619 109 OFFCURVE",
"585 147 CURVE SMOOTH",
"553 182 OFFCURVE",
"500 242 OFFCURVE",
"459 296 CURVE SMOOTH",
"289 520 OFFCURVE",
"270 562 OFFCURVE",
"208 680 CURVE",
"204 675 LINE",
"206 680 LINE",
"145 579 LINE"
);
},
{
closed = 1;
nodes = (
"204 82 OFFCURVE",
"198 160 OFFCURVE",
"198 236 CURVE SMOOTH",
"198 363 OFFCURVE",
"194 521 OFFCURVE",
"208 680 CURVE",
"68 680 LINE",
"63 635 LINE",
"119 625 LINE",
"140 599 OFFCURVE",
"141 479 OFFCURVE",
"141 317 CURVE SMOOTH",
"141 218 OFFCURVE",
"136 172 OFFCURVE",
"132 129 CURVE SMOOTH",
"126 61 OFFCURVE",
"105 46 OFFCURVE",
"59 45 CURVE",
"55 0 LINE",
"270 0 LINE",
"275 46 LINE",
"216 57 LINE"
);
},
{
closed = 1;
nodes = (
"569 600 OFFCURVE",
"568 474 OFFCURVE",
"568 424 CURVE SMOOTH",
"568 73 OFFCURVE",
"572 99 OFFCURVE",
"578 -9 CURVE",
"627 0 LINE",
"623 286 OFFCURVE",
"627 494 OFFCURVE",
"634 556 CURVE SMOOTH",
"640 609 OFFCURVE",
"651 634 OFFCURVE",
"710 634 CURVE",
"713 680 LINE",
"496 680 LINE",
"492 635 LINE",
"555 626 LINE"
);
}
);
width = 743;
}
);
leftKerningGroup = I;
rightKerningGroup = I;
},
{
glyphname = Eng;
lastChange = "2017-02-19 13:33:24 +0000";
layers = (
{
anchors = (
{
name = bottom;
position = "{282, 0}";
},
{
name = top;
position = "{336, 661}";
}
);
background = {
paths = (
{
closed = 1;
nodes = (
"355 -271 OFFCURVE",
"441 -240 CURVE SMOOTH",
"558 -199 OFFCURVE",
"545 -45 OFFCURVE",
"472 23 CURVE",
"425 21 LINE",
"458 -16 OFFCURVE",
"457 -97 OFFCURVE",
"411 -140 CURVE SMOOTH",
"385 -165 OFFCURVE",
"359 -165 OFFCURVE",
"331 -153 CURVE SMOOTH",
"293 -136 OFFCURVE",
"267 -101 OFFCURVE",
"262 -87 CURVE",
"236 -119 LINE",
"261 -203 OFFCURVE"
);
}
);
};
layerId = "71FD7A9F-05F5-4D76-8D4F-547475A05E4C";
paths = (
{
closed = 1;
nodes = (
"175 91 OFFCURVE",
"175 160 OFFCURVE",
"182 236 CURVE SMOOTH",
"195 383 OFFCURVE",
"205 541 OFFCURVE",
"233 700 CURVE",
"52 700 LINE",
"42 643 LINE",
"99 633 LINE",
"117 607 OFFCURVE",
"109 499 OFFCURVE",
"95 337 CURVE SMOOTH",
"86 238 OFFCURVE",
"76 172 OFFCURVE",
"66 129 CURVE SMOOTH",
"53 70 OFFCURVE",
"12 55 OFFCURVE",
"-14 55 CURVE",
"-21 0 LINE",
"233 0 LINE",
"243 55 LINE",
"185 66 LINE"
);
},
{
closed = 1;
nodes = (
"440 645 LINE",
"502 636 LINE",
"514 610 OFFCURVE",
"508 494 OFFCURVE",
"503 444 CURVE SMOOTH",
"495 364 OFFCURVE",
"490 303 OFFCURVE",
"486 255 CURVE",
"460 285 OFFCURVE",
"437 325 OFFCURVE",
"422 351 CURVE SMOOTH",
"345 480 OFFCURVE",
"284 582 OFFCURVE",
"233 700 CURVE",
"228 695 LINE",
"231 700 LINE",
"124 592 LINE",
"135 564 LINE",
"148 550 OFFCURVE",
"159 500 OFFCURVE",
"183 477 CURVE SMOOTH",
"216 446 OFFCURVE",
"249 384 OFFCURVE",
"268 351 CURVE SMOOTH",
"342 223 OFFCURVE",
"439 59 OFFCURVE",
"464 13 CURVE SMOOTH",
"503 -60 OFFCURVE",
"470 -119 OFFCURVE",
"432 -148 CURVE",
"389 -175 OFFCURVE",
"329 -176 OFFCURVE",
"276 -138 CURVE",
"258 -185 LINE",
"289 -224 OFFCURVE",
"389 -283 OFFCURVE",
"473 -233 CURVE SMOOTH",
"562 -180 OFFCURVE",
"559 -78 OFFCURVE",
"564 0 CURVE SMOOTH",
"586 286 OFFCURVE",
"606 504 OFFCURVE",
"621 566 CURVE SMOOTH",
"634 619 OFFCURVE",
"667 645 OFFCURVE",
"705 645 CURVE",
"712 700 LINE",
"451 700 LINE"
);
}
);
width = 664;
},
{
anchors = (
{
name = bottom;
position = "{314, 0}";
},
{
name = top;
position = "{368, 661}";
}
);
background = {
paths = (
{
closed = 1;
nodes = (
"387 -271 OFFCURVE",
"473 -240 CURVE SMOOTH",
"590 -199 OFFCURVE",
"577 -45 OFFCURVE",
"504 23 CURVE",
"457 21 LINE",
"490 -16 OFFCURVE",
"489 -97 OFFCURVE",
"443 -140 CURVE SMOOTH",
"417 -165 OFFCURVE",
"391 -165 OFFCURVE",
"363 -153 CURVE SMOOTH",
"325 -136 OFFCURVE",
"299 -101 OFFCURVE",
"294 -87 CURVE",
"268 -119 LINE",
"293 -203 OFFCURVE"
);
}
);
};
layerId = "977FCFA9-45AC-4A33-B2D7-4D17E6BBF8E0";
paths = (
{
closed = 1;
nodes = (
"207 91 OFFCURVE",
"207 160 OFFCURVE",
"214 236 CURVE SMOOTH",
"227 383 OFFCURVE",
"237 541 OFFCURVE",
"265 700 CURVE",
"84 700 LINE",
"74 643 LINE",
"131 633 LINE",
"149 607 OFFCURVE",
"141 499 OFFCURVE",
"127 337 CURVE SMOOTH",
"118 238 OFFCURVE",
"108 172 OFFCURVE",
"98 129 CURVE SMOOTH",
"85 70 OFFCURVE",
"44 55 OFFCURVE",
"18 55 CURVE",
"11 0 LINE",
"265 0 LINE",
"275 55 LINE",
"217 66 LINE"
);
},
{
closed = 1;
nodes = (
"472 645 LINE",
"534 636 LINE",
"546 610 OFFCURVE",
"540 494 OFFCURVE",
"535 444 CURVE SMOOTH",
"527 364 OFFCURVE",
"522 303 OFFCURVE",
"518 255 CURVE",
"492 285 OFFCURVE",
"469 325 OFFCURVE",
"454 351 CURVE SMOOTH",
"377 480 OFFCURVE",
"316 582 OFFCURVE",
"265 700 CURVE",
"260 695 LINE",
"263 700 LINE",
"156 592 LINE",
"167 564 LINE",
"180 550 OFFCURVE",
"191 500 OFFCURVE",
"215 477 CURVE SMOOTH",
"248 446 OFFCURVE",
"281 384 OFFCURVE",
"300 351 CURVE SMOOTH",
"374 223 OFFCURVE",
"471 59 OFFCURVE",
"496 13 CURVE SMOOTH",
"535 -60 OFFCURVE",
"502 -119 OFFCURVE",
"464 -148 CURVE",
"421 -175 OFFCURVE",
"361 -176 OFFCURVE",
"308 -138 CURVE",
"290 -185 LINE",
"321 -224 OFFCURVE",
"421 -283 OFFCURVE",
"505 -233 CURVE SMOOTH",
"594 -180 OFFCURVE",
"591 -78 OFFCURVE",
"596 0 CURVE SMOOTH",
"618 286 OFFCURVE",
"638 504 OFFCURVE",
"653 566 CURVE SMOOTH",
"666 619 OFFCURVE",
"699 645 OFFCURVE",
"737 645 CURVE",
"744 700 LINE",
"483 700 LINE"
);
}
);
width = 718;
},
{
anchors = (
{
name = bottom;
position = "{361, 0}";
},
{
name = top;
position = "{361, 700}";
}
);
components = (
{
name = N;
transform = "{1, 0, 0, 1, -14, 0}";
}
);
layerId = "11343128-4963-4E5D-BE9C-B74F53B36FA5";
paths = (
{
closed = 1;
nodes = (
"530 29 LINE",
"611 -103 OFFCURVE",
"461 -172 OFFCURVE",
"351 -99 CURVE",
"329 -105 LINE",
"317 -133 LINE",
"363 -186 OFFCURVE",
"489 -246 OFFCURVE",
"570 -194 CURVE SMOOTH",
"640 -149 OFFCURVE",
"648 -72 OFFCURVE",
"648 4 CURVE"
);
}
);
width = 721;
},
{
anchors = (
{
name = bottom;
position = "{361, 0}";
},
{
name = top;
position = "{361, 700}";
}
);
components = (
{
name = N;
}
);
layerId = "0B1F8F77-7348-4C28-A663-EA76351238C4";
paths = (
{
closed = 1;
nodes = (
"542 49 LINE",
"608 -113 OFFCURVE",
"496 -190 OFFCURVE",
"343 -98 CURVE",
"330 -102 LINE",
"319 -128 LINE",
"353 -167 OFFCURVE",
"472 -234 OFFCURVE",
"558 -188 CURVE SMOOTH",
"627 -151 OFFCURVE",
"634 -64 OFFCURVE",
"627 15 CURVE"
);
}
);
width = 721;
}
);
leftKerningGroup = I;
rightKerningGroup = I;
unicode = 014A;
},
{
glyphname = O;
lastChange = "2017-02-22 20:16:57 +0000";
layers = (
{
layerId = "71FD7A9F-05F5-4D76-8D4F-547475A05E4C";
width = 655;
},
{
anchors = (
{
name = bottom;
position = "{299, 0}";
},
{
name = center;
position = "{342, 350}";
},
{
name = ogonek;
position = "{569, 10}";
},
{
name = top;
position = "{362, 656}";
},
{
name = topleft;
position = "{67, 700}";
},
{
name = topright;
position = "{701, 700}";
}
);
background = {
paths = (
{
closed = 1;
nodes = (
"545 685 OFFCURVE",
"451 730 OFFCURVE",
"307 711 CURVE",
"-3 649 OFFCURVE",
"-58 244 OFFCURVE",
"91 81 CURVE SMOOTH",
"169 -8 OFFCURVE",
"286 -29 OFFCURVE",
"412 -1 CURVE",
"685 77 OFFCURVE",
"753 440 OFFCURVE",
"601 618 CURVE SMOOTH"
);
},
{
closed = 1;
nodes = (
"318 77 OFFCURVE",
"242 99 OFFCURVE",
"202 176 CURVE SMOOTH",
"118 334 OFFCURVE",
"162 547 OFFCURVE",
"312 628 CURVE",
"375 628 OFFCURVE",
"449 610 OFFCURVE",
"493 521 CURVE SMOOTH",
"570 372 OFFCURVE",
"528 165 OFFCURVE",
"382 78 CURVE"
);
}
);
};
layerId = "977FCFA9-45AC-4A33-B2D7-4D17E6BBF8E0";
paths = (
{
closed = 1;
nodes = (
"536 662 OFFCURVE",
"446 707 OFFCURVE",
"310 688 CURVE",
"-1 623 OFFCURVE",
"-61 255 OFFCURVE",
"84 81 CURVE SMOOTH",
"158 -7 OFFCURVE",
"269 -29 OFFCURVE",
"392 -1 CURVE",
"666 77 OFFCURVE",
"741 417 OFFCURVE",
"592 595 CURVE SMOOTH"
);
},
{
closed = 1;
nodes = (
"301 69 OFFCURVE",
"239 95 OFFCURVE",
"195 176 CURVE SMOOTH",
"115 323 OFFCURVE",
"161 533 OFFCURVE",
"314 611 CURVE",
"375 611 OFFCURVE",
"440 584 OFFCURVE",
"484 498 CURVE SMOOTH",
"556 357 OFFCURVE",
"516 156 OFFCURVE",
"365 69 CURVE"
);
}
);
width = 655;
},
{
anchors = (
{
name = bottom;
position = "{368, 0}";
},
{
name = center;
position = "{368, 350}";
},
{
name = ogonek;
position = "{658, 10}";
},
{
name = top;
position = "{368, 709}";
},
{
name = topleft;
position = "{24, 700}";
},
{
name = topright;
position = "{711, 700}";
}
);
background = {
paths = (
{
closed = 1;
nodes = (
"566 671 OFFCURVE",
"448 705 OFFCURVE",
"305 686 CURVE",
"-2 624 OFFCURVE",
"-64 264 OFFCURVE",
"104 76 CURVE SMOOTH",
"186 -15 OFFCURVE",
"323 -26 OFFCURVE",
"447 2 CURVE",
"716 80 OFFCURVE",
"790 400 OFFCURVE",
"622 603 CURVE SMOOTH"
);
},
{
closed = 1;
nodes = (
"303 74 OFFCURVE",
"221 152 OFFCURVE",
"195 269 CURVE SMOOTH",
"173 368 OFFCURVE",
"182 549 OFFCURVE",
"340 602 CURVE",
"337 614 LINE",
"268 603 LINE",
"269 592 LINE",
"438 603 OFFCURVE",
"514 516 OFFCURVE",
"537 411 CURVE SMOOTH",
"560 306 OFFCURVE",
"550 129 OFFCURVE",
"403 82 CURVE",
"408 68 LINE",
"474 80 LINE",
"469 93 LINE"
);
}
);
};
guideLines = (
{
angle = 90;
position = "{351, 177}";
}
);
layerId = "11343128-4963-4E5D-BE9C-B74F53B36FA5";
paths = (
{
closed = 1;
nodes = (
"572 662 OFFCURVE",
"465 719 OFFCURVE",
"312 692 CURVE SMOOTH",
"12 639 OFFCURVE",
"-37 249 OFFCURVE",
"109 85 CURVE SMOOTH",
"189 -4 OFFCURVE",
"329 -37 OFFCURVE",
"450 -5 CURVE SMOOTH",
"714 65 OFFCURVE",
"776 414 OFFCURVE",
"627 595 CURVE SMOOTH"
);
},
{
closed = 1;
nodes = (
"381 69 OFFCURVE",
"283 97 OFFCURVE",
"230 187 CURVE SMOOTH",
"141 338 OFFCURVE",
"192 554 OFFCURVE",
"346 615 CURVE",
"340 634 LINE",
"292 620 LINE",
"298 601 LINE",
"362 613 OFFCURVE",
"460 584 OFFCURVE",
"512 488 CURVE SMOOTH",
"593 336 OFFCURVE",
"542 137 OFFCURVE",
"390 63 CURVE",
"394 38 LINE",
"446 54 LINE",
"438 80 LINE"
);
}
);
width = 736;
},
{
anchors = (
{
name = bottom;
position = "{360, 0}";
},
{
name = center;
position = "{360, 350}";
},
{
name = ogonek;
position = "{650, 10}";
},
{
name = top;
position = "{361, 708}";
},
{
name = topleft;
position = "{16, 700}";
},
{
name = topright;
position = "{703, 700}";
}
);
background = {
components = (
{
name = D;
transform = "{1, 0, 0, 1, 19, 0}";
}
);
};
guideLines = (
{
angle = 90;
position = "{343, 177}";
}
);
layerId = "0B1F8F77-7348-4C28-A663-EA76351238C4";
paths = (
{
closed = 1;
nodes = (
"533 672 OFFCURVE",
"445 715 OFFCURVE",
"303 688 CURVE SMOOTH",
"-7 629 OFFCURVE",
"-12 222 OFFCURVE",
"127 76 CURVE SMOOTH",
"212 -13 OFFCURVE",
"320 -34 OFFCURVE",
"445 0 CURVE SMOOTH",
"717 74 OFFCURVE",
"738 443 OFFCURVE",
"593 605 CURVE SMOOTH"
);
},
{
closed = 1;
nodes = (
"257 15 OFFCURVE",
"169 111 OFFCURVE",
"133 267 CURVE SMOOTH",
"96 430 OFFCURVE",
"166 605 OFFCURVE",
"335 656 CURVE",
"332 666 LINE",
"262 653 LINE",
"263 642 LINE",
"469 664 OFFCURVE",
"562 557 OFFCURVE",
"592 406 CURVE SMOOTH",
"625 241 OFFCURVE",
"546 78 OFFCURVE",
"398 31 CURVE",
"403 16 LINE",
"469 24 LINE",
"465 40 LINE"
);
}
);
width = 722;
}
);
leftKerningGroup = O;
rightKerningGroup = O;
unicode = 004F;
},
{
glyphname = O.001;
lastChange = "2017-02-19 14:03:58 +0000";
layers = (
{
layerId = "71FD7A9F-05F5-4D76-8D4F-547475A05E4C";
width = 655;
},
{
anchors = (
{
name = bottom;
position = "{299, 0}";
},
{
name = center;
position = "{342, 350}";
},
{
name = ogonek;
position = "{569, 10}";
},
{
name = top;
position = "{362, 656}";
},
{
name = topleft;
position = "{67, 700}";
},
{
name = topright;
position = "{701, 700}";
}
);
background = {
paths = (
{
closed = 1;
nodes = (
"545 685 OFFCURVE",
"451 730 OFFCURVE",
"307 711 CURVE",
"-3 649 OFFCURVE",
"-58 244 OFFCURVE",
"91 81 CURVE SMOOTH",
"169 -8 OFFCURVE",
"286 -29 OFFCURVE",
"412 -1 CURVE",
"685 77 OFFCURVE",
"753 440 OFFCURVE",
"601 618 CURVE SMOOTH"
);
},
{
closed = 1;
nodes = (
"318 77 OFFCURVE",
"242 99 OFFCURVE",
"202 176 CURVE SMOOTH",
"118 334 OFFCURVE",
"162 547 OFFCURVE",
"312 628 CURVE",
"375 628 OFFCURVE",
"449 610 OFFCURVE",
"493 521 CURVE SMOOTH",
"570 372 OFFCURVE",
"528 165 OFFCURVE",
"382 78 CURVE"
);
}
);
};
layerId = "977FCFA9-45AC-4A33-B2D7-4D17E6BBF8E0";
paths = (
{
closed = 1;
nodes = (
"536 662 OFFCURVE",
"446 707 OFFCURVE",
"310 688 CURVE",
"-1 623 OFFCURVE",
"-61 255 OFFCURVE",
"84 81 CURVE SMOOTH",
"158 -7 OFFCURVE",
"269 -29 OFFCURVE",
"392 -1 CURVE",
"666 77 OFFCURVE",
"741 417 OFFCURVE",
"592 595 CURVE SMOOTH"
);
},
{
closed = 1;
nodes = (
"301 69 OFFCURVE",
"239 95 OFFCURVE",
"195 176 CURVE SMOOTH",
"115 323 OFFCURVE",
"161 533 OFFCURVE",
"314 611 CURVE",
"375 611 OFFCURVE",
"440 584 OFFCURVE",
"484 498 CURVE SMOOTH",
"556 357 OFFCURVE",
"516 156 OFFCURVE",
"365 69 CURVE"
);
}
);
width = 655;
},
{
anchors = (
{
name = bottom;
position = "{349, 0}";
},
{
name = center;
position = "{349, 350}";
},
{
name = ogonek;
position = "{639, 10}";
},
{
name = top;
position = "{349, 709}";
},
{
name = topleft;
position = "{5, 700}";
},
{
name = topright;
position = "{692, 700}";
}
);
background = {
paths = (
{
closed = 1;
nodes = (
"547 671 OFFCURVE",
"429 705 OFFCURVE",
"286 686 CURVE",
"-21 624 OFFCURVE",
"-83 264 OFFCURVE",
"85 76 CURVE SMOOTH",
"167 -15 OFFCURVE",
"304 -26 OFFCURVE",
"428 2 CURVE",
"697 80 OFFCURVE",
"771 400 OFFCURVE",
"603 603 CURVE SMOOTH"
);
},
{
closed = 1;
nodes = (
"284 74 OFFCURVE",
"202 152 OFFCURVE",
"176 269 CURVE SMOOTH",
"154 368 OFFCURVE",
"163 549 OFFCURVE",
"321 602 CURVE",
"318 614 LINE",
"249 603 LINE",
"250 592 LINE",
"419 603 OFFCURVE",
"495 516 OFFCURVE",
"518 411 CURVE SMOOTH",
"541 306 OFFCURVE",
"531 129 OFFCURVE",
"384 82 CURVE",
"389 68 LINE",
"455 80 LINE",
"450 93 LINE"
);
}
);
};
guideLines = (
{
angle = 90;
position = "{332, 177}";
}
);
layerId = "11343128-4963-4E5D-BE9C-B74F53B36FA5";
paths = (
{
closed = 1;
nodes = (
"553 662 OFFCURVE",
"448 711 OFFCURVE",
"293 692 CURVE",
"-7 626 OFFCURVE",
"-56 249 OFFCURVE",
"90 85 CURVE SMOOTH",
"170 -4 OFFCURVE",
"310 -33 OFFCURVE",
"431 -5 CURVE",
"693 73 OFFCURVE",
"757 414 OFFCURVE",
"608 595 CURVE SMOOTH"
);
},
{
closed = 1;
nodes = (
"362 69 OFFCURVE",
"257 105 OFFCURVE",
"211 187 CURVE SMOOTH",
"124 340 OFFCURVE",
"173 548 OFFCURVE",
"327 615 CURVE",
"321 634 LINE",
"273 620 LINE",
"279 601 LINE",
"336 606 OFFCURVE",
"441 584 OFFCURVE",
"493 488 CURVE SMOOTH",
"574 336 OFFCURVE",
"523 137 OFFCURVE",
"371 63 CURVE",
"375 38 LINE",
"427 54 LINE",
"419 80 LINE"
);
}
);
width = 699;
},
{
anchors = (
{
name = bottom;
position = "{354, 0}";
},
{
name = center;
position = "{354, 350}";
},
{
name = ogonek;
position = "{644, 10}";
},
{
name = top;
position = "{355, 708}";
},
{
name = topleft;
position = "{10, 700}";
},
{
name = topright;
position = "{697, 700}";
}
);
background = {
paths = (
{
closed = 1;
nodes = (
"525 669 OFFCURVE",
"439 708 OFFCURVE",
"296 689 CURVE",
"-11 627 OFFCURVE",
"-16 220 OFFCURVE",
"123 76 CURVE SMOOTH",
"208 -12 OFFCURVE",
"314 -29 OFFCURVE",
"438 -1 CURVE",
"707 77 OFFCURVE",
"730 443 OFFCURVE",
"585 603 CURVE SMOOTH"
);
},
{
closed = 1;
nodes = (
"650 406 OFFCURVE",
"577 84 OFFCURVE",
"417 43 CURVE",
"341 43 OFFCURVE",
"260 61 OFFCURVE",
"185 149 CURVE SMOOTH",
"53 303 OFFCURVE",
"141 612 OFFCURVE",
"313 640 CURVE",
"393 640 OFFCURVE",
"462 614 OFFCURVE",
"524 545 CURVE SMOOTH"
);
}
);
};
guideLines = (
{
angle = 90;
position = "{337, 177}";
}
);
layerId = "0B1F8F77-7348-4C28-A663-EA76351238C4";
paths = (
{
closed = 1;
nodes = (
"525 669 OFFCURVE",
"439 705 OFFCURVE",
"296 686 CURVE",
"-11 624 OFFCURVE",
"-16 220 OFFCURVE",
"123 76 CURVE SMOOTH",
"208 -12 OFFCURVE",
"314 -26 OFFCURVE",
"438 2 CURVE",
"707 80 OFFCURVE",
"730 443 OFFCURVE",
"585 603 CURVE SMOOTH"
);
},
{
closed = 1;
nodes = (
"274 30 OFFCURVE",
"165 126 OFFCURVE",
"133 269 CURVE SMOOTH",
"96 430 OFFCURVE",
"163 597 OFFCURVE",
"331 648 CURVE",
"328 662 LINE",
"259 649 LINE",
"260 636 LINE",
"455 647 OFFCURVE",
"555 551 OFFCURVE",
"582 411 CURVE SMOOTH",
"613 247 OFFCURVE",
"541 80 OFFCURVE",
"394 33 CURVE",
"399 16 LINE",
"465 30 LINE",
"460 46 LINE"
);
}
);
width = 708;
}
);
leftKerningGroup = O;
rightKerningGroup = O;
},
{
glyphname = OE;
lastChange = "2017-02-19 13:36:50 +0000";
layers = (
{
anchors = (
{
name = bottom;
position = "{422, 0}";
},
{
name = top;
position = "{495, 700}";
}
);
layerId = "71FD7A9F-05F5-4D76-8D4F-547475A05E4C";
paths = (
{
closed = 1;
nodes = (
"303 81 OFFCURVE",
"233 106 OFFCURVE",
"195 182 CURVE SMOOTH",
"117 340 OFFCURVE",
"181 575 OFFCURVE",
"315 617 CURVE SMOOTH",
"395 642 OFFCURVE",
"529 604 OFFCURVE",
"521 509 CURVE SMOOTH",
"518 473 OFFCURVE",
"513 443 OFFCURVE",
"507 382 CURVE SMOOTH",
"502 343 OFFCURVE",
"492 258 OFFCURVE",
"484 206 CURVE SMOOTH",
"474 133 OFFCURVE",
"435 99 OFFCURVE",
"367 82 CURVE"
);
},
{
closed = 1;
nodes = (
"841 100 LINE",
"800 87 OFFCURVE",
"700 82 OFFCURVE",
"624 84 CURVE",
"606 147 OFFCURVE",
"619 272 OFFCURVE",
"625 331 CURVE",
"730 325 LINE",
"739 279 LINE",
"797 282 LINE",
"804 325 OFFCURVE",
"813 410 OFFCURVE",
"798 410 CURVE SMOOTH",
"792 410 OFFCURVE",
"678 406 OFFCURVE",
"632 405 CURVE",
"644 523 OFFCURVE",
"655 588 OFFCURVE",
"672 613 CURVE",
"761 612 OFFCURVE",
"834 610 OFFCURVE",
"873 602 CURVE",
"902 540 LINE",
"957 550 LINE",
"944 706 LINE",
"735 700 LINE",
"672 700 OFFCURVE",
"609 702 OFFCURVE",
"546 703 CURVE SMOOTH",
"483 704 OFFCURVE",
"384 720 OFFCURVE",
"313 709 CURVE SMOOTH",
"2 659 OFFCURVE",
"-57 245 OFFCURVE",
"78 76 CURVE SMOOTH",
"153 -18 OFFCURVE",
"275 -21 OFFCURVE",
"412 -6 CURVE SMOOTH",
"488 2 OFFCURVE",
"590 -1 OFFCURVE",
"896 -4 CURVE",
"928 162 LINE",
"878 170 LINE"
);
}
);
width = 936;
},
{
anchors = (
{
name = bottom;
position = "{448, 0}";
},
{
name = top;
position = "{521, 700}";
}
);
layerId = "977FCFA9-45AC-4A33-B2D7-4D17E6BBF8E0";
paths = (
{
closed = 1;
nodes = (
"329 81 OFFCURVE",
"259 106 OFFCURVE",
"221 182 CURVE SMOOTH",
"143 340 OFFCURVE",
"207 575 OFFCURVE",
"341 617 CURVE SMOOTH",
"421 642 OFFCURVE",
"555 604 OFFCURVE",
"547 509 CURVE SMOOTH",
"544 473 OFFCURVE",
"539 443 OFFCURVE",
"533 382 CURVE SMOOTH",
"528 343 OFFCURVE",
"518 258 OFFCURVE",
"510 206 CURVE SMOOTH",
"500 133 OFFCURVE",
"461 99 OFFCURVE",
"393 82 CURVE"
);
},
{
closed = 1;
nodes = (
"867 100 LINE",
"826 87 OFFCURVE",
"726 82 OFFCURVE",
"650 84 CURVE",
"632 147 OFFCURVE",
"645 272 OFFCURVE",
"651 331 CURVE",
"756 325 LINE",
"765 279 LINE",
"823 282 LINE",
"830 325 OFFCURVE",
"839 410 OFFCURVE",
"824 410 CURVE SMOOTH",
"818 410 OFFCURVE",
"704 406 OFFCURVE",
"658 405 CURVE",
"670 523 OFFCURVE",
"681 588 OFFCURVE",
"698 613 CURVE",
"787 612 OFFCURVE",
"860 610 OFFCURVE",
"899 602 CURVE",
"928 540 LINE",
"983 550 LINE",
"970 706 LINE",
"761 700 LINE",
"698 700 OFFCURVE",
"635 702 OFFCURVE",
"572 703 CURVE SMOOTH",
"509 704 OFFCURVE",
"410 720 OFFCURVE",
"339 709 CURVE SMOOTH",
"28 659 OFFCURVE",
"-31 245 OFFCURVE",
"104 76 CURVE SMOOTH",
"179 -18 OFFCURVE",
"301 -21 OFFCURVE",
"438 -6 CURVE SMOOTH",
"514 2 OFFCURVE",
"616 -1 OFFCURVE",
"922 -4 CURVE",
"954 162 LINE",
"904 170 LINE"
);
}
);
width = 993;
},
{
anchors = (
{
name = bottom;
position = "{777, 0}";
},
{
name = center;
position = "{777, 350}";
},
{
name = ogonek;
position = "{1067, 10}";
},
{
name = top;
position = "{777, 703}";
},
{
name = topleft;
position = "{433, 700}";
},
{
name = topright;
position = "{1120, 700}";
}
);
background = {
components = (
{
name = E;
transform = "{1, 0, 0, 1, 397, 0}";
},
{
name = O;
transform = "{1, 0, 0, 1, 35, 0}";
}
);
};
layerId = "11343128-4963-4E5D-BE9C-B74F53B36FA5";
paths = (
{
closed = 1;
nodes = (
"601 12 LINE",
"589 115 LINE",
"565 97 OFFCURVE",
"437 86 OFFCURVE",
"386 80 CURVE",
"390 55 LINE",
"442 71 LINE",
"434 82 LINE",
"377 71 OFFCURVE",
"280 111 OFFCURVE",
"236 207 CURVE SMOOTH",
"167 357 OFFCURVE",
"208 541 OFFCURVE",
"351 604 CURVE",
"344 623 LINE",
"296 609 LINE",
"302 590 LINE",
"362 595 OFFCURVE",
"511 582 OFFCURVE",
"572 522 CURVE",
"574 648 LINE",
"481 680 LINE",
"446 681 OFFCURVE",
"376 682 OFFCURVE",
"316 679 CURVE",
"27 617 OFFCURVE",
"-10 269 OFFCURVE",
"111 100 CURVE SMOOTH",
"182 1 OFFCURVE",
"320 -11 OFFCURVE",
"452 0 CURVE SMOOTH"
);
},
{
closed = 1;
nodes = (
"934 197 LINE",
"903 115 LINE",
"865 102 OFFCURVE",
"779 97 OFFCURVE",
"705 98 CURVE",
"683 156 OFFCURVE",
"684 250 OFFCURVE",
"685 310 CURVE",
"850 292 LINE",
"866 398 LINE",
"850 408 LINE",
"797 407 OFFCURVE",
"739 405 OFFCURVE",
"685 402 CURVE",
"686 484 OFFCURVE",
"687 547 OFFCURVE",
"691 585 CURVE",
"774 583 OFFCURVE",
"837 580 OFFCURVE",
"876 574 CURVE",
"894 482 LINE",
"965 492 LINE",
"966 676 LINE",
"951 688 LINE",
"802 678 OFFCURVE",
"752 683 OFFCURVE",
"602 680 CURVE SMOOTH",
"462 680 LINE",
"456 615 LINE",
"524 605 LINE",
"537 580 OFFCURVE",
"539 515 OFFCURVE",
"536 388 CURVE SMOOTH",
"530 166 OFFCURVE",
"530 190 OFFCURVE",
"529 159 CURVE SMOOTH",
"528 123 OFFCURVE",
"546 110 OFFCURVE",
"573 104 CURVE",
"458 66 LINE",
"452 0 LINE",
"776 0 LINE SMOOTH",
"843 0 OFFCURVE",
"853 -1 OFFCURVE",
"977 -4 CURVE",
"999 189 LINE"
);
}
);
width = 996;
},
{
anchors = (
{
name = bottom;
position = "{1108, 0}";
},
{
name = center;
position = "{1108, 350}";
},
{
name = ogonek;
position = "{1398, 10}";
},
{
name = top;
position = "{1108, 703}";
},
{
name = topleft;
position = "{764, 700}";
},
{
name = topright;
position = "{1451, 700}";
}
);
background = {
components = (
{
name = E;
transform = "{1, 0, 0, 1, 748, 0}";
},
{
name = O;
transform = "{1, 0, 0, 1, 331, 0}";
}
);
};
layerId = "0B1F8F77-7348-4C28-A663-EA76351238C4";
paths = (
{
closed = 1;
nodes = (
"173 4 OFFCURVE",
"290 -3 OFFCURVE",
"419 0 CURVE",
"425 50 LINE",
"253 45 OFFCURVE",
"133 139 OFFCURVE",
"102 276 CURVE SMOOTH",
"68 427 OFFCURVE",
"124 565 OFFCURVE",
"270 626 CURVE",
"350 626 OFFCURVE",
"410 616 OFFCURVE",
"455 601 CURVE",
"464 680 LINE",
"410 680 OFFCURVE",
"336 685 OFFCURVE",
"248 671 CURVE",
"-43 599 OFFCURVE",
"-50 238 OFFCURVE",
"85 96 CURVE SMOOTH"
);
},
{
closed = 1;
nodes = (
"842 159 LINE",
"807 70 LINE",
"769 57 OFFCURVE",
"659 52 OFFCURVE",
"581 54 CURVE",
"570 55 LINE",
"541 111 OFFCURVE",
"545 288 OFFCURVE",
"545 334 CURVE SMOOTH",
"545 340 LINE",
"748 323 LINE",
"761 390 LINE",
"749 398 LINE",
"709 396 OFFCURVE",
"586 392 OFFCURVE",
"545 390 CURVE",
"545 514 OFFCURVE",
"547 591 OFFCURVE",
"548 623 CURVE",
"552 624 LINE",
"658 622 OFFCURVE",
"741 618 OFFCURVE",
"787 609 CURVE",
"802 527 LINE",
"848 537 LINE",
"850 689 LINE",
"745 683 OFFCURVE",
"625 680 OFFCURVE",
"509 680 CURVE SMOOTH",
"394 680 LINE",
"390 636 LINE",
"450 626 LINE",
"462 601 OFFCURVE",
"463 515 OFFCURVE",
"463 388 CURVE SMOOTH",
"463 178 OFFCURVE",
"458 145 OFFCURVE",
"458 93 CURVE SMOOTH",
"458 80 OFFCURVE",
"476 61 OFFCURVE",
"502 55 CURVE",
"390 46 LINE",
"386 0 LINE",
"634 0 LINE",
"634 1 LINE",
"709 0 OFFCURVE",
"786 -1 OFFCURVE",
"861 -3 CURVE",
"883 152 LINE"
);
}
);
width = 854;
}
);
unicode = 0152;
},
{
glyphname = P;
lastChange = "2017-02-19 18:46:36 +0000";
layers = (
{
layerId = "71FD7A9F-05F5-4D76-8D4F-547475A05E4C";
width = 503;
},
{
background = {
components = (
{
name = R;
transform = "{1, 0, 0, 1, -25, 0}";
}
);
};
guideLines = (
{
angle = 84;
position = "{597, 311}";
}
);
layerId = "977FCFA9-45AC-4A33-B2D7-4D17E6BBF8E0";
paths = (
{
closed = 1;
nodes = (
"190 241 LINE",
"220 229 OFFCURVE",
"279 232 OFFCURVE",
"315 237 CURVE",
"560 285 OFFCURVE",
"634 567 OFFCURVE",
"468 648 CURVE SMOOTH",
"372 694 OFFCURVE",
"214 689 OFFCURVE",
"50 678 CURVE",
"226 601 LINE",
"442 637 OFFCURVE",
"470 402 OFFCURVE",
"333 327 CURVE",
"308 319 OFFCURVE",
"234 318 OFFCURVE",
"200 342 CURVE"
);
},
{
closed = 1;
nodes = (
"84 0 LINE",
"276 0 LINE",
"286 53 LINE",
"154 75 LINE"
);
},
{
closed = 1;
nodes = (
"50 678 LINE",
"40 623 LINE",
"95 612 LINE",
"104 587 OFFCURVE",
"97 512 OFFCURVE",
"87 407 CURVE SMOOTH",
"67 197 OFFCURVE",
"46 114 OFFCURVE",
"51 98 CURVE SMOOTH",
"52 86 OFFCURVE",
"67 71 OFFCURVE",
"96 65 CURVE",
"-12 55 LINE",
"-19 0 LINE",
"263 1 LINE",
"272 54 LINE",
"215 64 LINE",
"182 123 OFFCURVE",
"206 314 OFFCURVE",
"211 360 CURVE SMOOTH",
"225 495 OFFCURVE",
"237 567 OFFCURVE",
"252 588 CURVE SMOOTH",
"264 608 OFFCURVE",
"288 621 OFFCURVE",
"311 623 CURVE",
"317 678 LINE"
);
}
);
width = 531;
},
{
anchors = (
{
name = bottom;
position = "{327, 0}";
},
{
name = top;
position = "{327, 700}";
}
);
background = {
components = (
{
name = R;
transform = "{1, 0, 0, 1, 28, 0}";
}
);
};
components = (
{
name = _part.stem.cap;
transform = "{1, 0, 0, 1, -177, 0}";
piece = {
"BPR?" = 1;
};
}
);
layerId = "11343128-4963-4E5D-BE9C-B74F53B36FA5";
paths = (
{
closed = 1;
nodes = (
"250 274 LINE",
"281 262 OFFCURVE",
"351 261 OFFCURVE",
"386 266 CURVE",
"627 314 OFFCURVE",
"661 575 OFFCURVE",
"486 655 CURVE SMOOTH",
"388 700 OFFCURVE",
"238 689 OFFCURVE",
"75 678 CURVE",
"252 600 LINE",
"454 632 OFFCURVE",
"471 415 OFFCURVE",
"388 361 CURVE",
"363 353 OFFCURVE",
"278 356 OFFCURVE",
"241 373 CURVE"
);
},
{
closed = 1;
nodes = (
"170 0 LINE",
"392 0 LINE",
"398 66 LINE",
"250 83 LINE"
);
}
);
width = 601;
},
{
anchors = (
{
name = bottom;
position = "{304, 0}";
},
{
name = top;
position = "{304, 708}";
}
);
background = {
paths = (
{
closed = 1;
nodes = (
"272 680 OFFCURVE",
"192 670 OFFCURVE",
"131 670 CURVE SMOOTH",
"61 670 LINE",
"56 640 LINE",
"79 630 OFFCURVE",
"104 621 OFFCURVE",
"131 615 CURVE",
"131 55 LINE",
"104 49 OFFCURVE",
"79 40 OFFCURVE",
"56 30 CURVE",
"56 0 LINE",
"321 0 LINE",
"326 30 LINE",
"210 45 LINE",
"214 71 OFFCURVE",
"216 98 OFFCURVE",
"216 130 CURVE SMOOTH",
"216 622 LINE",
"246 624 OFFCURVE",
"277 625 OFFCURVE",
"313 625 CURVE SMOOTH",
"396 625 OFFCURVE",
"466 580 OFFCURVE",
"466 470 CURVE SMOOTH",
"466 402 OFFCURVE",
"442 363 OFFCURVE",
"442 363 CURVE",
"404 340 OFFCURVE",
"361 340 OFFCURVE",
"313 340 CURVE SMOOTH",
"261 340 LINE",
"256 294 LINE",
"281 291 OFFCURVE",
"318 289 OFFCURVE",
"343 289 CURVE SMOOTH",
"455 289 OFFCURVE",
"551 350 OFFCURVE",
"551 480 CURVE SMOOTH",
"551 615 OFFCURVE",
"455 680 OFFCURVE",
"343 680 CURVE SMOOTH"
);
}
);
};
components = (
{
name = _part.stem.cap;
transform = "{1, 0, 0, 1, -117, 0}";
piece = {
"BPR?" = 1;
};
}
);
layerId = "0B1F8F77-7348-4C28-A663-EA76351238C4";
paths = (
{
closed = 1;
nodes = (
"192 299 LINE",
"223 287 OFFCURVE",
"316 288 OFFCURVE",
"351 293 CURVE",
"570 328 OFFCURVE",
"609 595 OFFCURVE",
"425 661 CURVE SMOOTH",
"327 696 OFFCURVE",
"250 687 OFFCURVE",
"69 680 CURVE",
"218 628 LINE",
"459 686 OFFCURVE",
"549 425 OFFCURVE",
"368 342 CURVE",
"319 341 OFFCURVE",
"249 342 OFFCURVE",
"200 357 CURVE"
);
},
{
closed = 1;
nodes = (
"157 0 LINE",
"329 0 LINE",
"334 46 LINE",
"211 60 LINE"
);
}
);
width = 567;
}
);
leftKerningGroup = I;
rightKerningGroup = T;
unicode = 0050;
},
{
glyphname = P.001;
lastChange = "2017-02-19 14:03:58 +0000";
layers = (
{
layerId = "71FD7A9F-05F5-4D76-8D4F-547475A05E4C";
width = 503;
},
{
background = {
components = (
{
name = R;
transform = "{1, 0, 0, 1, -25, 0}";
}
);
};
guideLines = (
{
angle = 84;
position = "{597, 311}";
}
);
layerId = "977FCFA9-45AC-4A33-B2D7-4D17E6BBF8E0";
paths = (
{
closed = 1;
nodes = (
"190 241 LINE",
"220 229 OFFCURVE",
"279 232 OFFCURVE",
"315 237 CURVE",
"560 285 OFFCURVE",
"634 567 OFFCURVE",
"468 648 CURVE SMOOTH",
"372 694 OFFCURVE",
"214 689 OFFCURVE",
"50 678 CURVE",
"226 601 LINE",
"442 637 OFFCURVE",
"470 402 OFFCURVE",
"333 327 CURVE",
"308 319 OFFCURVE",
"234 318 OFFCURVE",
"200 342 CURVE"
);
},
{
closed = 1;
nodes = (
"84 0 LINE",
"276 0 LINE",
"286 53 LINE",
"154 75 LINE"
);
},
{
closed = 1;
nodes = (
"50 678 LINE",
"40 623 LINE",
"95 612 LINE",
"104 587 OFFCURVE",
"97 512 OFFCURVE",
"87 407 CURVE SMOOTH",
"67 197 OFFCURVE",
"46 114 OFFCURVE",
"51 98 CURVE SMOOTH",
"52 86 OFFCURVE",
"67 71 OFFCURVE",
"96 65 CURVE",
"-12 55 LINE",
"-19 0 LINE",
"263 1 LINE",
"272 54 LINE",
"215 64 LINE",
"182 123 OFFCURVE",
"206 314 OFFCURVE",
"211 360 CURVE SMOOTH",
"225 495 OFFCURVE",
"237 567 OFFCURVE",
"252 588 CURVE SMOOTH",
"264 608 OFFCURVE",
"288 621 OFFCURVE",
"311 623 CURVE",
"317 678 LINE"
);
}
);
width = 531;
},
{
anchors = (
{
name = bottom;
position = "{334, 0}";
},
{
name = top;
position = "{334, 700}";
}
);
background = {
components = (
{
name = R;
transform = "{1, 0, 0, 1, 35, 0}";
}
);
};
components = (
{
name = _part.stem.cap;
transform = "{1, 0, 0, 1, -170, 0}";
piece = {
"BPR?" = 1;
};
}
);
layerId = "11343128-4963-4E5D-BE9C-B74F53B36FA5";
paths = (
{
closed = 1;
nodes = (
"257 274 LINE",
"288 262 OFFCURVE",
"358 261 OFFCURVE",
"393 266 CURVE",
"634 314 OFFCURVE",
"668 575 OFFCURVE",
"493 655 CURVE SMOOTH",
"395 700 OFFCURVE",
"245 689 OFFCURVE",
"82 678 CURVE",
"259 600 LINE",
"461 632 OFFCURVE",
"478 415 OFFCURVE",
"395 361 CURVE",
"370 353 OFFCURVE",
"285 356 OFFCURVE",
"248 373 CURVE"
);
},
{
closed = 1;
nodes = (
"177 0 LINE",
"399 0 LINE",
"405 66 LINE",
"257 83 LINE"
);
}
);
width = 577;
},
{
anchors = (
{
name = bottom;
position = "{304, 0}";
},
{
name = top;
position = "{304, 708}";
}
);
background = {
paths = (
{
closed = 1;
nodes = (
"272 680 OFFCURVE",
"192 670 OFFCURVE",
"131 670 CURVE SMOOTH",
"61 670 LINE",
"56 640 LINE",
"79 630 OFFCURVE",
"104 621 OFFCURVE",
"131 615 CURVE",
"131 55 LINE",
"104 49 OFFCURVE",
"79 40 OFFCURVE",
"56 30 CURVE",
"56 0 LINE",
"321 0 LINE",
"326 30 LINE",
"210 45 LINE",
"214 71 OFFCURVE",
"216 98 OFFCURVE",
"216 130 CURVE SMOOTH",
"216 622 LINE",
"246 624 OFFCURVE",
"277 625 OFFCURVE",
"313 625 CURVE SMOOTH",
"396 625 OFFCURVE",
"466 580 OFFCURVE",
"466 470 CURVE SMOOTH",
"466 402 OFFCURVE",
"442 363 OFFCURVE",
"442 363 CURVE",
"404 340 OFFCURVE",
"361 340 OFFCURVE",
"313 340 CURVE SMOOTH",
"261 340 LINE",
"256 294 LINE",
"281 291 OFFCURVE",
"318 289 OFFCURVE",
"343 289 CURVE SMOOTH",
"455 289 OFFCURVE",
"551 350 OFFCURVE",
"551 480 CURVE SMOOTH",
"551 615 OFFCURVE",
"455 680 OFFCURVE",
"343 680 CURVE SMOOTH"
);
}
);
};
components = (
{
name = _part.stem.cap;
transform = "{1, 0, 0, 1, -117, 0}";
piece = {
"BPR?" = 1;
};
}
);
layerId = "0B1F8F77-7348-4C28-A663-EA76351238C4";
paths = (
{
closed = 1;
nodes = (
"192 299 LINE",
"223 287 OFFCURVE",
"316 288 OFFCURVE",
"351 293 CURVE",
"570 328 OFFCURVE",
"609 595 OFFCURVE",
"425 661 CURVE SMOOTH",
"327 696 OFFCURVE",
"250 687 OFFCURVE",
"69 680 CURVE",
"218 628 LINE",
"459 686 OFFCURVE",
"549 425 OFFCURVE",
"368 342 CURVE",
"319 341 OFFCURVE",
"249 342 OFFCURVE",
"200 357 CURVE"
);
},
{
closed = 1;
nodes = (
"157 0 LINE",
"329 0 LINE",
"334 46 LINE",
"211 60 LINE"
);
}
);
width = 567;
}
);
leftKerningGroup = I;
rightKerningGroup = T;
},
{
glyphname = Thorn;
lastChange = "2017-02-19 13:34:18 +0000";
layers = (
{
layerId = "71FD7A9F-05F5-4D76-8D4F-547475A05E4C";
paths = (
{
closed = 1;
nodes = (
"49 679 LINE",
"40 622 LINE",
"86 613 LINE",
"96 588 OFFCURVE",
"93 480 OFFCURVE",
"82 389 CURVE SMOOTH",
"66 254 OFFCURVE",
"41 114 OFFCURVE",
"46 98 CURVE SMOOTH",
"46 89 OFFCURVE",
"53 72 OFFCURVE",
"91 60 CURVE",
"-15 60 LINE",
"-21 0 LINE",
"261 1 LINE",
"267 58 LINE",
"211 66 LINE",
"177 125 OFFCURVE",
"195 292 OFFCURVE",
"206 414 CURVE SMOOTH",
"216 527 OFFCURVE",
"229 568 OFFCURVE",
"243 589 CURVE SMOOTH",
"255 609 OFFCURVE",
"272 618 OFFCURVE",
"295 620 CURVE",
"301 680 LINE"
);
},
{
closed = 1;
nodes = (
"176 150 LINE",
"210 139 OFFCURVE",
"256 131 OFFCURVE",
"292 136 CURVE",
"539 184 OFFCURVE",
"597 434 OFFCURVE",
"428 515 CURVE SMOOTH",
"374 542 OFFCURVE",
"300 545 OFFCURVE",
"218 539 CURVE",
"207 469 LINE",
"385 496 OFFCURVE",
"439 282 OFFCURVE",
"313 216 CURVE",
"279 213 OFFCURVE",
"223 214 OFFCURVE",
"185 233 CURVE"
);
}
);
width = 512;
},
{
layerId = "977FCFA9-45AC-4A33-B2D7-4D17E6BBF8E0";
paths = (
{
closed = 1;
nodes = (
"74 679 LINE",
"65 622 LINE",
"111 613 LINE",
"121 588 OFFCURVE",
"118 480 OFFCURVE",
"107 389 CURVE SMOOTH",
"91 254 OFFCURVE",
"66 114 OFFCURVE",
"71 98 CURVE SMOOTH",
"71 89 OFFCURVE",
"78 72 OFFCURVE",
"116 60 CURVE",
"10 60 LINE",
"4 0 LINE",
"286 1 LINE",
"292 58 LINE",
"236 66 LINE",
"202 125 OFFCURVE",
"220 292 OFFCURVE",
"231 414 CURVE SMOOTH",
"241 527 OFFCURVE",
"254 568 OFFCURVE",
"268 589 CURVE SMOOTH",
"280 609 OFFCURVE",
"297 618 OFFCURVE",
"320 620 CURVE",
"326 680 LINE"
);
},
{
closed = 1;
nodes = (
"201 150 LINE",
"235 139 OFFCURVE",
"281 131 OFFCURVE",
"317 136 CURVE",
"564 184 OFFCURVE",
"622 434 OFFCURVE",
"453 515 CURVE SMOOTH",
"399 542 OFFCURVE",
"325 545 OFFCURVE",
"243 539 CURVE",
"232 469 LINE",
"410 496 OFFCURVE",
"464 282 OFFCURVE",
"338 216 CURVE",
"304 213 OFFCURVE",
"248 214 OFFCURVE",
"210 233 CURVE"
);
}
);
width = 566;
},
{
anchors = (
{
name = bottom;
position = "{295, 0}";
},
{
name = top;
position = "{295, 700}";
}
);
background = {
paths = (
{
closed = 1;
nodes = (
"222 138 LINE",
"253 127 OFFCURVE",
"312 129 OFFCURVE",
"347 134 CURVE",
"588 179 OFFCURVE",
"637 448 OFFCURVE",
"462 524 CURVE SMOOTH",
"400 551 OFFCURVE",
"314 559 OFFCURVE",
"218 559 CURVE",
"225 476 LINE",
"439 510 OFFCURVE",
"488 288 OFFCURVE",
"359 218 CURVE",
"334 210 OFFCURVE",
"260 217 OFFCURVE",
"223 239 CURVE"
);
},
{
closed = 1;
nodes = (
"43 680 LINE",
"38 625 LINE",
"93 614 LINE",
"105 589 OFFCURVE",
"105 514 OFFCURVE",
"105 387 CURVE SMOOTH",
"105 177 OFFCURVE",
"90 114 OFFCURVE",
"95 98 CURVE SMOOTH",
"99 86 OFFCURVE",
"115 71 OFFCURVE",
"144 65 CURVE",
"37 55 LINE",
"35 0 LINE",
"316 1 LINE",
"321 54 LINE",
"263 64 LINE",
"225 123 OFFCURVE",
"233 287 OFFCURVE",
"233 333 CURVE SMOOTH",
"233 490 OFFCURVE",
"240 569 OFFCURVE",
"253 590 CURVE SMOOTH",
"263 610 OFFCURVE",
"286 623 OFFCURVE",
"309 625 CURVE",
"310 680 LINE"
);
}
);
};
components = (
{
name = _part.stem.cap;
transform = "{1, 0, 0, 1, -170, 0}";
piece = {
"BPR?" = 1;
};
}
);
layerId = "11343128-4963-4E5D-BE9C-B74F53B36FA5";
paths = (
{
closed = 1;
nodes = (
"257 142 LINE",
"288 130 OFFCURVE",
"358 129 OFFCURVE",
"393 134 CURVE",
"634 182 OFFCURVE",
"668 443 OFFCURVE",
"493 523 CURVE SMOOTH",
"419 557 OFFCURVE",
"314 559 OFFCURVE",
"197 553 CURVE",
"259 468 LINE",
"461 500 OFFCURVE",
"478 283 OFFCURVE",
"395 229 CURVE",
"370 221 OFFCURVE",
"285 224 OFFCURVE",
"248 241 CURVE"
);
},
{
closed = 1;
nodes = (
"177 0 LINE",
"394 0 LINE",
"400 66 LINE",
"257 83 LINE"
);
},
{
closed = 1;
nodes = (
"387 613 LINE",
"393 680 LINE",
"174 680 LINE",
"254 596 LINE"
);
}
);
width = 577;
},
{
anchors = (
{
name = bottom;
position = "{295, 0}";
},
{
name = top;
position = "{295, 700}";
}
);
components = (
{
name = _part.stem.cap;
transform = "{1, 0, 0, 1, -136, 0}";
piece = {
"BPR?" = 1;
};
}
);
guideLines = (
{
position = "{556, 549}";
}
);
layerId = "0B1F8F77-7348-4C28-A663-EA76351238C4";
paths = (
{
closed = 1;
nodes = (
"173 163 LINE",
"204 151 OFFCURVE",
"297 152 OFFCURVE",
"332 157 CURVE",
"551 192 OFFCURVE",
"590 460 OFFCURVE",
"406 525 CURVE SMOOTH",
"332 551 OFFCURVE",
"270 553 OFFCURVE",
"166 549 CURVE",
"199 492 LINE",
"440 550 OFFCURVE",
"530 289 OFFCURVE",
"349 206 CURVE",
"300 205 OFFCURVE",
"230 206 OFFCURVE",
"181 221 CURVE"
);
},
{
closed = 1;
nodes = (
"130 0 LINE",
"302 0 LINE",
"307 46 LINE",
"184 60 LINE"
);
},
{
closed = 1;
nodes = (
"293 634 LINE",
"298 680 LINE",
"122 680 LINE",
"176 620 LINE"
);
}
);
width = 589;
}
);
leftKerningGroup = I;
rightKerningGroup = B;
unicode = 00DE;
},
{
glyphname = Q;
lastChange = "2017-02-19 15:52:21 +0000";
layers = (
{
layerId = "71FD7A9F-05F5-4D76-8D4F-547475A05E4C";
width = 809;
},
{
background = {
paths = (
{
closed = 1;
nodes = (
"360 -45 OFFCURVE",
"563 -202 OFFCURVE",
"671 -191 CURVE",
"724 -169 OFFCURVE",
"772 -133 OFFCURVE",
"794 -106 CURVE",
"767 -56 LINE",
"751 -71 OFFCURVE",
"732 -83 OFFCURVE",
"717 -88 CURVE",
"653 -73 OFFCURVE",
"307 61 OFFCURVE",
"271 138 CURVE",
"220 109 LINE"
);
},
{
closed = 1;
nodes = (
"564 683 OFFCURVE",
"477 727 OFFCURVE",
"343 709 CURVE",
"54 647 OFFCURVE",
"-5 244 OFFCURVE",
"129 81 CURVE SMOOTH",
"200 -7 OFFCURVE",
"309 -28 OFFCURVE",
"426 0 CURVE",
"681 77 OFFCURVE",
"752 439 OFFCURVE",
"615 616 CURVE SMOOTH"
);
},
{
closed = 1;
nodes = (
"340 58 OFFCURVE",
"287 99 OFFCURVE",
"252 176 CURVE SMOOTH",
"178 333 OFFCURVE",
"206 545 OFFCURVE",
"346 626 CURVE",
"405 626 OFFCURVE",
"455 608 OFFCURVE",
"495 519 CURVE SMOOTH",
"563 371 OFFCURVE",
"538 146 OFFCURVE",
"400 59 CURVE"
);
}
);
};
components = (
{
name = O;
}
);
layerId = "977FCFA9-45AC-4A33-B2D7-4D17E6BBF8E0";
paths = (
{
closed = 1;
nodes = (
"353 -52 OFFCURVE",
"553 -209 OFFCURVE",
"662 -198 CURVE",
"715 -176 OFFCURVE",
"764 -140 OFFCURVE",
"786 -113 CURVE",
"760 -63 LINE",
"744 -78 OFFCURVE",
"724 -90 OFFCURVE",
"709 -95 CURVE",
"646 -80 OFFCURVE",
"354 16 OFFCURVE",
"297 93 CURVE",
"216 102 LINE"
);
}
);
width = 823;
},
{
anchors = (
{
name = bottom;
position = "{362, 0}";
},
{
name = top;
position = "{362, 700}";
}
);
components = (
{
name = O;
}
);
layerId = "11343128-4963-4E5D-BE9C-B74F53B36FA5";
paths = (
{
closed = 1;
nodes = (
"365 -49 OFFCURVE",
"540 -195 OFFCURVE",
"634 -211 CURVE",
"749 -115 LINE",
"741 -93 LINE",
"579 -61 OFFCURVE",
"427 10 OFFCURVE",
"367 69 CURVE",
"214 105 LINE"
);
}
);
width = 704;
},
{
anchors = (
{
name = bottom;
position = "{362, 0}";
},
{
name = top;
position = "{362, 708}";
}
);
components = (
{
name = O;
}
);
layerId = "0B1F8F77-7348-4C28-A663-EA76351238C4";
paths = (
{
closed = 1;
nodes = (
"417 -83 OFFCURVE",
"558 -188 OFFCURVE",
"652 -204 CURVE",
"718 -149 LINE",
"711 -132 LINE",
"561 -112 OFFCURVE",
"434 -20 OFFCURVE",
"357 39 CURVE",
"305 49 LINE"
);
}
);
width = 703;
}
);
leftKerningGroup = O;
leftMetricsKey = O;
rightKerningGroup = O;
unicode = 0051;
},
{
glyphname = R;
lastChange = "2017-02-19 18:44:43 +0000";
layers = (
{
layerId = "71FD7A9F-05F5-4D76-8D4F-547475A05E4C";
width = 579;
},
{
anchors = (
{
name = bottom;
position = "{257, 0}";
},
{
name = top;
position = "{307, 649}";
}
);
background = {
paths = (
{
closed = 1;
nodes = (
"376 288 LINE",
"481 318 OFFCURVE",
"558 436 OFFCURVE",
"538 551 CURVE SMOOTH",
"502 754 OFFCURVE",
"182 703 OFFCURVE",
"58 699 CURVE",
"51 644 LINE",
"98 635 LINE",
"109 595 OFFCURVE",
"103 466 OFFCURVE",
"88 326 CURVE SMOOTH",
"70 158 OFFCURVE",
"58 103 OFFCURVE",
"63 92 CURVE SMOOTH",
"66 83 OFFCURVE",
"98 57 OFFCURVE",
"122 57 CURVE",
"4 58 LINE",
"-2 0 LINE",
"269 0 LINE",
"277 54 LINE",
"228 62 LINE",
"207 115 OFFCURVE",
"200 157 OFFCURVE",
"211 285 CURVE",
"230 283 OFFCURVE",
"288 283 OFFCURVE",
"311 284 CURVE"
);
},
{
closed = 1;
nodes = (
"221 469 OFFCURVE",
"231 546 OFFCURVE",
"248 622 CURVE",
"427 635 OFFCURVE",
"446 402 OFFCURVE",
"332 361 CURVE",
"312 361 OFFCURVE",
"263 356 OFFCURVE",
"213 374 CURVE"
);
},
{
closed = 1;
nodes = (
"287 288 LINE",
"292 270 OFFCURVE",
"335 60 OFFCURVE",
"373 32 CURVE SMOOTH",
"382 25 OFFCURVE",
"451 -3 OFFCURVE",
"504 -3 CURVE",
"537 5 OFFCURVE",
"574 26 OFFCURVE",
"579 29 CURVE",
"565 82 LINE",
"550 76 OFFCURVE",
"531 72 OFFCURVE",
"520 71 CURVE",
"467 127 OFFCURVE",
"417 226 OFFCURVE",
"393 324 CURVE"
);
}
);
};
guideLines = (
{
position = "{475, 480}";
}
);
layerId = "977FCFA9-45AC-4A33-B2D7-4D17E6BBF8E0";
paths = (
{
closed = 1;
nodes = (
"295 290 LINE",
"300 272 OFFCURVE",
"364 53 OFFCURVE",
"399 22 CURVE SMOOTH",
"408 14 OFFCURVE",
"429 -8 OFFCURVE",
"467 -8 CURVE",
"584 1 LINE",
"589 54 LINE",
"549 59 LINE",
"497 115 OFFCURVE",
"435 212 OFFCURVE",
"399 310 CURVE"
);
},
{
closed = 1;
nodes = (
"199 285 LINE",
"205 282 OFFCURVE",
"278 283 OFFCURVE",
"305 284 CURVE",
"381 293 LINE",
"488 345 OFFCURVE",
"558 437 OFFCURVE",
"540 552 CURVE SMOOTH",
"510 747 OFFCURVE",
"132 679 OFFCURVE",
"50 678 CURVE",
"225 614 LINE",
"427 653 OFFCURVE",
"449 404 OFFCURVE",
"326 361 CURVE",
"303 361 OFFCURVE",
"245 354 OFFCURVE",
"187 381 CURVE"
);
},
{
closed = 1;
nodes = (
"50 678 LINE",
"40 623 LINE",
"95 612 LINE",
"104 587 OFFCURVE",
"97 512 OFFCURVE",
"87 407 CURVE SMOOTH",
"67 197 OFFCURVE",
"46 114 OFFCURVE",
"51 98 CURVE SMOOTH",
"52 86 OFFCURVE",
"67 71 OFFCURVE",
"96 65 CURVE",
"-12 55 LINE",
"-19 0 LINE",
"262 1 LINE",
"272 54 LINE",
"215 64 LINE",
"182 123 OFFCURVE",
"205 307 OFFCURVE",
"210 353 CURVE SMOOTH",
"224 488 OFFCURVE",
"237 567 OFFCURVE",
"252 588 CURVE SMOOTH",
"264 608 OFFCURVE",
"288 621 OFFCURVE",
"311 623 CURVE",
"317 678 LINE"
);
}
);
width = 609;
},
{
anchors = (
{
name = bottom;
position = "{346, 0}";
},
{
name = top;
position = "{320, 700}";
}
);
background = {
paths = (
{
closed = 1;
nodes = (
"252 283 LINE",
"258 280 OFFCURVE",
"331 281 OFFCURVE",
"358 282 CURVE",
"441 291 LINE",
"544 343 OFFCURVE",
"608 425 OFFCURVE",
"580 540 CURVE SMOOTH",
"531 743 OFFCURVE",
"253 684 OFFCURVE",
"55 678 CURVE",
"244 600 LINE",
"441 633 OFFCURVE",
"480 408 OFFCURVE",
"363 363 CURVE",
"340 363 OFFCURVE",
"292 357 OFFCURVE",
"232 382 CURVE"
);
},
{
closed = 1;
nodes = (
"299 332 LINE",
"353 231 OFFCURVE",
"436 69 OFFCURVE",
"485 0 CURVE",
"676 0 LINE",
"684 64 LINE",
"598 86 LINE",
"543 152 OFFCURVE",
"450 273 OFFCURVE",
"418 330 CURVE"
);
}
);
};
components = (
{
name = _part.stem.cap;
transform = "{1, 0, 0, 1, -182, 0}";
piece = {
"BPR?" = 1;
};
}
);
layerId = "11343128-4963-4E5D-BE9C-B74F53B36FA5";
paths = (
{
closed = 1;
nodes = (
"252 283 LINE",
"258 280 OFFCURVE",
"331 281 OFFCURVE",
"358 282 CURVE",
"441 291 LINE",
"544 343 OFFCURVE",
"608 425 OFFCURVE",
"580 540 CURVE SMOOTH",
"531 743 OFFCURVE",
"253 684 OFFCURVE",
"55 678 CURVE",
"244 600 LINE",
"441 633 OFFCURVE",
"480 408 OFFCURVE",
"363 363 CURVE",
"340 363 OFFCURVE",
"292 357 OFFCURVE",
"232 382 CURVE"
);
},
{
closed = 1;
nodes = (
"299 332 LINE",
"353 231 OFFCURVE",
"423 69 OFFCURVE",
"467 0 CURVE",
"666 0 LINE",
"674 65 LINE",
"601 83 LINE",
"545 149 OFFCURVE",
"450 273 OFFCURVE",
"418 330 CURVE"
);
}
);
width = 679;
},
{
anchors = (
{
name = bottom;
position = "{327, 0}";
},
{
name = top;
position = "{301, 708}";
}
);
background = {
paths = (
{
closed = 1;
nodes = (
"636 30 LINE",
"569 47 LINE",
"386 303 LINE",
"473 318 OFFCURVE",
"544 378 OFFCURVE",
"544 485 CURVE SMOOTH",
"544 615 OFFCURVE",
"448 680 OFFCURVE",
"341 680 CURVE SMOOTH",
"270 680 OFFCURVE",
"190 670 OFFCURVE",
"129 670 CURVE SMOOTH",
"59 670 LINE",
"54 640 LINE",
"77 630 OFFCURVE",
"102 621 OFFCURVE",
"129 615 CURVE",
"129 55 LINE",
"102 49 OFFCURVE",
"77 40 OFFCURVE",
"54 30 CURVE",
"54 0 LINE",
"279 0 LINE",
"284 30 LINE",
"208 42 LINE",
"212 69 OFFCURVE",
"214 97 OFFCURVE",
"214 130 CURVE SMOOTH",
"214 305 LINE",
"243 303 OFFCURVE",
"273 301 OFFCURVE",
"303 300 CURVE",
"501 0 LINE",
"631 0 LINE"
);
},
{
closed = 1;
nodes = (
"214 622 LINE",
"244 624 OFFCURVE",
"275 625 OFFCURVE",
"311 625 CURVE SMOOTH",
"389 625 OFFCURVE",
"459 580 OFFCURVE",
"459 475 CURVE SMOOTH",
"459 412 OFFCURVE",
"435 373 OFFCURVE",
"435 373 CURVE",
"397 350 OFFCURVE",
"354 354 OFFCURVE",
"311 354 CURVE SMOOTH",
"275 354 OFFCURVE",
"244 355 OFFCURVE",
"214 357 CURVE"
);
}
);
};
components = (
{
name = _part.stem.cap;
transform = "{1, 0, 0, 1, -122, 0}";
piece = {
"BPR?" = 1;
};
}
);
layerId = "0B1F8F77-7348-4C28-A663-EA76351238C4";
paths = (
{
closed = 1;
nodes = (
"195 309 LINE",
"201 306 OFFCURVE",
"314 303 OFFCURVE",
"341 304 CURVE",
"399 319 LINE",
"480 338 OFFCURVE",
"556 434 OFFCURVE",
"526 549 CURVE SMOOTH",
"479 727 OFFCURVE",
"245 685 OFFCURVE",
"66 679 CURVE",
"213 630 LINE",
"463 690 OFFCURVE",
"530 426 OFFCURVE",
"364 352 CURVE",
"320 351 OFFCURVE",
"249 351 OFFCURVE",
"205 365 CURVE"
);
},
{
closed = 1;
nodes = (
"298 327 LINE",
"357 226 OFFCURVE",
"446 69 OFFCURVE",
"489 0 CURVE",
"616 0 LINE",
"621 44 LINE",
"552 61 LINE",
"506 122 OFFCURVE",
"404 269 OFFCURVE",
"365 326 CURVE"
);
}
);
width = 631;
}
);
leftKerningGroup = I;
leftMetricsKey = I;
rightKerningGroup = B;
unicode = 0052;
},
{
glyphname = R.001;
lastChange = "2017-02-19 14:03:58 +0000";
layers = (
{
layerId = "71FD7A9F-05F5-4D76-8D4F-547475A05E4C";
width = 579;
},
{
anchors = (
{
name = bottom;
position = "{257, 0}";
},
{
name = top;
position = "{307, 649}";
}
);
background = {
paths = (
{
closed = 1;
nodes = (
"376 288 LINE",
"481 318 OFFCURVE",
"558 436 OFFCURVE",
"538 551 CURVE SMOOTH",
"502 754 OFFCURVE",
"182 703 OFFCURVE",
"58 699 CURVE",
"51 644 LINE",
"98 635 LINE",
"109 595 OFFCURVE",
"103 466 OFFCURVE",
"88 326 CURVE SMOOTH",
"70 158 OFFCURVE",
"58 103 OFFCURVE",
"63 92 CURVE SMOOTH",
"66 83 OFFCURVE",
"98 57 OFFCURVE",
"122 57 CURVE",
"4 58 LINE",
"-2 0 LINE",
"269 0 LINE",
"277 54 LINE",
"228 62 LINE",
"207 115 OFFCURVE",
"200 157 OFFCURVE",
"211 285 CURVE",
"230 283 OFFCURVE",
"288 283 OFFCURVE",
"311 284 CURVE"
);
},
{
closed = 1;
nodes = (
"221 469 OFFCURVE",
"231 546 OFFCURVE",
"248 622 CURVE",
"427 635 OFFCURVE",
"446 402 OFFCURVE",
"332 361 CURVE",
"312 361 OFFCURVE",
"263 356 OFFCURVE",
"213 374 CURVE"
);
},
{
closed = 1;
nodes = (
"287 288 LINE",
"292 270 OFFCURVE",
"335 60 OFFCURVE",
"373 32 CURVE SMOOTH",
"382 25 OFFCURVE",
"451 -3 OFFCURVE",
"504 -3 CURVE",
"537 5 OFFCURVE",
"574 26 OFFCURVE",
"579 29 CURVE",
"565 82 LINE",
"550 76 OFFCURVE",
"531 72 OFFCURVE",
"520 71 CURVE",
"467 127 OFFCURVE",
"417 226 OFFCURVE",
"393 324 CURVE"
);
}
);
};
guideLines = (
{
position = "{475, 480}";
}
);
layerId = "977FCFA9-45AC-4A33-B2D7-4D17E6BBF8E0";
paths = (
{
closed = 1;
nodes = (
"295 290 LINE",
"300 272 OFFCURVE",
"364 53 OFFCURVE",
"399 22 CURVE SMOOTH",
"408 14 OFFCURVE",
"429 -8 OFFCURVE",
"467 -8 CURVE",
"584 1 LINE",
"589 54 LINE",
"549 59 LINE",
"497 115 OFFCURVE",
"435 212 OFFCURVE",
"399 310 CURVE"
);
},
{
closed = 1;
nodes = (
"199 285 LINE",
"205 282 OFFCURVE",
"278 283 OFFCURVE",
"305 284 CURVE",
"381 293 LINE",
"488 345 OFFCURVE",
"558 437 OFFCURVE",
"540 552 CURVE SMOOTH",
"510 747 OFFCURVE",
"132 679 OFFCURVE",
"50 678 CURVE",
"225 614 LINE",
"427 653 OFFCURVE",
"449 404 OFFCURVE",
"326 361 CURVE",
"303 361 OFFCURVE",
"245 354 OFFCURVE",
"187 381 CURVE"
);
},
{
closed = 1;
nodes = (
"50 678 LINE",
"40 623 LINE",
"95 612 LINE",
"104 587 OFFCURVE",
"97 512 OFFCURVE",
"87 407 CURVE SMOOTH",
"67 197 OFFCURVE",
"46 114 OFFCURVE",
"51 98 CURVE SMOOTH",
"52 86 OFFCURVE",
"67 71 OFFCURVE",
"96 65 CURVE",
"-12 55 LINE",
"-19 0 LINE",
"262 1 LINE",
"272 54 LINE",
"215 64 LINE",
"182 123 OFFCURVE",
"205 307 OFFCURVE",
"210 353 CURVE SMOOTH",
"224 488 OFFCURVE",
"237 567 OFFCURVE",
"252 588 CURVE SMOOTH",
"264 608 OFFCURVE",
"288 621 OFFCURVE",
"311 623 CURVE",
"317 678 LINE"
);
}
);
width = 609;
},
{
anchors = (
{
name = bottom;
position = "{358, 0}";
},
{
name = top;
position = "{332, 700}";
}
);
background = {
components = (
{
name = P;
transform = "{1, 0, 0, 1, 35, 0}";
}
);
};
components = (
{
name = _part.stem.cap;
transform = "{1, 0, 0, 1, -170, 0}";
piece = {
"BPR?" = 1;
};
}
);
layerId = "11343128-4963-4E5D-BE9C-B74F53B36FA5";
paths = (
{
closed = 1;
nodes = (
"264 283 LINE",
"270 280 OFFCURVE",
"343 281 OFFCURVE",
"370 282 CURVE",
"453 291 LINE",
"556 343 OFFCURVE",
"620 425 OFFCURVE",
"592 540 CURVE SMOOTH",
"543 743 OFFCURVE",
"265 684 OFFCURVE",
"67 678 CURVE",
"256 600 LINE",
"453 633 OFFCURVE",
"492 408 OFFCURVE",
"375 363 CURVE",
"352 363 OFFCURVE",
"304 357 OFFCURVE",
"244 382 CURVE"
);
},
{
closed = 1;
nodes = (
"311 332 LINE",
"365 231 OFFCURVE",
"448 69 OFFCURVE",
"497 0 CURVE",
"688 0 LINE",
"696 66 LINE",
"655 68 OFFCURVE",
"619 83 OFFCURVE",
"579 131 CURVE SMOOTH",
"524 197 OFFCURVE",
"462 273 OFFCURVE",
"430 330 CURVE"
);
}
);
width = 677;
},
{
anchors = (
{
name = bottom;
position = "{327, 0}";
},
{
name = top;
position = "{301, 708}";
}
);
background = {
paths = (
{
closed = 1;
nodes = (
"636 30 LINE",
"569 47 LINE",
"386 303 LINE",
"473 318 OFFCURVE",
"544 378 OFFCURVE",
"544 485 CURVE SMOOTH",
"544 615 OFFCURVE",
"448 680 OFFCURVE",
"341 680 CURVE SMOOTH",
"270 680 OFFCURVE",
"190 670 OFFCURVE",
"129 670 CURVE SMOOTH",
"59 670 LINE",
"54 640 LINE",
"77 630 OFFCURVE",
"102 621 OFFCURVE",
"129 615 CURVE",
"129 55 LINE",
"102 49 OFFCURVE",
"77 40 OFFCURVE",
"54 30 CURVE",
"54 0 LINE",
"279 0 LINE",
"284 30 LINE",
"208 42 LINE",
"212 69 OFFCURVE",
"214 97 OFFCURVE",
"214 130 CURVE SMOOTH",
"214 305 LINE",
"243 303 OFFCURVE",
"273 301 OFFCURVE",
"303 300 CURVE",
"501 0 LINE",
"631 0 LINE"
);
},
{
closed = 1;
nodes = (
"214 622 LINE",
"244 624 OFFCURVE",
"275 625 OFFCURVE",
"311 625 CURVE SMOOTH",
"389 625 OFFCURVE",
"459 580 OFFCURVE",
"459 475 CURVE SMOOTH",
"459 412 OFFCURVE",
"435 373 OFFCURVE",
"435 373 CURVE",
"397 350 OFFCURVE",
"354 354 OFFCURVE",
"311 354 CURVE SMOOTH",
"275 354 OFFCURVE",
"244 355 OFFCURVE",
"214 357 CURVE"
);
}
);
};
components = (
{
name = _part.stem.cap;
transform = "{1, 0, 0, 1, -122, 0}";
piece = {
"BPR?" = 1;
};
}
);
layerId = "0B1F8F77-7348-4C28-A663-EA76351238C4";
paths = (
{
closed = 1;
nodes = (
"195 309 LINE",
"201 306 OFFCURVE",
"314 303 OFFCURVE",
"341 304 CURVE",
"399 319 LINE",
"480 338 OFFCURVE",
"556 434 OFFCURVE",
"526 549 CURVE SMOOTH",
"479 727 OFFCURVE",
"245 685 OFFCURVE",
"66 679 CURVE",
"213 630 LINE",
"463 690 OFFCURVE",
"530 426 OFFCURVE",
"364 352 CURVE",
"320 351 OFFCURVE",
"249 351 OFFCURVE",
"205 365 CURVE"
);
},
{
closed = 1;
nodes = (
"297 327 LINE",
"356 226 OFFCURVE",
"454 69 OFFCURVE",
"499 0 CURVE",
"626 0 LINE",
"631 46 LINE",
"587 48 OFFCURVE",
"565 60 OFFCURVE",
"518 118 CURVE SMOOTH",
"468 179 OFFCURVE",
"404 269 OFFCURVE",
"365 326 CURVE"
);
}
);
width = 641;
}
);
leftKerningGroup = I;
rightKerningGroup = B;
},
{
glyphname = S;
lastChange = "2017-02-22 20:23:42 +0000";
layers = (
{
layerId = "71FD7A9F-05F5-4D76-8D4F-547475A05E4C";
width = 474;
},
{
anchors = (
{
name = bottom;
position = "{211, 0}";
},
{
name = top;
position = "{283, 656}";
}
);
background = {
paths = (
{
closed = 1;
nodes = (
"527 47 LINE",
"517 53 OFFCURVE",
"501 65 OFFCURVE",
"488 76 CURVE SMOOTH",
"459 100 OFFCURVE",
"400 211 OFFCURVE",
"318 349 CURVE SMOOTH",
"236 487 OFFCURVE",
"214 525 OFFCURVE",
"177 589 CURVE",
"244 589 OFFCURVE",
"362 585 OFFCURVE",
"430 579 CURVE",
"464 511 LINE",
"511 519 LINE",
"477 700 LINE",
"333 700 OFFCURVE",
"156 693 OFFCURVE",
"1 700 CURVE",
"-12 650 LINE",
"-1 645 OFFCURVE",
"12 635 OFFCURVE",
"29 620 CURVE SMOOTH",
"66 588 OFFCURVE",
"117 525 OFFCURVE",
"224 347 CURVE",
"298 213 OFFCURVE",
"320 172 OFFCURVE",
"346 114 CURVE",
"302 116 OFFCURVE",
"265 118 OFFCURVE",
"222 121 CURVE SMOOTH",
"124 128 OFFCURVE",
"85 143 OFFCURVE",
"71 188 CURVE",
"26 178 LINE",
"61 0 LINE",
"228 0 OFFCURVE",
"356 5 OFFCURVE",
"511 0 CURVE"
);
}
);
};
guideLines = (
{
position = "{4, 57}";
}
);
layerId = "977FCFA9-45AC-4A33-B2D7-4D17E6BBF8E0";
paths = (
{
closed = 1;
nodes = (
"218 -41 OFFCURVE",
"55 -15 OFFCURVE",
"-18 66 CURVE",
"-14 78 OFFCURVE",
"-2 166 OFFCURVE",
"7 200 CURVE",
"19 205 OFFCURVE",
"45 208 OFFCURVE",
"60 213 CURVE",
"79 116 OFFCURVE",
"178 78 OFFCURVE",
"268 75 CURVE",
"301 93 OFFCURVE",
"343 142 OFFCURVE",
"337 183 CURVE SMOOTH",
"331 224 OFFCURVE",
"275 257 OFFCURVE",
"198 302 CURVE SMOOTH",
"128 343 OFFCURVE",
"26 389 OFFCURVE",
"27 485 CURVE SMOOTH",
"28 615 OFFCURVE",
"125 678 OFFCURVE",
"243 691 CURVE SMOOTH",
"343 702 OFFCURVE",
"424 668 OFFCURVE",
"473 620 CURVE",
"469 592 OFFCURVE",
"458 510 OFFCURVE",
"454 481 CURVE",
"388 470 LINE",
"384 523 LINE",
"347 573 OFFCURVE",
"283 604 OFFCURVE",
"226 606 CURVE",
"185 592 OFFCURVE",
"154 545 OFFCURVE",
"165 501 CURVE SMOOTH",
"172 472 OFFCURVE",
"226 437 OFFCURVE",
"293 400 CURVE SMOOTH",
"360 363 OFFCURVE",
"469 311 OFFCURVE",
"469 203 CURVE SMOOTH",
"469 109 OFFCURVE",
"427 55 OFFCURVE",
"341 16 CURVE SMOOTH"
);
}
);
width = 474;
},
{
anchors = (
{
name = bottom;
position = "{288, 0}";
},
{
name = top;
position = "{280, 708}";
}
);
background = {
paths = (
{
closed = 1;
nodes = (
"61 619 OFFCURVE",
"39 557 OFFCURVE",
"39 497 CURVE SMOOTH",
"39 396 OFFCURVE",
"152 339 OFFCURVE",
"221 306 CURVE SMOOTH",
"326 256 OFFCURVE",
"395 224 OFFCURVE",
"395 146 CURVE SMOOTH",
"395 100 OFFCURVE",
"375 64 OFFCURVE",
"301 38 CURVE",
"244 38 OFFCURVE",
"173 45 OFFCURVE",
"132 92 CURVE",
"119 179 LINE",
"73 169 LINE",
"71 140 OFFCURVE",
"63 69 OFFCURVE",
"60 41 CURVE",
"113 -3 OFFCURVE",
"184 -20 OFFCURVE",
"282 -13 CURVE SMOOTH",
"405 -4 OFFCURVE",
"474 74 OFFCURVE",
"474 163 CURVE SMOOTH",
"474 263 OFFCURVE",
"379 313 OFFCURVE",
"305 351 CURVE SMOOTH",
"188 411 OFFCURVE",
"116 436 OFFCURVE",
"116 525 CURVE SMOOTH",
"116 567 OFFCURVE",
"135 601 OFFCURVE",
"210 637 CURVE",
"315 635 OFFCURVE",
"390 609 OFFCURVE",
"422 565 CURVE",
"425 545 OFFCURVE",
"426 522 OFFCURVE",
"430 494 CURVE",
"444 497 OFFCURVE",
"465 501 OFFCURVE",
"477 504 CURVE",
"481 538 OFFCURVE",
"490 599 OFFCURVE",
"491 611 CURVE",
"413 692 OFFCURVE",
"263 714 OFFCURVE",
"144 658 CURVE SMOOTH"
);
}
);
};
layerId = "0B1F8F77-7348-4C28-A663-EA76351238C4";
paths = (
{
closed = 1;
nodes = (
"489 56 OFFCURVE",
"511 118 OFFCURVE",
"511 178 CURVE SMOOTH",
"511 279 OFFCURVE",
"398 336 OFFCURVE",
"329 369 CURVE SMOOTH",
"224 420 OFFCURVE",
"155 451 OFFCURVE",
"155 529 CURVE SMOOTH",
"155 575 OFFCURVE",
"175 611 OFFCURVE",
"249 637 CURVE",
"306 637 OFFCURVE",
"376 630 OFFCURVE",
"417 583 CURVE",
"430 496 LINE",
"476 506 LINE",
"478 535 OFFCURVE",
"486 606 OFFCURVE",
"489 634 CURVE",
"436 678 OFFCURVE",
"366 695 OFFCURVE",
"268 688 CURVE SMOOTH",
"145 679 OFFCURVE",
"76 601 OFFCURVE",
"76 512 CURVE SMOOTH",
"76 412 OFFCURVE",
"170 360 OFFCURVE",
"244 322 CURVE SMOOTH",
"361 262 OFFCURVE",
"434 239 OFFCURVE",
"434 150 CURVE SMOOTH",
"434 108 OFFCURVE",
"400 64 OFFCURVE",
"341 42 CURVE",
"249 38 OFFCURVE",
"165 55 OFFCURVE",
"133 92 CURVE",
"121 180 LINE",
"74 170 LINE",
"70 136 OFFCURVE",
"61 55 OFFCURVE",
"60 43 CURVE",
"125 -19 OFFCURVE",
"287 -39 OFFCURVE",
"406 17 CURVE SMOOTH"
);
}
);
width = 571;
},
{
anchors = (
{
name = bottom;
position = "{276, 0}";
},
{
name = top;
position = "{276, 708}";
}
);
background = {
components = (
{
name = C;
transform = "{-1, 0, 0, -1, 623, 683}";
}
);
};
layerId = "11343128-4963-4E5D-BE9C-B74F53B36FA5";
paths = (
{
closed = 1;
nodes = (
"486 56 OFFCURVE",
"515 113 OFFCURVE",
"515 207 CURVE SMOOTH",
"514 321 OFFCURVE",
"386 374 OFFCURVE",
"317 408 CURVE SMOOTH",
"244 442 OFFCURVE",
"189 469 OFFCURVE",
"177 499 CURVE SMOOTH",
"160 542 OFFCURVE",
"199 579 OFFCURVE",
"245 597 CURVE",
"302 597 OFFCURVE",
"353 588 OFFCURVE",
"394 538 CURVE",
"406 450 LINE",
"480 463 LINE",
"482 492 OFFCURVE",
"490 604 OFFCURVE",
"493 632 CURVE",
"440 677 OFFCURVE",
"348 700 OFFCURVE",
"250 689 CURVE SMOOTH",
"133 676 OFFCURVE",
"49 612 OFFCURVE",
"48 482 CURVE SMOOTH",
"47 363 OFFCURVE",
"158 315 OFFCURVE",
"233 277 CURVE SMOOTH",
"313 235 OFFCURVE",
"372 214 OFFCURVE",
"384 174 CURVE SMOOTH",
"396 133 OFFCURVE",
"342 93 OFFCURVE",
"302 80 CURVE",
"250 77 OFFCURVE",
"190 87 OFFCURVE",
"140 139 CURVE",
"126 227 LINE",
"53 214 LINE",
"51 180 OFFCURVE",
"45 62 OFFCURVE",
"42 50 CURVE",
"113 -16 OFFCURVE",
"284 -40 OFFCURVE",
"403 17 CURVE SMOOTH"
);
}
);
width = 560;
}
);
unicode = 0053;
},
{
glyphname = S.001;
lastChange = "2017-02-19 14:03:58 +0000";
layers = (
{
layerId = "71FD7A9F-05F5-4D76-8D4F-547475A05E4C";
width = 474;
},
{
anchors = (
{
name = bottom;
position = "{211, 0}";
},
{
name = top;
position = "{283, 656}";
}
);
background = {
paths = (
{
closed = 1;
nodes = (
"527 47 LINE",
"517 53 OFFCURVE",
"501 65 OFFCURVE",
"488 76 CURVE SMOOTH",
"459 100 OFFCURVE",
"400 211 OFFCURVE",
"318 349 CURVE SMOOTH",
"236 487 OFFCURVE",
"214 525 OFFCURVE",
"177 589 CURVE",
"244 589 OFFCURVE",
"362 585 OFFCURVE",
"430 579 CURVE",
"464 511 LINE",
"511 519 LINE",
"477 700 LINE",
"333 700 OFFCURVE",
"156 693 OFFCURVE",
"1 700 CURVE",
"-12 650 LINE",
"-1 645 OFFCURVE",
"12 635 OFFCURVE",
"29 620 CURVE SMOOTH",
"66 588 OFFCURVE",
"117 525 OFFCURVE",
"224 347 CURVE",
"298 213 OFFCURVE",
"320 172 OFFCURVE",
"346 114 CURVE",
"302 116 OFFCURVE",
"265 118 OFFCURVE",
"222 121 CURVE SMOOTH",
"124 128 OFFCURVE",
"85 143 OFFCURVE",
"71 188 CURVE",
"26 178 LINE",
"61 0 LINE",
"228 0 OFFCURVE",
"356 5 OFFCURVE",
"511 0 CURVE"
);
}
);
};
guideLines = (
{
position = "{4, 57}";
}
);
layerId = "977FCFA9-45AC-4A33-B2D7-4D17E6BBF8E0";
paths = (
{
closed = 1;
nodes = (
"218 -41 OFFCURVE",
"55 -15 OFFCURVE",
"-18 66 CURVE",
"-14 78 OFFCURVE",
"-2 166 OFFCURVE",
"7 200 CURVE",
"19 205 OFFCURVE",
"45 208 OFFCURVE",
"60 213 CURVE",
"79 116 OFFCURVE",
"178 78 OFFCURVE",
"268 75 CURVE",
"301 93 OFFCURVE",
"343 142 OFFCURVE",
"337 183 CURVE SMOOTH",
"331 224 OFFCURVE",
"275 257 OFFCURVE",
"198 302 CURVE SMOOTH",
"128 343 OFFCURVE",
"26 389 OFFCURVE",
"27 485 CURVE SMOOTH",
"28 615 OFFCURVE",
"125 678 OFFCURVE",
"243 691 CURVE SMOOTH",
"343 702 OFFCURVE",
"424 668 OFFCURVE",
"473 620 CURVE",
"469 592 OFFCURVE",
"458 510 OFFCURVE",
"454 481 CURVE",
"388 470 LINE",
"384 523 LINE",
"347 573 OFFCURVE",
"283 604 OFFCURVE",
"226 606 CURVE",
"185 592 OFFCURVE",
"154 545 OFFCURVE",
"165 501 CURVE SMOOTH",
"172 472 OFFCURVE",
"226 437 OFFCURVE",
"293 400 CURVE SMOOTH",
"360 363 OFFCURVE",
"469 311 OFFCURVE",
"469 203 CURVE SMOOTH",
"469 109 OFFCURVE",
"427 55 OFFCURVE",
"341 16 CURVE SMOOTH"
);
}
);
width = 474;
},
{
anchors = (
{
name = bottom;
position = "{288, 0}";
},
{
name = top;
position = "{280, 708}";
}
);
background = {
paths = (
{
closed = 1;
nodes = (
"61 619 OFFCURVE",
"39 557 OFFCURVE",
"39 497 CURVE SMOOTH",
"39 396 OFFCURVE",
"152 339 OFFCURVE",
"221 306 CURVE SMOOTH",
"326 256 OFFCURVE",
"395 224 OFFCURVE",
"395 146 CURVE SMOOTH",
"395 100 OFFCURVE",
"375 64 OFFCURVE",
"301 38 CURVE",
"244 38 OFFCURVE",
"173 45 OFFCURVE",
"132 92 CURVE",
"119 179 LINE",
"73 169 LINE",
"71 140 OFFCURVE",
"63 69 OFFCURVE",
"60 41 CURVE",
"113 -3 OFFCURVE",
"184 -20 OFFCURVE",
"282 -13 CURVE SMOOTH",
"405 -4 OFFCURVE",
"474 74 OFFCURVE",
"474 163 CURVE SMOOTH",
"474 263 OFFCURVE",
"379 313 OFFCURVE",
"305 351 CURVE SMOOTH",
"188 411 OFFCURVE",
"116 436 OFFCURVE",
"116 525 CURVE SMOOTH",
"116 567 OFFCURVE",
"135 601 OFFCURVE",
"210 637 CURVE",
"315 635 OFFCURVE",
"390 609 OFFCURVE",
"422 565 CURVE",
"425 545 OFFCURVE",
"426 522 OFFCURVE",
"430 494 CURVE",
"444 497 OFFCURVE",
"465 501 OFFCURVE",
"477 504 CURVE",
"481 538 OFFCURVE",
"490 599 OFFCURVE",
"491 611 CURVE",
"413 692 OFFCURVE",
"263 714 OFFCURVE",
"144 658 CURVE SMOOTH"
);
}
);
};
layerId = "0B1F8F77-7348-4C28-A663-EA76351238C4";
paths = (
{
closed = 1;
nodes = (
"489 56 OFFCURVE",
"511 118 OFFCURVE",
"511 178 CURVE SMOOTH",
"511 279 OFFCURVE",
"398 336 OFFCURVE",
"329 369 CURVE SMOOTH",
"224 420 OFFCURVE",
"155 451 OFFCURVE",
"155 529 CURVE SMOOTH",
"155 575 OFFCURVE",
"175 611 OFFCURVE",
"249 637 CURVE",
"306 637 OFFCURVE",
"377 630 OFFCURVE",
"418 583 CURVE",
"431 496 LINE",
"477 506 LINE",
"479 535 OFFCURVE",
"487 606 OFFCURVE",
"490 634 CURVE",
"437 678 OFFCURVE",
"366 695 OFFCURVE",
"268 688 CURVE SMOOTH",
"145 679 OFFCURVE",
"76 601 OFFCURVE",
"76 512 CURVE SMOOTH",
"76 412 OFFCURVE",
"171 362 OFFCURVE",
"245 324 CURVE SMOOTH",
"362 264 OFFCURVE",
"434 239 OFFCURVE",
"434 150 CURVE SMOOTH",
"434 108 OFFCURVE",
"400 64 OFFCURVE",
"341 42 CURVE",
"249 38 OFFCURVE",
"165 55 OFFCURVE",
"133 92 CURVE",
"121 180 LINE",
"74 170 LINE",
"70 136 OFFCURVE",
"61 55 OFFCURVE",
"60 43 CURVE",
"125 -19 OFFCURVE",
"287 -39 OFFCURVE",
"406 17 CURVE SMOOTH"
);
}
);
width = 571;
},
{
anchors = (
{
name = bottom;
position = "{285, 0}";
},
{
name = top;
position = "{285, 708}";
}
);
background = {
components = (
{
name = C;
transform = "{-1, 0, 0, -1, 632, 683}";
}
);
};
layerId = "11343128-4963-4E5D-BE9C-B74F53B36FA5";
paths = (
{
closed = 1;
nodes = (
"495 56 OFFCURVE",
"524 113 OFFCURVE",
"524 207 CURVE SMOOTH",
"523 321 OFFCURVE",
"395 374 OFFCURVE",
"326 408 CURVE SMOOTH",
"253 442 OFFCURVE",
"198 469 OFFCURVE",
"186 499 CURVE SMOOTH",
"169 542 OFFCURVE",
"208 579 OFFCURVE",
"254 597 CURVE",
"311 597 OFFCURVE",
"363 586 OFFCURVE",
"404 536 CURVE",
"415 445 LINE",
"489 458 LINE",
"491 487 OFFCURVE",
"499 604 OFFCURVE",
"502 632 CURVE",
"449 677 OFFCURVE",
"357 700 OFFCURVE",
"259 689 CURVE SMOOTH",
"142 676 OFFCURVE",
"58 612 OFFCURVE",
"57 482 CURVE SMOOTH",
"56 363 OFFCURVE",
"167 315 OFFCURVE",
"242 277 CURVE SMOOTH",
"322 235 OFFCURVE",
"381 214 OFFCURVE",
"393 174 CURVE SMOOTH",
"405 133 OFFCURVE",
"345 94 OFFCURVE",
"311 80 CURVE",
"259 77 OFFCURVE",
"196 88 OFFCURVE",
"146 140 CURVE",
"133 228 LINE",
"60 215 LINE",
"58 181 OFFCURVE",
"52 63 OFFCURVE",
"49 51 CURVE",
"120 -15 OFFCURVE",
"293 -40 OFFCURVE",
"412 17 CURVE SMOOTH"
);
}
);
width = 568;
}
);
leftKerningGroup = I;
rightKerningGroup = I;
},
{
glyphname = Germandbls;
lastChange = "2017-02-16 22:50:04 +0000";
layers = (
{
background = {
paths = (
{
closed = 1;
nodes = (
"148 716 OFFCURVE",
"-7 489 OFFCURVE",
"33 235 CURVE SMOOTH",
"59 71 OFFCURVE",
"177 -5 OFFCURVE",
"295 -14 CURVE SMOOTH",
"428 -24 OFFCURVE",
"530 12 OFFCURVE",
"587 51 CURVE",
"587 129 OFFCURVE",
"593 227 OFFCURVE",
"600 249 CURVE SMOOTH",
"609 276 OFFCURVE",
"632 282 OFFCURVE",
"640 282 CURVE",
"644 343 LINE",
"556 340 OFFCURVE",
"511 341 OFFCURVE",
"428 344 CURVE",
"420 285 LINE",
"475 269 LINE",
"474 213 OFFCURVE",
"474 117 OFFCURVE",
"436 76 CURVE",
"317 57 OFFCURVE",
"210 114 OFFCURVE",
"185 271 CURVE SMOOTH",
"153 469 OFFCURVE",
"267 601 OFFCURVE",
"331 628 CURVE",
"413 622 OFFCURVE",
"498 573 OFFCURVE",
"525 536 CURVE",
"530 481 LINE",
"593 492 LINE",
"622 651 LINE",
"588 684 OFFCURVE",
"517 716 OFFCURVE",
"390 716 CURVE SMOOTH"
);
}
);
};
layerId = "71FD7A9F-05F5-4D76-8D4F-547475A05E4C";
paths = (
{
closed = 1;
nodes = (
"364 -80 OFFCURVE",
"574 13 OFFCURVE",
"591 168 CURVE SMOOTH",
"605 306 OFFCURVE",
"481 350 OFFCURVE",
"353 384 CURVE",
"302 317 LINE",
"422 269 OFFCURVE",
"490 181 OFFCURVE",
"426 79 CURVE",
"331 81 LINE",
"320 149 LINE",
"265 139 LINE",
"237 37 LINE"
);
},
{
closed = 1;
nodes = (
"538 642 OFFCURVE",
"447 724 OFFCURVE",
"305 693 CURVE SMOOTH",
"211 673 OFFCURVE",
"90 622 OFFCURVE",
"67 404 CURVE SMOOTH",
"55 294 OFFCURVE",
"43 179 OFFCURVE",
"35 104 CURVE",
"33 80 OFFCURVE",
"54 68 OFFCURVE",
"72 65 CURVE",
"-13 54 LINE",
"-25 0 LINE",
"195 0 LINE",
"199 55 LINE",
"163 64 LINE",
"184 265 OFFCURVE",
"193 384 OFFCURVE",
"198 428 CURVE SMOOTH",
"215 572 OFFCURVE",
"355 649 OFFCURVE",
"407 590 CURVE",
"347 475 OFFCURVE",
"261 359 OFFCURVE",
"274 373 CURVE",
"301 316 LINE",
"351 366 LINE",
"542 560 LINE",
"545 590 LINE"
);
}
);
width = 599;
},
{
background = {
paths = (
{
closed = 1;
nodes = (
"178 716 OFFCURVE",
"23 489 OFFCURVE",
"63 235 CURVE SMOOTH",
"89 71 OFFCURVE",
"207 -5 OFFCURVE",
"325 -14 CURVE SMOOTH",
"458 -24 OFFCURVE",
"560 12 OFFCURVE",
"617 51 CURVE",
"617 129 OFFCURVE",
"623 227 OFFCURVE",
"630 249 CURVE SMOOTH",
"639 276 OFFCURVE",
"662 282 OFFCURVE",
"670 282 CURVE",
"674 343 LINE",
"586 340 OFFCURVE",
"541 341 OFFCURVE",
"458 344 CURVE",
"450 285 LINE",
"505 269 LINE",
"504 213 OFFCURVE",
"504 117 OFFCURVE",
"466 76 CURVE",
"347 57 OFFCURVE",
"240 114 OFFCURVE",
"215 271 CURVE SMOOTH",
"183 469 OFFCURVE",
"297 601 OFFCURVE",
"361 628 CURVE",
"443 622 OFFCURVE",
"528 573 OFFCURVE",
"555 536 CURVE",
"560 481 LINE",
"623 492 LINE",
"652 651 LINE",
"618 684 OFFCURVE",
"547 716 OFFCURVE",
"420 716 CURVE SMOOTH"
);
}
);
};
layerId = "977FCFA9-45AC-4A33-B2D7-4D17E6BBF8E0";
paths = (
{
closed = 1;
nodes = (
"394 -80 OFFCURVE",
"604 13 OFFCURVE",
"621 168 CURVE SMOOTH",
"635 306 OFFCURVE",
"511 350 OFFCURVE",
"383 384 CURVE",
"332 317 LINE",
"452 269 OFFCURVE",
"520 181 OFFCURVE",
"456 79 CURVE",
"361 81 LINE",
"350 149 LINE",
"295 139 LINE",
"267 37 LINE"
);
},
{
closed = 1;
nodes = (
"568 642 OFFCURVE",
"477 724 OFFCURVE",
"335 693 CURVE SMOOTH",
"241 673 OFFCURVE",
"120 622 OFFCURVE",
"97 404 CURVE SMOOTH",
"85 294 OFFCURVE",
"73 179 OFFCURVE",
"65 104 CURVE",
"63 80 OFFCURVE",
"84 68 OFFCURVE",
"102 65 CURVE",
"17 54 LINE",
"5 0 LINE",
"225 0 LINE",
"229 55 LINE",
"193 64 LINE",
"214 265 OFFCURVE",
"223 384 OFFCURVE",
"228 428 CURVE SMOOTH",
"245 572 OFFCURVE",
"385 649 OFFCURVE",
"437 590 CURVE",
"377 475 OFFCURVE",
"291 359 OFFCURVE",
"304 373 CURVE",
"331 316 LINE",
"381 366 LINE",
"572 560 LINE",
"575 590 LINE"
);
}
);
width = 633;
},
{
anchors = (
{
name = bottom;
position = "{400, 0}";
},
{
name = top;
position = "{400, 700}";
}
);
background = {
components = (
{
name = O;
transform = "{1, 0, 0, 1, 49, 0}";
}
);
};
layerId = "11343128-4963-4E5D-BE9C-B74F53B36FA5";
paths = (
{
closed = 1;
nodes = (
"479 -78 OFFCURVE",
"715 -1 OFFCURVE",
"725 184 CURVE SMOOTH",
"734 354 OFFCURVE",
"563 417 OFFCURVE",
"392 372 CURVE",
"367 320 LINE",
"548 320 OFFCURVE",
"601 162 OFFCURVE",
"542 76 CURVE",
"428 77 LINE",
"408 156 LINE",
"344 146 LINE",
"340 39 LINE"
);
},
{
closed = 1;
nodes = (
"594 714 OFFCURVE",
"352 743 OFFCURVE",
"226 645 CURVE SMOOTH",
"167 599 OFFCURVE",
"118 534 OFFCURVE",
"118 375 CURVE SMOOTH",
"118 265 OFFCURVE",
"119 189 OFFCURVE",
"119 114 CURVE",
"119 90 OFFCURVE",
"141 78 OFFCURVE",
"160 75 CURVE",
"55 64 LINE",
"49 0 LINE",
"304 0 LINE",
"311 65 LINE",
"269 74 LINE",
"269 275 OFFCURVE",
"266 345 OFFCURVE",
"266 389 CURVE SMOOTH",
"266 534 OFFCURVE",
"294 577 OFFCURVE",
"323 596 CURVE",
"409 596 OFFCURVE",
"469 562 OFFCURVE",
"492 528 CURVE",
"420 472 OFFCURVE",
"346 414 OFFCURVE",
"323 391 CURVE",
"367 319 LINE",
"420 372 LINE",
"621 522 LINE",
"628 579 LINE"
);
}
);
width = 739;
},
{
anchors = (
{
name = bottom;
position = "{277, 0}";
},
{
name = top;
position = "{277, 700}";
}
);
background = {
anchors = (
{
name = bottom;
position = "{284, 0}";
},
{
name = top;
position = "{284, 708}";
}
);
components = (
{
name = T;
transform = "{-1, 0, 0, -1, 864, 682}";
},
{
name = f;
transform = "{1, 0, 0, 1, -24, -52}";
}
);
};
layerId = "0B1F8F77-7348-4C28-A663-EA76351238C4";
paths = (
{
closed = 1;
nodes = (
"461 -82 OFFCURVE",
"616 53 OFFCURVE",
"614 184 CURVE SMOOTH",
"612 331 OFFCURVE",
"527 410 OFFCURVE",
"309 383 CURVE",
"293 346 LINE",
"546 374 OFFCURVE",
"604 116 OFFCURVE",
"455 36 CURVE",
"351 36 LINE",
"331 117 LINE",
"286 106 LINE",
"282 21 LINE"
);
},
{
closed = 1;
nodes = (
"508 652 OFFCURVE",
"408 730 OFFCURVE",
"252 677 CURVE SMOOTH",
"141 639 OFFCURVE",
"87 534 OFFCURVE",
"87 377 CURVE SMOOTH",
"87 267 OFFCURVE",
"86 179 OFFCURVE",
"86 104 CURVE",
"86 80 OFFCURVE",
"102 57 OFFCURVE",
"126 55 CURVE",
"18 45 LINE",
"15 0 LINE",
"237 0 LINE",
"243 44 LINE",
"183 55 LINE",
"155 131 OFFCURVE",
"162 158 OFFCURVE",
"162 361 CURVE SMOOTH",
"162 552 OFFCURVE",
"201 598 OFFCURVE",
"254 633 CURVE",
"364 647 OFFCURVE",
"438 594 OFFCURVE",
"455 535 CURVE",
"353 448 OFFCURVE",
"323 429 OFFCURVE",
"269 383 CURVE",
"293 346 LINE",
"328 374 LINE",
"525 532 LINE",
"532 575 LINE"
);
}
);
width = 629;
}
);
leftKerningGroup = I;
rightKerningGroup = B;
unicode = 1E9E;
},
{
glyphname = T;
lastChange = "2017-02-22 21:09:27 +0000";
layers = (
{
layerId = "71FD7A9F-05F5-4D76-8D4F-547475A05E4C";
width = 568;
},
{
anchors = (
{
name = bottom;
position = "{295, 0}";
},
{
name = center;
position = "{326, 350}";
},
{
name = top;
position = "{334, 646}";
}
);
background = {
components = (
{
name = H;
transform = "{1, 0, 0, 1, -81, 0}";
}
);
};
components = (
{
name = _part.stem.cap;
}
);
guideLines = (
{
position = "{399, 637}";
},
{
position = "{578, 535}";
}
);
layerId = "977FCFA9-45AC-4A33-B2D7-4D17E6BBF8E0";
paths = (
{
closed = 1;
nodes = (
"260 589 LINE",
"154 590 OFFCURVE",
"104 585 OFFCURVE",
"80 507 CURVE",
"29 518 LINE",
"65 681 LINE",
"237 675 OFFCURVE",
"416 675 OFFCURVE",
"586 681 CURVE",
"597 518 LINE",
"536 508 LINE",
"512 580 LINE",
"473 587 OFFCURVE",
"428 589 OFFCURVE",
"393 588 CURVE"
);
}
);
width = 568;
},
{
anchors = (
{
name = bottom;
position = "{299, 0}";
},
{
name = center;
position = "{299, 350}";
},
{
name = top;
position = "{299, 700}";
}
);
components = (
{
name = _part.stem.cap;
transform = "{1, 0, 0, 1, -82, 0}";
}
);
layerId = "11343128-4963-4E5D-BE9C-B74F53B36FA5";
paths = (
{
closed = 1;
nodes = (
"410 595 OFFCURVE",
"463 592 OFFCURVE",
"503 585 CURVE",
"523 499 LINE",
"590 509 LINE",
"593 689 LINE",
"423 679 OFFCURVE",
"195 678 OFFCURVE",
"10 688 CURVE",
"10 509 LINE",
"79 499 LINE",
"87 535 OFFCURVE",
"90 559 OFFCURVE",
"98 589 CURVE",
"133 594 OFFCURVE",
"185 596 OFFCURVE",
"242 595 CURVE",
"375 594 LINE"
);
}
);
width = 603;
},
{
anchors = (
{
name = bottom;
position = "{283, 0}";
},
{
name = center;
position = "{283, 350}";
},
{
name = top;
position = "{283, 708}";
}
);
background = {
components = (
{
name = F;
transform = "{-1, 0, 0, 1, 499, 0}";
}
);
};
components = (
{
name = _part.stem.cap;
transform = "{1, 0, 0, 1, -13, 0}";
}
);
guideLines = (
{
angle = 85;
position = "{-7, 348}";
}
);
layerId = "0B1F8F77-7348-4C28-A663-EA76351238C4";
paths = (
{
closed = 1;
nodes = (
"370 625 OFFCURVE",
"441 619 OFFCURVE",
"500 611 CURVE",
"515 533 LINE",
"561 539 LINE",
"563 687 LINE",
"372 676 OFFCURVE",
"192 677 OFFCURVE",
"11 687 CURVE",
"10 538 LINE",
"59 532 LINE",
"66 575 OFFCURVE",
"68 586 OFFCURVE",
"74 612 CURVE",
"95 620 OFFCURVE",
"150 621 OFFCURVE",
"215 624 CURVE",
"335 624 LINE"
);
}
);
width = 573;
}
);
leftKerningGroup = T;
rightKerningGroup = T;
unicode = 0054;
},
{
glyphname = T.001;
lastChange = "2017-02-19 14:03:58 +0000";
layers = (
{
layerId = "71FD7A9F-05F5-4D76-8D4F-547475A05E4C";
width = 568;
},
{
anchors = (
{
name = bottom;
position = "{295, 0}";
},
{
name = center;
position = "{326, 350}";
},
{
name = top;
position = "{334, 646}";
}
);
background = {
components = (
{
name = H;
transform = "{1, 0, 0, 1, -81, 0}";
}
);
};
components = (
{
name = _part.stem.cap;
}
);
guideLines = (
{
position = "{399, 637}";
},
{
position = "{578, 535}";
}
);
layerId = "977FCFA9-45AC-4A33-B2D7-4D17E6BBF8E0";
paths = (
{
closed = 1;
nodes = (
"260 589 LINE",
"154 590 OFFCURVE",
"104 585 OFFCURVE",
"80 507 CURVE",
"29 518 LINE",
"65 681 LINE",
"237 675 OFFCURVE",
"416 675 OFFCURVE",
"586 681 CURVE",
"597 518 LINE",
"536 508 LINE",
"512 580 LINE",
"473 587 OFFCURVE",
"428 589 OFFCURVE",
"393 588 CURVE"
);
}
);
width = 568;
},
{
anchors = (
{
name = bottom;
position = "{294, 0}";
},
{
name = center;
position = "{294, 350}";
},
{
name = top;
position = "{294, 700}";
}
);
components = (
{
name = _part.stem.cap;
transform = "{1, 0, 0, 1, -87, 0}";
}
);
layerId = "11343128-4963-4E5D-BE9C-B74F53B36FA5";
paths = (
{
closed = 1;
nodes = (
"405 592 OFFCURVE",
"458 589 OFFCURVE",
"498 582 CURVE",
"518 499 LINE",
"585 509 LINE",
"588 689 LINE",
"418 679 OFFCURVE",
"190 679 OFFCURVE",
"5 689 CURVE",
"5 509 LINE",
"74 499 LINE",
"82 535 OFFCURVE",
"85 556 OFFCURVE",
"93 586 CURVE",
"128 591 OFFCURVE",
"180 593 OFFCURVE",
"237 592 CURVE",
"370 591 LINE"
);
}
);
width = 593;
},
{
anchors = (
{
name = bottom;
position = "{288, 0}";
},
{
name = center;
position = "{288, 350}";
},
{
name = top;
position = "{288, 708}";
}
);
background = {
components = (
{
name = F;
transform = "{-1, 0, 0, 1, 504, 0}";
}
);
};
components = (
{
name = _part.stem.cap;
transform = "{1, 0, 0, 1, -8, 0}";
}
);
layerId = "0B1F8F77-7348-4C28-A663-EA76351238C4";
paths = (
{
closed = 1;
nodes = (
"375 625 OFFCURVE",
"446 619 OFFCURVE",
"505 611 CURVE",
"520 529 LINE",
"566 539 LINE",
"568 687 LINE",
"377 676 OFFCURVE",
"196 677 OFFCURVE",
"15 687 CURVE",
"15 538 LINE",
"64 529 LINE",
"71 572 OFFCURVE",
"73 586 OFFCURVE",
"79 612 CURVE",
"100 620 OFFCURVE",
"155 621 OFFCURVE",
"220 624 CURVE",
"340 624 LINE"
);
}
);
width = 588;
}
);
leftKerningGroup = T;
rightKerningGroup = T;
},
